G04*
G04 #@! TF.GenerationSoftware,Altium Limited,Altium Designer,25.0.2 (28)*
G04*
G04 Layer_Color=255*
%FSLAX25Y25*%
%MOIN*%
G70*
G04*
G04 #@! TF.SameCoordinates,0DD477D2-3154-419D-98E2-F069BAF48B4F*
G04*
G04*
G04 #@! TF.FilePolarity,Positive*
G04*
G01*
G75*
%ADD13R,0.02756X0.03543*%
%ADD14R,0.03543X0.03150*%
G04:AMPARAMS|DCode=15|XSize=21.65mil|YSize=9.84mil|CornerRadius=2.46mil|HoleSize=0mil|Usage=FLASHONLY|Rotation=0.000|XOffset=0mil|YOffset=0mil|HoleType=Round|Shape=RoundedRectangle|*
%AMROUNDEDRECTD15*
21,1,0.02165,0.00492,0,0,0.0*
21,1,0.01673,0.00984,0,0,0.0*
1,1,0.00492,0.00837,-0.00246*
1,1,0.00492,-0.00837,-0.00246*
1,1,0.00492,-0.00837,0.00246*
1,1,0.00492,0.00837,0.00246*
%
%ADD15ROUNDEDRECTD15*%
G04:AMPARAMS|DCode=16|XSize=21.65mil|YSize=9.84mil|CornerRadius=0.98mil|HoleSize=0mil|Usage=FLASHONLY|Rotation=0.000|XOffset=0mil|YOffset=0mil|HoleType=Round|Shape=RoundedRectangle|*
%AMROUNDEDRECTD16*
21,1,0.02165,0.00787,0,0,0.0*
21,1,0.01968,0.00984,0,0,0.0*
1,1,0.00197,0.00984,-0.00394*
1,1,0.00197,-0.00984,-0.00394*
1,1,0.00197,-0.00984,0.00394*
1,1,0.00197,0.00984,0.00394*
%
%ADD16ROUNDEDRECTD16*%
%ADD17R,0.03543X0.02756*%
%ADD25R,0.03937X0.03937*%
%ADD26R,0.05150X0.05150*%
%ADD27C,0.05150*%
%ADD28C,0.05906*%
%ADD29R,0.05906X0.05906*%
D13*
X21000Y20256D02*
D03*
X26906D02*
D03*
D14*
X42800Y14044D02*
D03*
Y19556D02*
D03*
D15*
X19500Y13256D02*
D03*
D16*
Y11287D02*
D03*
Y9319D02*
D03*
Y7350D02*
D03*
X28752Y13256D02*
D03*
Y11287D02*
D03*
Y9319D02*
D03*
Y7350D02*
D03*
D17*
X35800Y13747D02*
D03*
Y19653D02*
D03*
X4500Y14303D02*
D03*
Y20209D02*
D03*
X11500Y14303D02*
D03*
Y20209D02*
D03*
D25*
X24126Y10303D02*
D03*
D26*
X35600Y54100D02*
D03*
D27*
X27726D02*
D03*
X19852D02*
D03*
X11978D02*
D03*
D28*
X9000Y37500D02*
D03*
X19000D02*
D03*
X29000D02*
D03*
D29*
X39000D02*
D03*
M02*
