G04*
G04 #@! TF.GenerationSoftware,Altium Limited,Altium Designer,25.0.2 (28)*
G04*
G04 Layer_Color=16711935*
%FSLAX25Y25*%
%MOIN*%
G70*
G04*
G04 #@! TF.SameCoordinates,0DD477D2-3154-419D-98E2-F069BAF48B4F*
G04*
G04*
G04 #@! TF.FilePolarity,Positive*
G04*
G01*
G75*
%ADD10C,0.00787*%
%ADD11C,0.00500*%
%ADD12C,0.00394*%
D10*
X45594Y54200D02*
G03*
X45594Y54200I-394J0D01*
G01*
X16252Y14240D02*
G03*
X16252Y14240I-394J0D01*
G01*
D11*
X4104Y45635D02*
X43474D01*
X4104D02*
Y65714D01*
X43474D01*
Y45635D02*
Y65714D01*
D12*
X20606Y18386D02*
Y22126D01*
X27299Y18386D02*
Y22126D01*
X20606D02*
X27299D01*
X20606Y18386D02*
X27299D01*
X40930Y13355D02*
Y20245D01*
X44670Y13355D02*
Y20245D01*
X40930Y13355D02*
X44670D01*
X40930Y20245D02*
X44670D01*
X29047Y5382D02*
Y15224D01*
X19205Y5382D02*
Y15224D01*
X29047D01*
X19205Y5382D02*
X29047D01*
X33930Y13354D02*
X37670D01*
X33930Y20046D02*
X37670D01*
X33930Y13354D02*
Y20046D01*
X37670Y13354D02*
Y20046D01*
X2630Y13910D02*
X6370D01*
X2630Y20602D02*
X6370D01*
X2630Y13910D02*
Y20602D01*
X6370Y13910D02*
Y20602D01*
X9630Y13910D02*
X13370D01*
X9630Y20602D02*
X13370D01*
X9630Y13910D02*
Y20602D01*
X13370Y13910D02*
Y20602D01*
M02*
