G04*
G04 #@! TF.GenerationSoftware,Altium Limited,Altium Designer,25.0.2 (28)*
G04*
G04 Layer_Color=65535*
%FSLAX25Y25*%
%MOIN*%
G70*
G04*
G04 #@! TF.SameCoordinates,0DD477D2-3154-419D-98E2-F069BAF48B4F*
G04*
G04*
G04 #@! TF.FilePolarity,Positive*
G04*
G01*
G75*
%ADD10C,0.00787*%
%ADD11C,0.00500*%
%ADD12C,0.00394*%
G36*
X10456Y29487D02*
X7937D01*
Y29822D01*
X10158D01*
Y31063D01*
X10456D01*
Y29487D01*
D02*
G37*
G36*
X9677Y29086D02*
X9699Y29079D01*
X9728Y29068D01*
X9761Y29057D01*
X9801Y29043D01*
X9845Y29024D01*
X9892Y29003D01*
X9994Y28952D01*
X10096Y28886D01*
X10147Y28846D01*
X10198Y28806D01*
X10242Y28762D01*
X10285Y28712D01*
X10289Y28708D01*
X10296Y28701D01*
X10303Y28682D01*
X10318Y28664D01*
X10336Y28635D01*
X10354Y28606D01*
X10373Y28566D01*
X10391Y28526D01*
X10413Y28479D01*
X10431Y28428D01*
X10449Y28373D01*
X10467Y28315D01*
X10482Y28253D01*
X10489Y28187D01*
X10496Y28118D01*
X10500Y28045D01*
Y28005D01*
X10496Y27976D01*
Y27943D01*
X10493Y27903D01*
X10485Y27860D01*
X10478Y27809D01*
X10460Y27703D01*
X10431Y27594D01*
X10391Y27485D01*
X10365Y27434D01*
X10336Y27383D01*
X10333Y27379D01*
X10329Y27372D01*
X10318Y27357D01*
X10303Y27343D01*
X10289Y27321D01*
X10267Y27296D01*
X10242Y27266D01*
X10212Y27237D01*
X10180Y27208D01*
X10147Y27175D01*
X10063Y27110D01*
X9965Y27048D01*
X9856Y26993D01*
X9852D01*
X9841Y26986D01*
X9823Y26983D01*
X9801Y26972D01*
X9772Y26964D01*
X9736Y26953D01*
X9696Y26939D01*
X9652Y26928D01*
X9605Y26917D01*
X9550Y26902D01*
X9437Y26884D01*
X9310Y26870D01*
X9179Y26862D01*
X9175D01*
X9161D01*
X9139D01*
X9113Y26866D01*
X9077D01*
X9040Y26870D01*
X8993Y26873D01*
X8946Y26881D01*
X8840Y26899D01*
X8724Y26924D01*
X8607Y26961D01*
X8494Y27012D01*
X8491Y27015D01*
X8480Y27019D01*
X8465Y27026D01*
X8447Y27041D01*
X8422Y27055D01*
X8392Y27073D01*
X8327Y27121D01*
X8254Y27183D01*
X8181Y27255D01*
X8108Y27339D01*
X8047Y27437D01*
X8043Y27441D01*
X8039Y27452D01*
X8032Y27467D01*
X8021Y27485D01*
X8010Y27514D01*
X7999Y27543D01*
X7985Y27579D01*
X7970Y27619D01*
X7956Y27663D01*
X7941Y27711D01*
X7919Y27812D01*
X7901Y27929D01*
X7894Y28049D01*
Y28085D01*
X7897Y28111D01*
X7901Y28144D01*
X7905Y28184D01*
X7908Y28224D01*
X7919Y28271D01*
X7941Y28369D01*
X7974Y28479D01*
X7996Y28533D01*
X8021Y28584D01*
X8054Y28635D01*
X8087Y28686D01*
X8090Y28690D01*
X8094Y28697D01*
X8105Y28712D01*
X8123Y28730D01*
X8141Y28748D01*
X8167Y28773D01*
X8196Y28799D01*
X8225Y28828D01*
X8261Y28857D01*
X8305Y28886D01*
X8349Y28919D01*
X8396Y28948D01*
X8451Y28974D01*
X8505Y29003D01*
X8563Y29024D01*
X8629Y29046D01*
X8705Y28719D01*
X8702D01*
X8695Y28715D01*
X8680Y28708D01*
X8662Y28701D01*
X8640Y28693D01*
X8611Y28682D01*
X8553Y28653D01*
X8487Y28617D01*
X8422Y28573D01*
X8360Y28519D01*
X8305Y28460D01*
X8298Y28453D01*
X8283Y28431D01*
X8265Y28395D01*
X8240Y28348D01*
X8218Y28286D01*
X8196Y28216D01*
X8181Y28133D01*
X8178Y28042D01*
Y28013D01*
X8181Y27994D01*
Y27969D01*
X8185Y27940D01*
X8196Y27871D01*
X8210Y27794D01*
X8236Y27714D01*
X8272Y27630D01*
X8320Y27554D01*
Y27550D01*
X8327Y27547D01*
X8345Y27521D01*
X8374Y27488D01*
X8418Y27448D01*
X8472Y27401D01*
X8534Y27357D01*
X8611Y27317D01*
X8695Y27281D01*
X8698D01*
X8705Y27277D01*
X8716Y27274D01*
X8735Y27270D01*
X8756Y27263D01*
X8782Y27255D01*
X8844Y27245D01*
X8917Y27230D01*
X8997Y27215D01*
X9084Y27208D01*
X9179Y27204D01*
X9182D01*
X9193D01*
X9211D01*
X9233D01*
X9259Y27208D01*
X9291D01*
X9328Y27212D01*
X9368Y27215D01*
X9455Y27226D01*
X9550Y27245D01*
X9645Y27266D01*
X9739Y27296D01*
X9743D01*
X9750Y27299D01*
X9761Y27306D01*
X9779Y27314D01*
X9823Y27336D01*
X9874Y27368D01*
X9932Y27408D01*
X9994Y27459D01*
X10049Y27518D01*
X10100Y27587D01*
Y27590D01*
X10103Y27598D01*
X10110Y27609D01*
X10118Y27623D01*
X10125Y27641D01*
X10136Y27663D01*
X10158Y27714D01*
X10180Y27780D01*
X10198Y27852D01*
X10212Y27933D01*
X10216Y28016D01*
Y28042D01*
X10212Y28064D01*
Y28089D01*
X10209Y28115D01*
X10194Y28180D01*
X10176Y28256D01*
X10147Y28333D01*
X10107Y28413D01*
X10085Y28453D01*
X10056Y28489D01*
X10052Y28493D01*
X10049Y28497D01*
X10038Y28508D01*
X10027Y28522D01*
X10009Y28537D01*
X9987Y28555D01*
X9965Y28577D01*
X9936Y28595D01*
X9903Y28617D01*
X9867Y28642D01*
X9830Y28664D01*
X9787Y28686D01*
X9739Y28704D01*
X9688Y28722D01*
X9634Y28741D01*
X9575Y28755D01*
X9659Y29090D01*
X9663D01*
X9677Y29086D01*
D02*
G37*
G36*
X9823Y26495D02*
X9874Y26487D01*
X9932Y26473D01*
X9994Y26455D01*
X10060Y26426D01*
X10129Y26386D01*
X10132D01*
X10136Y26382D01*
X10158Y26364D01*
X10191Y26338D01*
X10227Y26302D01*
X10271Y26254D01*
X10318Y26196D01*
X10362Y26131D01*
X10402Y26054D01*
Y26051D01*
X10405Y26043D01*
X10409Y26032D01*
X10416Y26018D01*
X10424Y25996D01*
X10435Y25971D01*
X10449Y25912D01*
X10467Y25843D01*
X10485Y25759D01*
X10496Y25668D01*
X10500Y25570D01*
Y25512D01*
X10496Y25483D01*
Y25450D01*
X10493Y25414D01*
X10489Y25370D01*
X10475Y25279D01*
X10460Y25184D01*
X10435Y25090D01*
X10402Y24999D01*
Y24995D01*
X10398Y24988D01*
X10391Y24977D01*
X10384Y24962D01*
X10362Y24919D01*
X10329Y24868D01*
X10285Y24809D01*
X10234Y24747D01*
X10172Y24689D01*
X10103Y24635D01*
X10100D01*
X10092Y24627D01*
X10081Y24624D01*
X10067Y24613D01*
X10049Y24606D01*
X10027Y24595D01*
X9972Y24569D01*
X9903Y24544D01*
X9827Y24522D01*
X9739Y24507D01*
X9648Y24500D01*
X9619Y24813D01*
X9623D01*
X9626D01*
X9637Y24817D01*
X9652D01*
X9685Y24824D01*
X9732Y24835D01*
X9779Y24849D01*
X9834Y24864D01*
X9885Y24890D01*
X9932Y24915D01*
X9936Y24919D01*
X9950Y24929D01*
X9976Y24948D01*
X10001Y24977D01*
X10034Y25013D01*
X10067Y25053D01*
X10100Y25108D01*
X10129Y25166D01*
Y25170D01*
X10132Y25173D01*
X10136Y25184D01*
X10140Y25195D01*
X10151Y25232D01*
X10165Y25279D01*
X10180Y25337D01*
X10191Y25403D01*
X10198Y25475D01*
X10202Y25556D01*
Y25588D01*
X10198Y25625D01*
X10194Y25668D01*
X10187Y25719D01*
X10180Y25778D01*
X10165Y25836D01*
X10147Y25890D01*
X10143Y25898D01*
X10136Y25916D01*
X10121Y25941D01*
X10107Y25974D01*
X10081Y26007D01*
X10056Y26043D01*
X10027Y26080D01*
X9990Y26109D01*
X9987Y26112D01*
X9972Y26120D01*
X9954Y26131D01*
X9925Y26145D01*
X9896Y26160D01*
X9859Y26171D01*
X9819Y26178D01*
X9776Y26182D01*
X9772D01*
X9754D01*
X9732Y26178D01*
X9703Y26174D01*
X9674Y26164D01*
X9637Y26153D01*
X9601Y26134D01*
X9568Y26109D01*
X9565Y26105D01*
X9554Y26094D01*
X9539Y26080D01*
X9517Y26054D01*
X9495Y26025D01*
X9470Y25985D01*
X9444Y25938D01*
X9423Y25883D01*
X9419Y25880D01*
X9415Y25861D01*
X9404Y25832D01*
X9401Y25814D01*
X9393Y25789D01*
X9382Y25763D01*
X9375Y25730D01*
X9364Y25694D01*
X9353Y25650D01*
X9342Y25607D01*
X9328Y25556D01*
X9313Y25497D01*
X9299Y25436D01*
Y25432D01*
X9295Y25421D01*
X9291Y25403D01*
X9284Y25381D01*
X9277Y25352D01*
X9270Y25319D01*
X9248Y25246D01*
X9222Y25166D01*
X9197Y25082D01*
X9171Y25010D01*
X9157Y24977D01*
X9142Y24948D01*
Y24944D01*
X9139Y24940D01*
X9124Y24919D01*
X9106Y24886D01*
X9077Y24849D01*
X9044Y24806D01*
X9004Y24762D01*
X8957Y24718D01*
X8906Y24682D01*
X8898Y24678D01*
X8880Y24667D01*
X8851Y24653D01*
X8815Y24638D01*
X8767Y24624D01*
X8713Y24609D01*
X8654Y24598D01*
X8593Y24595D01*
X8589D01*
X8585D01*
X8574D01*
X8560D01*
X8523Y24602D01*
X8476Y24609D01*
X8422Y24620D01*
X8360Y24638D01*
X8298Y24664D01*
X8236Y24700D01*
X8232D01*
X8229Y24704D01*
X8207Y24722D01*
X8178Y24747D01*
X8141Y24780D01*
X8101Y24824D01*
X8058Y24879D01*
X8017Y24944D01*
X7981Y25017D01*
Y25021D01*
X7977Y25028D01*
X7974Y25039D01*
X7967Y25053D01*
X7959Y25071D01*
X7952Y25097D01*
X7937Y25152D01*
X7923Y25221D01*
X7908Y25301D01*
X7897Y25385D01*
X7894Y25479D01*
Y25526D01*
X7897Y25552D01*
Y25577D01*
X7905Y25647D01*
X7916Y25723D01*
X7934Y25803D01*
X7956Y25890D01*
X7985Y25971D01*
Y25974D01*
X7988Y25982D01*
X7996Y25992D01*
X8003Y26007D01*
X8021Y26043D01*
X8054Y26091D01*
X8090Y26145D01*
X8138Y26200D01*
X8192Y26251D01*
X8254Y26298D01*
X8258D01*
X8261Y26302D01*
X8272Y26309D01*
X8283Y26316D01*
X8320Y26335D01*
X8367Y26356D01*
X8425Y26382D01*
X8494Y26400D01*
X8567Y26418D01*
X8647Y26426D01*
X8673Y26105D01*
X8669D01*
X8662D01*
X8651Y26102D01*
X8633Y26098D01*
X8593Y26087D01*
X8538Y26072D01*
X8480Y26051D01*
X8422Y26018D01*
X8367Y25978D01*
X8316Y25927D01*
X8312Y25920D01*
X8298Y25901D01*
X8276Y25865D01*
X8254Y25818D01*
X8232Y25756D01*
X8210Y25683D01*
X8196Y25592D01*
X8192Y25490D01*
Y25439D01*
X8196Y25417D01*
X8200Y25388D01*
X8207Y25323D01*
X8221Y25250D01*
X8240Y25177D01*
X8269Y25108D01*
X8287Y25079D01*
X8305Y25050D01*
X8309Y25042D01*
X8323Y25028D01*
X8349Y25006D01*
X8378Y24984D01*
X8418Y24959D01*
X8462Y24937D01*
X8513Y24922D01*
X8571Y24915D01*
X8578D01*
X8593D01*
X8618Y24919D01*
X8647Y24926D01*
X8684Y24937D01*
X8720Y24955D01*
X8756Y24977D01*
X8793Y25010D01*
X8796Y25013D01*
X8807Y25031D01*
X8818Y25046D01*
X8826Y25061D01*
X8837Y25082D01*
X8851Y25108D01*
X8862Y25141D01*
X8877Y25177D01*
X8891Y25217D01*
X8909Y25264D01*
X8924Y25315D01*
X8942Y25374D01*
X8957Y25439D01*
X8975Y25512D01*
Y25516D01*
X8979Y25530D01*
X8982Y25552D01*
X8989Y25577D01*
X8997Y25610D01*
X9008Y25650D01*
X9019Y25690D01*
X9029Y25734D01*
X9055Y25829D01*
X9080Y25920D01*
X9095Y25963D01*
X9110Y26003D01*
X9120Y26040D01*
X9135Y26069D01*
Y26072D01*
X9139Y26080D01*
X9146Y26091D01*
X9153Y26105D01*
X9175Y26145D01*
X9204Y26193D01*
X9244Y26247D01*
X9288Y26302D01*
X9339Y26353D01*
X9393Y26396D01*
X9401Y26400D01*
X9419Y26415D01*
X9452Y26429D01*
X9495Y26451D01*
X9546Y26469D01*
X9608Y26487D01*
X9677Y26498D01*
X9750Y26502D01*
X9754D01*
X9757D01*
X9768D01*
X9783D01*
X9823Y26495D01*
D02*
G37*
G36*
X4635Y5603D02*
X4668D01*
X4755Y5594D01*
X4852Y5580D01*
X4954Y5557D01*
X5065Y5529D01*
X5167Y5492D01*
X5171D01*
X5180Y5488D01*
X5194Y5479D01*
X5213Y5469D01*
X5259Y5446D01*
X5319Y5405D01*
X5388Y5358D01*
X5457Y5298D01*
X5522Y5229D01*
X5582Y5150D01*
Y5146D01*
X5587Y5141D01*
X5596Y5127D01*
X5605Y5114D01*
X5629Y5067D01*
X5656Y5007D01*
X5689Y4933D01*
X5712Y4846D01*
X5735Y4753D01*
X5744Y4652D01*
X5337Y4619D01*
Y4624D01*
Y4633D01*
X5333Y4647D01*
X5328Y4670D01*
X5314Y4721D01*
X5296Y4790D01*
X5268Y4864D01*
X5226Y4938D01*
X5176Y5007D01*
X5111Y5072D01*
X5102Y5077D01*
X5079Y5095D01*
X5032Y5123D01*
X4972Y5150D01*
X4894Y5178D01*
X4801Y5206D01*
X4686Y5224D01*
X4557Y5229D01*
X4492D01*
X4464Y5224D01*
X4427Y5220D01*
X4344Y5211D01*
X4252Y5192D01*
X4159Y5169D01*
X4072Y5132D01*
X4035Y5109D01*
X3998Y5086D01*
X3988Y5081D01*
X3970Y5063D01*
X3942Y5030D01*
X3915Y4993D01*
X3882Y4943D01*
X3854Y4887D01*
X3836Y4823D01*
X3827Y4749D01*
Y4739D01*
Y4721D01*
X3831Y4688D01*
X3841Y4652D01*
X3854Y4605D01*
X3878Y4559D01*
X3905Y4513D01*
X3947Y4467D01*
X3951Y4462D01*
X3974Y4448D01*
X3993Y4434D01*
X4011Y4425D01*
X4039Y4411D01*
X4072Y4393D01*
X4113Y4379D01*
X4159Y4360D01*
X4210Y4342D01*
X4270Y4319D01*
X4335Y4301D01*
X4409Y4277D01*
X4492Y4259D01*
X4584Y4236D01*
X4589D01*
X4608Y4231D01*
X4635Y4227D01*
X4668Y4217D01*
X4709Y4208D01*
X4760Y4194D01*
X4811Y4180D01*
X4866Y4166D01*
X4986Y4134D01*
X5102Y4102D01*
X5157Y4083D01*
X5208Y4065D01*
X5254Y4051D01*
X5291Y4033D01*
X5296D01*
X5305Y4028D01*
X5319Y4019D01*
X5337Y4009D01*
X5388Y3982D01*
X5448Y3945D01*
X5518Y3894D01*
X5587Y3839D01*
X5652Y3774D01*
X5707Y3704D01*
X5712Y3695D01*
X5730Y3672D01*
X5749Y3631D01*
X5776Y3575D01*
X5799Y3510D01*
X5822Y3432D01*
X5836Y3344D01*
X5841Y3252D01*
Y3247D01*
Y3243D01*
Y3229D01*
Y3210D01*
X5832Y3159D01*
X5822Y3095D01*
X5804Y3021D01*
X5781Y2942D01*
X5744Y2859D01*
X5693Y2771D01*
Y2767D01*
X5689Y2762D01*
X5665Y2734D01*
X5633Y2693D01*
X5587Y2647D01*
X5527Y2591D01*
X5453Y2531D01*
X5370Y2476D01*
X5273Y2425D01*
X5268D01*
X5259Y2420D01*
X5245Y2416D01*
X5226Y2406D01*
X5199Y2397D01*
X5167Y2383D01*
X5093Y2365D01*
X5005Y2342D01*
X4899Y2318D01*
X4783Y2305D01*
X4658Y2300D01*
X4584D01*
X4547Y2305D01*
X4506D01*
X4460Y2309D01*
X4404Y2314D01*
X4289Y2332D01*
X4169Y2351D01*
X4048Y2383D01*
X3933Y2425D01*
X3928D01*
X3919Y2429D01*
X3905Y2439D01*
X3887Y2448D01*
X3831Y2476D01*
X3767Y2517D01*
X3693Y2573D01*
X3614Y2637D01*
X3540Y2716D01*
X3471Y2804D01*
Y2808D01*
X3462Y2817D01*
X3457Y2831D01*
X3443Y2850D01*
X3434Y2873D01*
X3420Y2901D01*
X3388Y2970D01*
X3355Y3058D01*
X3328Y3155D01*
X3309Y3266D01*
X3300Y3381D01*
X3697Y3418D01*
Y3413D01*
Y3409D01*
X3702Y3395D01*
Y3376D01*
X3711Y3335D01*
X3725Y3275D01*
X3743Y3215D01*
X3762Y3145D01*
X3794Y3081D01*
X3827Y3021D01*
X3831Y3016D01*
X3845Y2998D01*
X3868Y2965D01*
X3905Y2933D01*
X3951Y2891D01*
X4002Y2850D01*
X4072Y2808D01*
X4146Y2771D01*
X4150D01*
X4155Y2767D01*
X4169Y2762D01*
X4182Y2757D01*
X4229Y2743D01*
X4289Y2725D01*
X4363Y2707D01*
X4446Y2693D01*
X4538Y2684D01*
X4640Y2679D01*
X4681D01*
X4728Y2684D01*
X4783Y2688D01*
X4848Y2697D01*
X4922Y2707D01*
X4995Y2725D01*
X5065Y2748D01*
X5074Y2753D01*
X5097Y2762D01*
X5130Y2781D01*
X5171Y2799D01*
X5213Y2831D01*
X5259Y2864D01*
X5305Y2901D01*
X5342Y2947D01*
X5347Y2951D01*
X5356Y2970D01*
X5370Y2993D01*
X5388Y3030D01*
X5407Y3067D01*
X5421Y3113D01*
X5430Y3164D01*
X5434Y3219D01*
Y3224D01*
Y3247D01*
X5430Y3275D01*
X5425Y3312D01*
X5411Y3349D01*
X5398Y3395D01*
X5374Y3441D01*
X5342Y3483D01*
X5337Y3487D01*
X5324Y3501D01*
X5305Y3520D01*
X5273Y3547D01*
X5236Y3575D01*
X5185Y3607D01*
X5125Y3640D01*
X5056Y3667D01*
X5051Y3672D01*
X5028Y3677D01*
X4991Y3691D01*
X4968Y3695D01*
X4936Y3704D01*
X4903Y3718D01*
X4862Y3728D01*
X4815Y3741D01*
X4760Y3755D01*
X4704Y3769D01*
X4640Y3788D01*
X4566Y3806D01*
X4487Y3825D01*
X4483D01*
X4469Y3829D01*
X4446Y3834D01*
X4418Y3843D01*
X4381Y3852D01*
X4340Y3862D01*
X4247Y3889D01*
X4146Y3922D01*
X4039Y3954D01*
X3947Y3986D01*
X3905Y4005D01*
X3868Y4023D01*
X3864D01*
X3859Y4028D01*
X3831Y4046D01*
X3790Y4070D01*
X3743Y4106D01*
X3688Y4148D01*
X3633Y4199D01*
X3577Y4259D01*
X3531Y4324D01*
X3526Y4333D01*
X3512Y4356D01*
X3494Y4393D01*
X3476Y4439D01*
X3457Y4499D01*
X3439Y4568D01*
X3425Y4642D01*
X3420Y4721D01*
Y4725D01*
Y4730D01*
Y4744D01*
Y4763D01*
X3429Y4809D01*
X3439Y4869D01*
X3452Y4938D01*
X3476Y5017D01*
X3508Y5095D01*
X3554Y5174D01*
Y5178D01*
X3559Y5183D01*
X3582Y5211D01*
X3614Y5248D01*
X3656Y5294D01*
X3711Y5345D01*
X3780Y5400D01*
X3864Y5451D01*
X3956Y5497D01*
X3961D01*
X3970Y5502D01*
X3984Y5506D01*
X4002Y5516D01*
X4025Y5525D01*
X4058Y5534D01*
X4127Y5553D01*
X4215Y5571D01*
X4316Y5589D01*
X4423Y5603D01*
X4543Y5608D01*
X4603D01*
X4635Y5603D01*
D02*
G37*
G36*
X8941Y2355D02*
X8516D01*
Y3862D01*
X6862D01*
Y2355D01*
X6437D01*
Y5553D01*
X6862D01*
Y4240D01*
X8516D01*
Y5553D01*
X8941D01*
Y2355D01*
D02*
G37*
G36*
X13316Y5562D02*
X13376Y5553D01*
X13450Y5539D01*
X13533Y5516D01*
X13616Y5488D01*
X13700Y5451D01*
X13704D01*
X13709Y5446D01*
X13737Y5432D01*
X13778Y5405D01*
X13824Y5372D01*
X13880Y5326D01*
X13935Y5275D01*
X13991Y5215D01*
X14037Y5146D01*
X14041Y5137D01*
X14055Y5114D01*
X14074Y5072D01*
X14097Y5021D01*
X14120Y4961D01*
X14139Y4892D01*
X14152Y4813D01*
X14157Y4735D01*
Y4725D01*
Y4698D01*
X14152Y4661D01*
X14143Y4610D01*
X14129Y4550D01*
X14106Y4485D01*
X14078Y4421D01*
X14041Y4356D01*
X14037Y4347D01*
X14023Y4328D01*
X13995Y4296D01*
X13958Y4259D01*
X13912Y4217D01*
X13857Y4171D01*
X13792Y4129D01*
X13713Y4088D01*
X13718D01*
X13727Y4083D01*
X13741Y4079D01*
X13760Y4074D01*
X13811Y4056D01*
X13875Y4028D01*
X13949Y3991D01*
X14023Y3945D01*
X14092Y3885D01*
X14157Y3815D01*
X14162Y3806D01*
X14180Y3778D01*
X14208Y3732D01*
X14235Y3672D01*
X14263Y3598D01*
X14291Y3510D01*
X14310Y3409D01*
X14314Y3298D01*
Y3293D01*
Y3279D01*
Y3256D01*
X14310Y3229D01*
X14305Y3192D01*
X14296Y3150D01*
X14286Y3104D01*
X14277Y3053D01*
X14240Y2942D01*
X14212Y2882D01*
X14185Y2827D01*
X14148Y2767D01*
X14106Y2707D01*
X14060Y2647D01*
X14005Y2591D01*
X14000Y2586D01*
X13991Y2577D01*
X13972Y2563D01*
X13949Y2545D01*
X13921Y2522D01*
X13884Y2499D01*
X13843Y2471D01*
X13792Y2448D01*
X13741Y2420D01*
X13681Y2392D01*
X13621Y2369D01*
X13552Y2346D01*
X13478Y2328D01*
X13399Y2314D01*
X13321Y2305D01*
X13233Y2300D01*
X13191D01*
X13164Y2305D01*
X13127Y2309D01*
X13085Y2314D01*
X13039Y2323D01*
X12988Y2332D01*
X12877Y2360D01*
X12762Y2406D01*
X12702Y2434D01*
X12646Y2466D01*
X12591Y2508D01*
X12535Y2550D01*
X12531Y2554D01*
X12521Y2563D01*
X12508Y2577D01*
X12494Y2596D01*
X12471Y2619D01*
X12448Y2651D01*
X12420Y2684D01*
X12392Y2725D01*
X12364Y2771D01*
X12337Y2817D01*
X12286Y2928D01*
X12244Y3058D01*
X12230Y3127D01*
X12221Y3201D01*
X12614Y3252D01*
Y3247D01*
X12618Y3238D01*
X12623Y3219D01*
X12628Y3196D01*
X12632Y3169D01*
X12642Y3136D01*
X12665Y3067D01*
X12697Y2984D01*
X12739Y2905D01*
X12785Y2831D01*
X12840Y2767D01*
X12849Y2762D01*
X12868Y2743D01*
X12905Y2720D01*
X12951Y2697D01*
X13007Y2670D01*
X13076Y2647D01*
X13155Y2628D01*
X13238Y2623D01*
X13265D01*
X13284Y2628D01*
X13335Y2633D01*
X13399Y2647D01*
X13473Y2670D01*
X13552Y2702D01*
X13630Y2748D01*
X13704Y2813D01*
X13713Y2822D01*
X13737Y2850D01*
X13764Y2891D01*
X13801Y2947D01*
X13838Y3016D01*
X13866Y3095D01*
X13889Y3187D01*
X13898Y3289D01*
Y3293D01*
Y3303D01*
Y3316D01*
X13894Y3335D01*
X13889Y3386D01*
X13875Y3446D01*
X13857Y3520D01*
X13824Y3594D01*
X13778Y3667D01*
X13718Y3737D01*
X13709Y3746D01*
X13686Y3765D01*
X13649Y3792D01*
X13598Y3825D01*
X13533Y3857D01*
X13455Y3885D01*
X13367Y3903D01*
X13270Y3912D01*
X13228D01*
X13196Y3908D01*
X13155Y3903D01*
X13108Y3894D01*
X13053Y3885D01*
X12993Y3871D01*
X13039Y4217D01*
X13062D01*
X13081Y4213D01*
X13141D01*
X13191Y4222D01*
X13251Y4231D01*
X13321Y4245D01*
X13399Y4268D01*
X13473Y4301D01*
X13552Y4342D01*
X13556D01*
X13561Y4347D01*
X13584Y4365D01*
X13616Y4397D01*
X13653Y4439D01*
X13690Y4499D01*
X13723Y4568D01*
X13746Y4647D01*
X13755Y4693D01*
Y4744D01*
Y4749D01*
Y4753D01*
Y4781D01*
X13746Y4818D01*
X13737Y4869D01*
X13718Y4924D01*
X13695Y4984D01*
X13658Y5044D01*
X13607Y5100D01*
X13603Y5104D01*
X13579Y5123D01*
X13547Y5146D01*
X13506Y5174D01*
X13450Y5197D01*
X13386Y5220D01*
X13311Y5238D01*
X13228Y5243D01*
X13191D01*
X13150Y5234D01*
X13094Y5224D01*
X13034Y5206D01*
X12974Y5183D01*
X12910Y5146D01*
X12849Y5100D01*
X12845Y5095D01*
X12826Y5072D01*
X12799Y5040D01*
X12766Y4993D01*
X12734Y4933D01*
X12702Y4860D01*
X12674Y4772D01*
X12655Y4670D01*
X12263Y4739D01*
Y4744D01*
X12267Y4758D01*
X12272Y4776D01*
X12277Y4804D01*
X12286Y4836D01*
X12300Y4873D01*
X12327Y4961D01*
X12374Y5063D01*
X12429Y5164D01*
X12498Y5261D01*
X12586Y5349D01*
X12591Y5354D01*
X12600Y5358D01*
X12614Y5368D01*
X12632Y5381D01*
X12655Y5400D01*
X12688Y5418D01*
X12720Y5437D01*
X12762Y5460D01*
X12854Y5497D01*
X12960Y5534D01*
X13085Y5557D01*
X13150Y5566D01*
X13265D01*
X13316Y5562D01*
D02*
G37*
G36*
X11939Y5174D02*
X10886D01*
Y2355D01*
X10461D01*
Y5174D01*
X9408D01*
Y5553D01*
X11939D01*
Y5174D01*
D02*
G37*
G36*
X15839Y5562D02*
X15899Y5553D01*
X15968Y5539D01*
X16042Y5520D01*
X16120Y5497D01*
X16194Y5460D01*
X16199D01*
X16204Y5455D01*
X16227Y5442D01*
X16264Y5418D01*
X16310Y5386D01*
X16361Y5340D01*
X16416Y5289D01*
X16467Y5229D01*
X16518Y5160D01*
X16522Y5150D01*
X16541Y5127D01*
X16559Y5086D01*
X16592Y5026D01*
X16620Y4956D01*
X16656Y4878D01*
X16689Y4786D01*
X16716Y4684D01*
Y4679D01*
X16721Y4670D01*
X16726Y4656D01*
X16730Y4633D01*
X16735Y4605D01*
X16740Y4573D01*
X16749Y4532D01*
X16753Y4485D01*
X16763Y4434D01*
X16767Y4379D01*
X16772Y4314D01*
X16781Y4250D01*
X16786Y4176D01*
Y4102D01*
X16790Y4019D01*
Y3931D01*
Y3926D01*
Y3908D01*
Y3875D01*
Y3839D01*
X16786Y3788D01*
Y3732D01*
X16781Y3672D01*
X16777Y3607D01*
X16763Y3460D01*
X16740Y3307D01*
X16712Y3159D01*
X16693Y3090D01*
X16670Y3021D01*
Y3016D01*
X16666Y3007D01*
X16656Y2988D01*
X16647Y2965D01*
X16638Y2933D01*
X16620Y2901D01*
X16582Y2822D01*
X16536Y2739D01*
X16476Y2647D01*
X16407Y2563D01*
X16324Y2485D01*
X16319D01*
X16315Y2476D01*
X16301Y2466D01*
X16282Y2457D01*
X16259Y2443D01*
X16236Y2425D01*
X16167Y2392D01*
X16083Y2360D01*
X15987Y2328D01*
X15871Y2309D01*
X15746Y2300D01*
X15700D01*
X15668Y2305D01*
X15631Y2309D01*
X15585Y2318D01*
X15534Y2328D01*
X15478Y2342D01*
X15423Y2360D01*
X15363Y2379D01*
X15303Y2406D01*
X15243Y2439D01*
X15183Y2476D01*
X15123Y2522D01*
X15067Y2573D01*
X15016Y2628D01*
X15012Y2633D01*
X15002Y2647D01*
X14989Y2670D01*
X14965Y2707D01*
X14942Y2748D01*
X14919Y2804D01*
X14887Y2868D01*
X14859Y2942D01*
X14831Y3025D01*
X14804Y3122D01*
X14776Y3229D01*
X14753Y3349D01*
X14730Y3478D01*
X14716Y3617D01*
X14707Y3769D01*
X14702Y3931D01*
Y3935D01*
Y3954D01*
Y3986D01*
Y4023D01*
X14707Y4074D01*
Y4129D01*
X14711Y4190D01*
X14716Y4259D01*
X14730Y4402D01*
X14753Y4555D01*
X14781Y4707D01*
X14799Y4776D01*
X14818Y4846D01*
Y4850D01*
X14822Y4860D01*
X14831Y4878D01*
X14841Y4901D01*
X14850Y4933D01*
X14868Y4966D01*
X14905Y5044D01*
X14952Y5127D01*
X15012Y5215D01*
X15081Y5303D01*
X15164Y5377D01*
X15169D01*
X15173Y5386D01*
X15187Y5395D01*
X15206Y5405D01*
X15229Y5423D01*
X15257Y5437D01*
X15326Y5474D01*
X15409Y5506D01*
X15506Y5539D01*
X15621Y5557D01*
X15746Y5566D01*
X15788D01*
X15839Y5562D01*
D02*
G37*
G36*
X29345Y30324D02*
X29359Y30320D01*
X29381Y30317D01*
X29410Y30309D01*
X29439Y30302D01*
X29512Y30277D01*
X29589Y30244D01*
X29672Y30197D01*
X29752Y30138D01*
X29789Y30106D01*
X29825Y30069D01*
X29829Y30066D01*
X29833Y30058D01*
X29840Y30047D01*
X29851Y30033D01*
X29865Y30015D01*
X29880Y29989D01*
X29894Y29960D01*
X29913Y29931D01*
X29945Y29858D01*
X29971Y29771D01*
X29993Y29676D01*
X29996Y29621D01*
X30000Y29567D01*
Y29531D01*
X29996Y29505D01*
X29993Y29472D01*
X29985Y29436D01*
X29978Y29396D01*
X29971Y29352D01*
X29942Y29254D01*
X29920Y29206D01*
X29898Y29156D01*
X29869Y29105D01*
X29836Y29057D01*
X29800Y29010D01*
X29756Y28966D01*
X29752Y28963D01*
X29745Y28955D01*
X29731Y28944D01*
X29712Y28930D01*
X29687Y28915D01*
X29654Y28894D01*
X29618Y28875D01*
X29578Y28853D01*
X29530Y28832D01*
X29476Y28813D01*
X29421Y28792D01*
X29356Y28777D01*
X29290Y28762D01*
X29214Y28752D01*
X29137Y28744D01*
X29054Y28741D01*
X29050D01*
X29039D01*
X29024D01*
X29003D01*
X28977Y28744D01*
X28948D01*
X28915Y28748D01*
X28879Y28752D01*
X28799Y28762D01*
X28711Y28781D01*
X28624Y28802D01*
X28537Y28835D01*
X28533D01*
X28526Y28839D01*
X28515Y28846D01*
X28500Y28853D01*
X28460Y28875D01*
X28413Y28908D01*
X28358Y28952D01*
X28304Y29003D01*
X28249Y29065D01*
X28205Y29134D01*
Y29137D01*
X28202Y29145D01*
X28195Y29156D01*
X28187Y29170D01*
X28180Y29188D01*
X28169Y29210D01*
X28147Y29265D01*
X28129Y29327D01*
X28111Y29403D01*
X28096Y29483D01*
X28093Y29570D01*
Y29600D01*
X28096Y29621D01*
Y29643D01*
X28100Y29672D01*
X28111Y29742D01*
X28129Y29818D01*
X28158Y29898D01*
X28195Y29978D01*
X28245Y30055D01*
Y30058D01*
X28253Y30062D01*
X28275Y30084D01*
X28307Y30117D01*
X28355Y30157D01*
X28413Y30197D01*
X28486Y30237D01*
X28569Y30273D01*
X28668Y30299D01*
X28715Y29996D01*
X28711D01*
X28708Y29993D01*
X28686Y29989D01*
X28653Y29978D01*
X28613Y29960D01*
X28569Y29942D01*
X28522Y29913D01*
X28479Y29880D01*
X28442Y29844D01*
X28438Y29840D01*
X28427Y29825D01*
X28413Y29800D01*
X28395Y29771D01*
X28377Y29731D01*
X28362Y29687D01*
X28351Y29636D01*
X28347Y29581D01*
Y29560D01*
X28351Y29541D01*
X28355Y29501D01*
X28369Y29447D01*
X28387Y29388D01*
X28417Y29323D01*
X28460Y29261D01*
X28486Y29232D01*
X28515Y29203D01*
X28519D01*
X28522Y29196D01*
X28533Y29188D01*
X28548Y29181D01*
X28566Y29170D01*
X28588Y29156D01*
X28613Y29145D01*
X28642Y29130D01*
X28679Y29116D01*
X28719Y29105D01*
X28762Y29090D01*
X28810Y29079D01*
X28861Y29072D01*
X28919Y29065D01*
X28981Y29057D01*
X29046D01*
X29050D01*
X29061D01*
X29083D01*
X29105Y29061D01*
X29137D01*
X29170Y29065D01*
X29250Y29076D01*
X29337Y29090D01*
X29428Y29116D01*
X29509Y29148D01*
X29549Y29170D01*
X29581Y29196D01*
X29589Y29203D01*
X29607Y29221D01*
X29632Y29254D01*
X29662Y29294D01*
X29694Y29348D01*
X29720Y29410D01*
X29738Y29483D01*
X29742Y29523D01*
X29745Y29563D01*
Y29570D01*
X29742Y29592D01*
X29738Y29629D01*
X29731Y29669D01*
X29720Y29716D01*
X29698Y29767D01*
X29672Y29818D01*
X29636Y29865D01*
X29632Y29873D01*
X29614Y29884D01*
X29589Y29905D01*
X29549Y29931D01*
X29501Y29956D01*
X29443Y29985D01*
X29370Y30007D01*
X29290Y30022D01*
X29330Y30328D01*
X29334D01*
X29345Y30324D01*
D02*
G37*
G36*
Y28562D02*
X29359Y28559D01*
X29381Y28555D01*
X29410Y28548D01*
X29439Y28540D01*
X29512Y28515D01*
X29589Y28482D01*
X29672Y28435D01*
X29752Y28377D01*
X29789Y28344D01*
X29825Y28307D01*
X29829Y28304D01*
X29833Y28297D01*
X29840Y28286D01*
X29851Y28271D01*
X29865Y28253D01*
X29880Y28227D01*
X29894Y28198D01*
X29913Y28169D01*
X29945Y28096D01*
X29971Y28009D01*
X29993Y27914D01*
X29996Y27860D01*
X30000Y27805D01*
Y27769D01*
X29996Y27743D01*
X29993Y27711D01*
X29985Y27674D01*
X29978Y27634D01*
X29971Y27590D01*
X29942Y27492D01*
X29920Y27445D01*
X29898Y27394D01*
X29869Y27343D01*
X29836Y27296D01*
X29800Y27248D01*
X29756Y27204D01*
X29752Y27201D01*
X29745Y27194D01*
X29731Y27183D01*
X29712Y27168D01*
X29687Y27154D01*
X29654Y27132D01*
X29618Y27114D01*
X29578Y27092D01*
X29530Y27070D01*
X29476Y27052D01*
X29421Y27030D01*
X29356Y27015D01*
X29290Y27001D01*
X29214Y26990D01*
X29137Y26983D01*
X29054Y26979D01*
X29050D01*
X29039D01*
X29024D01*
X29003D01*
X28977Y26983D01*
X28948D01*
X28915Y26986D01*
X28879Y26990D01*
X28799Y27001D01*
X28711Y27019D01*
X28624Y27041D01*
X28537Y27073D01*
X28533D01*
X28526Y27077D01*
X28515Y27084D01*
X28500Y27092D01*
X28460Y27114D01*
X28413Y27146D01*
X28358Y27190D01*
X28304Y27241D01*
X28249Y27303D01*
X28205Y27372D01*
Y27376D01*
X28202Y27383D01*
X28195Y27394D01*
X28187Y27408D01*
X28180Y27427D01*
X28169Y27448D01*
X28147Y27503D01*
X28129Y27565D01*
X28111Y27641D01*
X28096Y27721D01*
X28093Y27809D01*
Y27838D01*
X28096Y27860D01*
Y27882D01*
X28100Y27911D01*
X28111Y27980D01*
X28129Y28056D01*
X28158Y28136D01*
X28195Y28216D01*
X28245Y28293D01*
Y28297D01*
X28253Y28300D01*
X28275Y28322D01*
X28307Y28355D01*
X28355Y28395D01*
X28413Y28435D01*
X28486Y28475D01*
X28569Y28511D01*
X28668Y28537D01*
X28715Y28235D01*
X28711D01*
X28708Y28231D01*
X28686Y28227D01*
X28653Y28216D01*
X28613Y28198D01*
X28569Y28180D01*
X28522Y28151D01*
X28479Y28118D01*
X28442Y28082D01*
X28438Y28078D01*
X28427Y28064D01*
X28413Y28038D01*
X28395Y28009D01*
X28377Y27969D01*
X28362Y27925D01*
X28351Y27874D01*
X28347Y27820D01*
Y27798D01*
X28351Y27780D01*
X28355Y27740D01*
X28369Y27685D01*
X28387Y27627D01*
X28417Y27561D01*
X28460Y27499D01*
X28486Y27470D01*
X28515Y27441D01*
X28519D01*
X28522Y27434D01*
X28533Y27427D01*
X28548Y27419D01*
X28566Y27408D01*
X28588Y27394D01*
X28613Y27383D01*
X28642Y27368D01*
X28679Y27354D01*
X28719Y27343D01*
X28762Y27328D01*
X28810Y27317D01*
X28861Y27310D01*
X28919Y27303D01*
X28981Y27296D01*
X29046D01*
X29050D01*
X29061D01*
X29083D01*
X29105Y27299D01*
X29137D01*
X29170Y27303D01*
X29250Y27314D01*
X29337Y27328D01*
X29428Y27354D01*
X29509Y27387D01*
X29549Y27408D01*
X29581Y27434D01*
X29589Y27441D01*
X29607Y27459D01*
X29632Y27492D01*
X29662Y27532D01*
X29694Y27587D01*
X29720Y27649D01*
X29738Y27721D01*
X29742Y27761D01*
X29745Y27801D01*
Y27809D01*
X29742Y27831D01*
X29738Y27867D01*
X29731Y27907D01*
X29720Y27954D01*
X29698Y28005D01*
X29672Y28056D01*
X29636Y28104D01*
X29632Y28111D01*
X29614Y28122D01*
X29589Y28144D01*
X29549Y28169D01*
X29501Y28195D01*
X29443Y28224D01*
X29370Y28246D01*
X29290Y28260D01*
X29330Y28566D01*
X29334D01*
X29345Y28562D01*
D02*
G37*
G36*
X29960Y25821D02*
Y25475D01*
X27441Y24500D01*
Y24864D01*
X29272Y25519D01*
X29276D01*
X29283Y25523D01*
X29294Y25526D01*
X29308Y25534D01*
X29330Y25537D01*
X29352Y25545D01*
X29407Y25563D01*
X29469Y25585D01*
X29538Y25607D01*
X29683Y25650D01*
X29680D01*
X29672Y25654D01*
X29662Y25657D01*
X29647Y25661D01*
X29607Y25672D01*
X29552Y25690D01*
X29490Y25708D01*
X29421Y25730D01*
X29348Y25756D01*
X29272Y25785D01*
X27441Y26469D01*
Y26808D01*
X29960Y25821D01*
D02*
G37*
G36*
X20956Y30701D02*
X20192Y30406D01*
Y29351D01*
X20956Y29078D01*
Y28725D01*
X18437Y29686D01*
Y30050D01*
X20956Y31080D01*
Y30701D01*
D02*
G37*
G36*
X19759Y28539D02*
X19788D01*
X19857Y28535D01*
X19937Y28525D01*
X20021Y28514D01*
X20108Y28495D01*
X20196Y28474D01*
X20199D01*
X20207Y28470D01*
X20217Y28466D01*
X20232Y28463D01*
X20272Y28448D01*
X20323Y28426D01*
X20381Y28404D01*
X20439Y28375D01*
X20501Y28339D01*
X20560Y28302D01*
X20567Y28299D01*
X20585Y28284D01*
X20610Y28262D01*
X20643Y28233D01*
X20680Y28201D01*
X20716Y28161D01*
X20756Y28120D01*
X20789Y28073D01*
X20793Y28066D01*
X20803Y28051D01*
X20818Y28026D01*
X20836Y27989D01*
X20858Y27946D01*
X20876Y27895D01*
X20898Y27837D01*
X20916Y27771D01*
Y27764D01*
X20920Y27753D01*
X20924Y27742D01*
X20927Y27705D01*
X20934Y27655D01*
X20942Y27596D01*
X20949Y27527D01*
X20953Y27451D01*
X20956Y27367D01*
Y26461D01*
X18437D01*
Y27429D01*
X18441Y27494D01*
X18445Y27567D01*
X18452Y27640D01*
X18463Y27713D01*
X18474Y27775D01*
Y27778D01*
X18477Y27786D01*
Y27797D01*
X18485Y27811D01*
X18496Y27851D01*
X18514Y27902D01*
X18539Y27960D01*
X18572Y28022D01*
X18609Y28084D01*
X18656Y28142D01*
X18659Y28146D01*
X18663Y28150D01*
X18674Y28161D01*
X18685Y28175D01*
X18721Y28212D01*
X18772Y28255D01*
X18834Y28302D01*
X18907Y28353D01*
X18991Y28401D01*
X19085Y28441D01*
X19089D01*
X19096Y28444D01*
X19111Y28452D01*
X19133Y28455D01*
X19158Y28466D01*
X19187Y28474D01*
X19220Y28481D01*
X19260Y28492D01*
X19300Y28503D01*
X19347Y28510D01*
X19449Y28528D01*
X19562Y28539D01*
X19686Y28543D01*
X19690D01*
X19697D01*
X19715D01*
X19733D01*
X19759Y28539D01*
D02*
G37*
G36*
X20323Y25995D02*
X20374Y25987D01*
X20432Y25973D01*
X20494Y25955D01*
X20560Y25926D01*
X20629Y25885D01*
X20632D01*
X20636Y25882D01*
X20658Y25864D01*
X20691Y25838D01*
X20727Y25802D01*
X20771Y25754D01*
X20818Y25696D01*
X20862Y25631D01*
X20902Y25554D01*
Y25551D01*
X20905Y25543D01*
X20909Y25532D01*
X20916Y25518D01*
X20924Y25496D01*
X20934Y25471D01*
X20949Y25412D01*
X20967Y25343D01*
X20985Y25259D01*
X20996Y25168D01*
X21000Y25070D01*
Y25012D01*
X20996Y24983D01*
Y24950D01*
X20993Y24914D01*
X20989Y24870D01*
X20975Y24779D01*
X20960Y24684D01*
X20934Y24590D01*
X20902Y24499D01*
Y24495D01*
X20898Y24488D01*
X20891Y24477D01*
X20884Y24462D01*
X20862Y24419D01*
X20829Y24368D01*
X20785Y24309D01*
X20734Y24248D01*
X20672Y24189D01*
X20603Y24135D01*
X20600D01*
X20592Y24127D01*
X20581Y24124D01*
X20567Y24113D01*
X20549Y24106D01*
X20527Y24095D01*
X20472Y24069D01*
X20403Y24044D01*
X20327Y24022D01*
X20239Y24007D01*
X20148Y24000D01*
X20119Y24313D01*
X20123D01*
X20126D01*
X20137Y24317D01*
X20152D01*
X20185Y24324D01*
X20232Y24335D01*
X20279Y24349D01*
X20334Y24364D01*
X20385Y24389D01*
X20432Y24415D01*
X20436Y24419D01*
X20450Y24430D01*
X20476Y24448D01*
X20501Y24477D01*
X20534Y24513D01*
X20567Y24553D01*
X20600Y24608D01*
X20629Y24666D01*
Y24670D01*
X20632Y24673D01*
X20636Y24684D01*
X20640Y24695D01*
X20651Y24732D01*
X20665Y24779D01*
X20680Y24837D01*
X20691Y24903D01*
X20698Y24975D01*
X20701Y25056D01*
Y25088D01*
X20698Y25125D01*
X20694Y25168D01*
X20687Y25219D01*
X20680Y25278D01*
X20665Y25336D01*
X20647Y25390D01*
X20643Y25398D01*
X20636Y25416D01*
X20621Y25441D01*
X20607Y25474D01*
X20581Y25507D01*
X20556Y25543D01*
X20527Y25580D01*
X20490Y25609D01*
X20487Y25613D01*
X20472Y25620D01*
X20454Y25631D01*
X20425Y25645D01*
X20396Y25660D01*
X20359Y25671D01*
X20319Y25678D01*
X20276Y25682D01*
X20272D01*
X20254D01*
X20232Y25678D01*
X20203Y25674D01*
X20174Y25664D01*
X20137Y25653D01*
X20101Y25634D01*
X20068Y25609D01*
X20064Y25605D01*
X20054Y25594D01*
X20039Y25580D01*
X20017Y25554D01*
X19995Y25525D01*
X19970Y25485D01*
X19944Y25438D01*
X19923Y25383D01*
X19919Y25380D01*
X19915Y25361D01*
X19904Y25332D01*
X19901Y25314D01*
X19893Y25289D01*
X19883Y25263D01*
X19875Y25230D01*
X19864Y25194D01*
X19853Y25150D01*
X19842Y25107D01*
X19828Y25056D01*
X19813Y24997D01*
X19799Y24936D01*
Y24932D01*
X19795Y24921D01*
X19792Y24903D01*
X19784Y24881D01*
X19777Y24852D01*
X19770Y24819D01*
X19748Y24746D01*
X19722Y24666D01*
X19697Y24582D01*
X19671Y24510D01*
X19657Y24477D01*
X19642Y24448D01*
Y24444D01*
X19639Y24440D01*
X19624Y24419D01*
X19606Y24386D01*
X19577Y24349D01*
X19544Y24306D01*
X19504Y24262D01*
X19457Y24218D01*
X19406Y24182D01*
X19398Y24178D01*
X19380Y24167D01*
X19351Y24153D01*
X19315Y24138D01*
X19267Y24124D01*
X19213Y24109D01*
X19154Y24098D01*
X19093Y24095D01*
X19089D01*
X19085D01*
X19074D01*
X19060D01*
X19024Y24102D01*
X18976Y24109D01*
X18922Y24120D01*
X18860Y24138D01*
X18798Y24164D01*
X18736Y24200D01*
X18732D01*
X18729Y24204D01*
X18707Y24222D01*
X18678Y24248D01*
X18641Y24280D01*
X18601Y24324D01*
X18558Y24379D01*
X18518Y24444D01*
X18481Y24517D01*
Y24521D01*
X18477Y24528D01*
X18474Y24539D01*
X18467Y24553D01*
X18459Y24572D01*
X18452Y24597D01*
X18437Y24652D01*
X18423Y24721D01*
X18408Y24801D01*
X18397Y24884D01*
X18394Y24979D01*
Y25027D01*
X18397Y25052D01*
Y25077D01*
X18405Y25147D01*
X18416Y25223D01*
X18434Y25303D01*
X18456Y25390D01*
X18485Y25471D01*
Y25474D01*
X18488Y25482D01*
X18496Y25492D01*
X18503Y25507D01*
X18521Y25543D01*
X18554Y25591D01*
X18590Y25645D01*
X18638Y25700D01*
X18692Y25751D01*
X18754Y25798D01*
X18758D01*
X18761Y25802D01*
X18772Y25809D01*
X18783Y25816D01*
X18820Y25835D01*
X18867Y25856D01*
X18925Y25882D01*
X18994Y25900D01*
X19067Y25918D01*
X19147Y25926D01*
X19173Y25605D01*
X19169D01*
X19162D01*
X19151Y25602D01*
X19133Y25598D01*
X19093Y25587D01*
X19038Y25572D01*
X18980Y25551D01*
X18922Y25518D01*
X18867Y25478D01*
X18816Y25427D01*
X18812Y25420D01*
X18798Y25401D01*
X18776Y25365D01*
X18754Y25318D01*
X18732Y25256D01*
X18710Y25183D01*
X18696Y25092D01*
X18692Y24990D01*
Y24939D01*
X18696Y24917D01*
X18699Y24888D01*
X18707Y24823D01*
X18721Y24750D01*
X18740Y24677D01*
X18769Y24608D01*
X18787Y24579D01*
X18805Y24550D01*
X18809Y24542D01*
X18823Y24528D01*
X18849Y24506D01*
X18878Y24484D01*
X18918Y24459D01*
X18962Y24437D01*
X19013Y24422D01*
X19071Y24415D01*
X19078D01*
X19093D01*
X19118Y24419D01*
X19147Y24426D01*
X19184Y24437D01*
X19220Y24455D01*
X19256Y24477D01*
X19293Y24510D01*
X19297Y24513D01*
X19307Y24531D01*
X19318Y24546D01*
X19326Y24561D01*
X19336Y24582D01*
X19351Y24608D01*
X19362Y24641D01*
X19377Y24677D01*
X19391Y24717D01*
X19409Y24764D01*
X19424Y24815D01*
X19442Y24874D01*
X19457Y24939D01*
X19475Y25012D01*
Y25016D01*
X19478Y25030D01*
X19482Y25052D01*
X19489Y25077D01*
X19497Y25110D01*
X19508Y25150D01*
X19519Y25190D01*
X19529Y25234D01*
X19555Y25329D01*
X19580Y25420D01*
X19595Y25463D01*
X19610Y25503D01*
X19620Y25540D01*
X19635Y25569D01*
Y25572D01*
X19639Y25580D01*
X19646Y25591D01*
X19653Y25605D01*
X19675Y25645D01*
X19704Y25693D01*
X19744Y25747D01*
X19788Y25802D01*
X19839Y25853D01*
X19893Y25896D01*
X19901Y25900D01*
X19919Y25915D01*
X19952Y25929D01*
X19995Y25951D01*
X20046Y25969D01*
X20108Y25987D01*
X20177Y25998D01*
X20250Y26002D01*
X20254D01*
X20257D01*
X20268D01*
X20283D01*
X20323Y25995D01*
D02*
G37*
G36*
X39259Y30944D02*
X39288D01*
X39357Y30940D01*
X39437Y30929D01*
X39521Y30918D01*
X39608Y30900D01*
X39696Y30878D01*
X39699D01*
X39707Y30875D01*
X39717Y30871D01*
X39732Y30867D01*
X39772Y30853D01*
X39823Y30831D01*
X39881Y30809D01*
X39939Y30780D01*
X40001Y30744D01*
X40060Y30707D01*
X40067Y30704D01*
X40085Y30689D01*
X40110Y30667D01*
X40143Y30638D01*
X40180Y30605D01*
X40216Y30565D01*
X40256Y30525D01*
X40289Y30478D01*
X40293Y30471D01*
X40303Y30456D01*
X40318Y30431D01*
X40336Y30394D01*
X40358Y30351D01*
X40376Y30299D01*
X40398Y30241D01*
X40416Y30176D01*
Y30169D01*
X40420Y30158D01*
X40424Y30147D01*
X40427Y30110D01*
X40435Y30059D01*
X40442Y30001D01*
X40449Y29932D01*
X40453Y29855D01*
X40456Y29772D01*
Y28865D01*
X37937D01*
Y29834D01*
X37941Y29899D01*
X37945Y29972D01*
X37952Y30045D01*
X37963Y30117D01*
X37974Y30179D01*
Y30183D01*
X37977Y30190D01*
Y30201D01*
X37985Y30216D01*
X37996Y30256D01*
X38014Y30307D01*
X38039Y30365D01*
X38072Y30427D01*
X38109Y30489D01*
X38156Y30547D01*
X38159Y30551D01*
X38163Y30554D01*
X38174Y30565D01*
X38185Y30580D01*
X38221Y30616D01*
X38272Y30660D01*
X38334Y30707D01*
X38407Y30758D01*
X38491Y30806D01*
X38585Y30845D01*
X38589D01*
X38596Y30849D01*
X38611Y30856D01*
X38633Y30860D01*
X38658Y30871D01*
X38687Y30878D01*
X38720Y30886D01*
X38760Y30896D01*
X38800Y30907D01*
X38847Y30915D01*
X38949Y30933D01*
X39062Y30944D01*
X39186Y30947D01*
X39190D01*
X39197D01*
X39215D01*
X39233D01*
X39259Y30944D01*
D02*
G37*
G36*
X40456Y27959D02*
X38480Y26641D01*
X40456D01*
Y26321D01*
X37937D01*
Y26663D01*
X39918Y27984D01*
X37937D01*
Y28305D01*
X40456D01*
Y27959D01*
D02*
G37*
G36*
X40110Y25830D02*
X40114Y25822D01*
X40125Y25808D01*
X40140Y25790D01*
X40154Y25768D01*
X40172Y25742D01*
X40194Y25710D01*
X40216Y25677D01*
X40263Y25600D01*
X40314Y25513D01*
X40362Y25422D01*
X40402Y25324D01*
Y25320D01*
X40405Y25313D01*
X40409Y25298D01*
X40416Y25280D01*
X40424Y25254D01*
X40435Y25225D01*
X40442Y25193D01*
X40449Y25160D01*
X40467Y25080D01*
X40485Y24989D01*
X40496Y24891D01*
X40500Y24789D01*
Y24752D01*
X40496Y24727D01*
Y24694D01*
X40493Y24654D01*
X40485Y24610D01*
X40482Y24563D01*
X40460Y24457D01*
X40435Y24344D01*
X40394Y24228D01*
X40373Y24170D01*
X40343Y24112D01*
X40340Y24108D01*
X40336Y24097D01*
X40325Y24082D01*
X40314Y24061D01*
X40296Y24035D01*
X40278Y24010D01*
X40227Y23940D01*
X40161Y23868D01*
X40081Y23791D01*
X39990Y23718D01*
X39885Y23653D01*
X39881D01*
X39870Y23646D01*
X39856Y23638D01*
X39830Y23627D01*
X39805Y23617D01*
X39768Y23606D01*
X39732Y23591D01*
X39688Y23576D01*
X39641Y23562D01*
X39586Y23547D01*
X39532Y23536D01*
X39474Y23526D01*
X39346Y23507D01*
X39211Y23500D01*
X39208D01*
X39193D01*
X39175D01*
X39150Y23504D01*
X39117D01*
X39077Y23507D01*
X39037Y23515D01*
X38989Y23518D01*
X38938Y23529D01*
X38884Y23536D01*
X38767Y23565D01*
X38647Y23602D01*
X38527Y23653D01*
X38524Y23656D01*
X38513Y23660D01*
X38498Y23667D01*
X38476Y23682D01*
X38447Y23697D01*
X38418Y23715D01*
X38349Y23766D01*
X38269Y23828D01*
X38192Y23904D01*
X38116Y23991D01*
X38083Y24042D01*
X38050Y24093D01*
X38047Y24097D01*
X38043Y24108D01*
X38036Y24122D01*
X38025Y24144D01*
X38014Y24173D01*
X37999Y24206D01*
X37985Y24243D01*
X37970Y24286D01*
X37956Y24334D01*
X37945Y24385D01*
X37930Y24439D01*
X37919Y24497D01*
X37901Y24625D01*
X37894Y24690D01*
Y24807D01*
X37897Y24829D01*
Y24858D01*
X37905Y24927D01*
X37916Y25003D01*
X37934Y25083D01*
X37956Y25171D01*
X37985Y25254D01*
Y25258D01*
X37988Y25265D01*
X37992Y25276D01*
X37999Y25291D01*
X38021Y25331D01*
X38047Y25382D01*
X38083Y25436D01*
X38127Y25495D01*
X38174Y25549D01*
X38232Y25600D01*
X38240Y25608D01*
X38261Y25622D01*
X38294Y25644D01*
X38342Y25673D01*
X38400Y25702D01*
X38473Y25735D01*
X38553Y25768D01*
X38644Y25793D01*
X38724Y25491D01*
X38720D01*
X38716Y25487D01*
X38706Y25484D01*
X38691Y25480D01*
X38658Y25469D01*
X38614Y25455D01*
X38563Y25433D01*
X38516Y25407D01*
X38465Y25382D01*
X38422Y25349D01*
X38418Y25346D01*
X38403Y25335D01*
X38385Y25313D01*
X38360Y25287D01*
X38331Y25254D01*
X38301Y25211D01*
X38272Y25163D01*
X38247Y25109D01*
X38243Y25102D01*
X38236Y25083D01*
X38225Y25051D01*
X38210Y25007D01*
X38199Y24956D01*
X38189Y24898D01*
X38181Y24832D01*
X38178Y24763D01*
Y24723D01*
X38181Y24705D01*
Y24683D01*
X38185Y24628D01*
X38196Y24566D01*
X38207Y24497D01*
X38225Y24432D01*
X38250Y24366D01*
X38254Y24359D01*
X38261Y24337D01*
X38280Y24308D01*
X38298Y24272D01*
X38327Y24228D01*
X38356Y24181D01*
X38392Y24137D01*
X38432Y24097D01*
X38436Y24093D01*
X38451Y24079D01*
X38476Y24061D01*
X38505Y24039D01*
X38542Y24013D01*
X38585Y23988D01*
X38633Y23962D01*
X38684Y23937D01*
X38687D01*
X38695Y23933D01*
X38706Y23930D01*
X38724Y23922D01*
X38745Y23915D01*
X38771Y23908D01*
X38800Y23897D01*
X38833Y23889D01*
X38909Y23871D01*
X38997Y23857D01*
X39088Y23846D01*
X39190Y23842D01*
X39193D01*
X39204D01*
X39222D01*
X39244Y23846D01*
X39273D01*
X39310Y23849D01*
X39346Y23853D01*
X39386Y23857D01*
X39477Y23871D01*
X39572Y23889D01*
X39666Y23919D01*
X39757Y23955D01*
X39761D01*
X39768Y23962D01*
X39779Y23966D01*
X39794Y23977D01*
X39834Y24002D01*
X39885Y24042D01*
X39939Y24090D01*
X39994Y24148D01*
X40045Y24217D01*
X40092Y24294D01*
Y24297D01*
X40096Y24304D01*
X40103Y24315D01*
X40110Y24334D01*
X40118Y24352D01*
X40125Y24377D01*
X40147Y24435D01*
X40165Y24508D01*
X40183Y24588D01*
X40198Y24676D01*
X40202Y24767D01*
Y24803D01*
X40198Y24825D01*
Y24847D01*
X40191Y24901D01*
X40183Y24967D01*
X40169Y25036D01*
X40147Y25113D01*
X40121Y25189D01*
Y25193D01*
X40118Y25200D01*
X40114Y25207D01*
X40107Y25222D01*
X40089Y25262D01*
X40067Y25305D01*
X40041Y25356D01*
X40012Y25411D01*
X39979Y25462D01*
X39943Y25506D01*
X39470D01*
Y24763D01*
X39171D01*
Y25833D01*
X40107D01*
X40110Y25830D01*
D02*
G37*
G36*
X8124Y64381D02*
X8168D01*
X8274Y64370D01*
X8390Y64354D01*
X8513Y64326D01*
X8646Y64293D01*
X8773Y64248D01*
X8779D01*
X8790Y64243D01*
X8807Y64237D01*
X8829Y64226D01*
X8890Y64193D01*
X8968Y64154D01*
X9051Y64098D01*
X9140Y64032D01*
X9223Y63960D01*
X9301Y63871D01*
X9312Y63860D01*
X9334Y63826D01*
X9367Y63776D01*
X9412Y63704D01*
X9456Y63615D01*
X9506Y63504D01*
X9556Y63382D01*
X9595Y63244D01*
X9134Y63121D01*
Y63127D01*
X9129Y63133D01*
X9123Y63149D01*
X9118Y63171D01*
X9101Y63221D01*
X9079Y63288D01*
X9045Y63366D01*
X9007Y63438D01*
X8968Y63516D01*
X8918Y63582D01*
X8912Y63588D01*
X8896Y63610D01*
X8862Y63638D01*
X8823Y63677D01*
X8773Y63721D01*
X8707Y63765D01*
X8635Y63810D01*
X8551Y63849D01*
X8540Y63854D01*
X8513Y63865D01*
X8463Y63882D01*
X8396Y63904D01*
X8318Y63921D01*
X8230Y63937D01*
X8130Y63949D01*
X8024Y63954D01*
X7963D01*
X7935Y63949D01*
X7902D01*
X7819Y63943D01*
X7724Y63926D01*
X7619Y63910D01*
X7519Y63882D01*
X7419Y63843D01*
X7408Y63837D01*
X7375Y63826D01*
X7331Y63799D01*
X7275Y63771D01*
X7208Y63726D01*
X7136Y63682D01*
X7070Y63626D01*
X7009Y63565D01*
X7003Y63560D01*
X6981Y63538D01*
X6953Y63499D01*
X6920Y63455D01*
X6881Y63399D01*
X6842Y63332D01*
X6803Y63260D01*
X6764Y63183D01*
Y63177D01*
X6759Y63166D01*
X6753Y63149D01*
X6742Y63121D01*
X6731Y63088D01*
X6720Y63049D01*
X6703Y63005D01*
X6692Y62955D01*
X6664Y62839D01*
X6642Y62705D01*
X6626Y62567D01*
X6620Y62411D01*
Y62406D01*
Y62389D01*
Y62361D01*
X6626Y62328D01*
Y62283D01*
X6631Y62228D01*
X6637Y62173D01*
X6642Y62111D01*
X6664Y61973D01*
X6692Y61828D01*
X6737Y61684D01*
X6792Y61545D01*
Y61540D01*
X6803Y61529D01*
X6809Y61512D01*
X6825Y61490D01*
X6864Y61429D01*
X6925Y61351D01*
X6998Y61268D01*
X7086Y61185D01*
X7192Y61107D01*
X7308Y61035D01*
X7314D01*
X7325Y61029D01*
X7342Y61018D01*
X7369Y61007D01*
X7397Y60996D01*
X7436Y60985D01*
X7525Y60951D01*
X7636Y60924D01*
X7758Y60896D01*
X7891Y60874D01*
X8030Y60868D01*
X8085D01*
X8119Y60874D01*
X8152D01*
X8235Y60885D01*
X8335Y60896D01*
X8440Y60918D01*
X8557Y60951D01*
X8674Y60990D01*
X8679D01*
X8690Y60996D01*
X8701Y61001D01*
X8724Y61013D01*
X8785Y61040D01*
X8851Y61074D01*
X8929Y61112D01*
X9012Y61157D01*
X9090Y61207D01*
X9156Y61262D01*
Y61984D01*
X8024D01*
Y62439D01*
X9656D01*
Y61013D01*
X9650Y61007D01*
X9639Y61001D01*
X9617Y60985D01*
X9589Y60962D01*
X9556Y60940D01*
X9517Y60913D01*
X9467Y60879D01*
X9417Y60846D01*
X9301Y60774D01*
X9167Y60696D01*
X9029Y60624D01*
X8879Y60563D01*
X8873D01*
X8862Y60557D01*
X8840Y60552D01*
X8812Y60541D01*
X8773Y60530D01*
X8729Y60513D01*
X8679Y60502D01*
X8629Y60491D01*
X8507Y60463D01*
X8368Y60435D01*
X8219Y60419D01*
X8063Y60413D01*
X8008D01*
X7969Y60419D01*
X7919D01*
X7858Y60424D01*
X7791Y60435D01*
X7719Y60441D01*
X7558Y60474D01*
X7386Y60513D01*
X7208Y60574D01*
X7120Y60607D01*
X7031Y60652D01*
X7025Y60657D01*
X7009Y60663D01*
X6986Y60680D01*
X6953Y60696D01*
X6914Y60724D01*
X6875Y60752D01*
X6770Y60829D01*
X6659Y60929D01*
X6542Y61051D01*
X6431Y61190D01*
X6331Y61351D01*
Y61357D01*
X6320Y61373D01*
X6309Y61396D01*
X6293Y61434D01*
X6276Y61473D01*
X6259Y61529D01*
X6237Y61584D01*
X6215Y61651D01*
X6193Y61723D01*
X6171Y61806D01*
X6154Y61889D01*
X6137Y61978D01*
X6109Y62173D01*
X6098Y62378D01*
Y62383D01*
Y62406D01*
Y62433D01*
X6104Y62472D01*
Y62522D01*
X6109Y62583D01*
X6121Y62644D01*
X6126Y62716D01*
X6143Y62794D01*
X6154Y62877D01*
X6198Y63055D01*
X6254Y63238D01*
X6331Y63421D01*
X6337Y63427D01*
X6343Y63443D01*
X6354Y63466D01*
X6376Y63499D01*
X6398Y63543D01*
X6426Y63588D01*
X6504Y63693D01*
X6598Y63815D01*
X6714Y63932D01*
X6848Y64048D01*
X6925Y64098D01*
X7003Y64148D01*
X7009Y64154D01*
X7025Y64159D01*
X7047Y64170D01*
X7081Y64187D01*
X7125Y64204D01*
X7175Y64226D01*
X7231Y64248D01*
X7297Y64270D01*
X7369Y64293D01*
X7447Y64309D01*
X7530Y64331D01*
X7619Y64348D01*
X7813Y64376D01*
X7913Y64387D01*
X8091D01*
X8124Y64381D01*
D02*
G37*
G36*
X36462Y60480D02*
X36024D01*
Y60829D01*
X36018Y60824D01*
X36013Y60813D01*
X35996Y60790D01*
X35974Y60763D01*
X35946Y60735D01*
X35913Y60702D01*
X35874Y60663D01*
X35824Y60624D01*
X35774Y60585D01*
X35719Y60546D01*
X35652Y60513D01*
X35580Y60485D01*
X35508Y60457D01*
X35425Y60435D01*
X35336Y60424D01*
X35241Y60419D01*
X35208D01*
X35186Y60424D01*
X35119Y60430D01*
X35042Y60441D01*
X34947Y60463D01*
X34842Y60496D01*
X34736Y60541D01*
X34631Y60602D01*
X34625D01*
X34620Y60613D01*
X34587Y60635D01*
X34537Y60680D01*
X34475Y60735D01*
X34403Y60807D01*
X34331Y60896D01*
X34259Y60996D01*
X34198Y61112D01*
Y61118D01*
X34192Y61129D01*
X34187Y61146D01*
X34176Y61168D01*
X34165Y61201D01*
X34148Y61240D01*
X34137Y61279D01*
X34126Y61329D01*
X34098Y61440D01*
X34070Y61567D01*
X34054Y61712D01*
X34048Y61867D01*
Y61873D01*
Y61884D01*
Y61906D01*
Y61939D01*
X34054Y61973D01*
Y62017D01*
X34065Y62117D01*
X34082Y62234D01*
X34109Y62361D01*
X34143Y62494D01*
X34187Y62622D01*
Y62628D01*
X34192Y62639D01*
X34204Y62655D01*
X34215Y62678D01*
X34248Y62739D01*
X34292Y62816D01*
X34348Y62900D01*
X34420Y62983D01*
X34503Y63072D01*
X34603Y63144D01*
X34609D01*
X34614Y63149D01*
X34631Y63160D01*
X34653Y63171D01*
X34709Y63199D01*
X34786Y63238D01*
X34875Y63271D01*
X34981Y63299D01*
X35097Y63321D01*
X35219Y63327D01*
X35264D01*
X35308Y63321D01*
X35369Y63316D01*
X35441Y63299D01*
X35519Y63282D01*
X35597Y63255D01*
X35669Y63216D01*
X35680Y63210D01*
X35702Y63199D01*
X35735Y63171D01*
X35780Y63144D01*
X35835Y63105D01*
X35885Y63055D01*
X35941Y63005D01*
X35991Y62944D01*
Y64320D01*
X36462D01*
Y60480D01*
D02*
G37*
G36*
X41308Y63321D02*
X41369Y63310D01*
X41441Y63288D01*
X41519Y63260D01*
X41607Y63221D01*
X41702Y63171D01*
X41530Y62739D01*
X41524Y62744D01*
X41502Y62755D01*
X41469Y62772D01*
X41424Y62788D01*
X41374Y62805D01*
X41313Y62822D01*
X41252Y62833D01*
X41191Y62839D01*
X41163D01*
X41135Y62833D01*
X41097Y62827D01*
X41058Y62816D01*
X41008Y62800D01*
X40958Y62777D01*
X40914Y62744D01*
X40908Y62739D01*
X40891Y62727D01*
X40875Y62705D01*
X40847Y62678D01*
X40819Y62639D01*
X40791Y62594D01*
X40764Y62544D01*
X40742Y62483D01*
X40736Y62472D01*
X40730Y62439D01*
X40719Y62389D01*
X40703Y62322D01*
X40686Y62239D01*
X40675Y62145D01*
X40669Y62045D01*
X40664Y61934D01*
Y60480D01*
X40192D01*
Y63266D01*
X40619D01*
Y62844D01*
X40625Y62849D01*
X40647Y62888D01*
X40675Y62938D01*
X40719Y62999D01*
X40764Y63060D01*
X40814Y63127D01*
X40864Y63183D01*
X40914Y63227D01*
X40919Y63232D01*
X40936Y63244D01*
X40969Y63260D01*
X41002Y63277D01*
X41047Y63294D01*
X41102Y63310D01*
X41158Y63321D01*
X41219Y63327D01*
X41258D01*
X41308Y63321D01*
D02*
G37*
G36*
X11454D02*
X11515Y63310D01*
X11587Y63288D01*
X11665Y63260D01*
X11754Y63221D01*
X11848Y63171D01*
X11676Y62739D01*
X11671Y62744D01*
X11648Y62755D01*
X11615Y62772D01*
X11571Y62788D01*
X11521Y62805D01*
X11460Y62822D01*
X11399Y62833D01*
X11338Y62839D01*
X11310D01*
X11282Y62833D01*
X11243Y62827D01*
X11204Y62816D01*
X11154Y62800D01*
X11105Y62777D01*
X11060Y62744D01*
X11055Y62739D01*
X11038Y62727D01*
X11021Y62705D01*
X10994Y62678D01*
X10966Y62639D01*
X10938Y62594D01*
X10910Y62544D01*
X10888Y62483D01*
X10882Y62472D01*
X10877Y62439D01*
X10866Y62389D01*
X10849Y62322D01*
X10832Y62239D01*
X10821Y62145D01*
X10816Y62045D01*
X10810Y61934D01*
Y60480D01*
X10339D01*
Y63266D01*
X10766D01*
Y62844D01*
X10772Y62849D01*
X10794Y62888D01*
X10821Y62938D01*
X10866Y62999D01*
X10910Y63060D01*
X10960Y63127D01*
X11010Y63183D01*
X11060Y63227D01*
X11066Y63232D01*
X11082Y63244D01*
X11116Y63260D01*
X11149Y63277D01*
X11193Y63294D01*
X11249Y63310D01*
X11304Y63321D01*
X11365Y63327D01*
X11404D01*
X11454Y63321D01*
D02*
G37*
G36*
X19307Y60480D02*
X18858D01*
X17809Y63266D01*
X18308D01*
X18908Y61595D01*
Y61590D01*
X18913Y61584D01*
X18919Y61567D01*
X18924Y61551D01*
X18941Y61495D01*
X18963Y61423D01*
X18991Y61340D01*
X19024Y61246D01*
X19052Y61140D01*
X19085Y61035D01*
X19091Y61046D01*
X19096Y61074D01*
X19113Y61118D01*
X19130Y61185D01*
X19158Y61257D01*
X19185Y61351D01*
X19224Y61451D01*
X19263Y61562D01*
X19879Y63266D01*
X20367D01*
X19307Y60480D01*
D02*
G37*
G36*
X32539Y63321D02*
X32622Y63316D01*
X32716Y63305D01*
X32811Y63288D01*
X32905Y63266D01*
X32994Y63238D01*
X33005Y63232D01*
X33033Y63221D01*
X33071Y63205D01*
X33121Y63183D01*
X33177Y63149D01*
X33232Y63116D01*
X33282Y63072D01*
X33327Y63027D01*
X33332Y63022D01*
X33343Y63005D01*
X33360Y62977D01*
X33382Y62944D01*
X33410Y62894D01*
X33432Y62844D01*
X33454Y62783D01*
X33471Y62711D01*
Y62705D01*
X33476Y62689D01*
X33482Y62655D01*
X33488Y62611D01*
Y62550D01*
X33493Y62478D01*
X33499Y62383D01*
Y62278D01*
Y61645D01*
Y61640D01*
Y61617D01*
Y61584D01*
Y61540D01*
Y61490D01*
Y61429D01*
X33504Y61296D01*
Y61157D01*
X33510Y61018D01*
X33515Y60957D01*
Y60901D01*
X33521Y60852D01*
X33527Y60813D01*
Y60807D01*
X33532Y60785D01*
X33538Y60752D01*
X33554Y60707D01*
X33565Y60657D01*
X33588Y60602D01*
X33615Y60541D01*
X33643Y60480D01*
X33149D01*
X33143Y60485D01*
X33138Y60507D01*
X33127Y60535D01*
X33110Y60580D01*
X33094Y60629D01*
X33083Y60691D01*
X33071Y60757D01*
X33060Y60829D01*
X33055D01*
X33049Y60818D01*
X33016Y60790D01*
X32966Y60752D01*
X32899Y60702D01*
X32816Y60652D01*
X32733Y60596D01*
X32644Y60546D01*
X32550Y60507D01*
X32539Y60502D01*
X32505Y60496D01*
X32455Y60480D01*
X32394Y60463D01*
X32317Y60446D01*
X32228Y60435D01*
X32128Y60424D01*
X32028Y60419D01*
X31984D01*
X31950Y60424D01*
X31911D01*
X31867Y60430D01*
X31767Y60446D01*
X31656Y60474D01*
X31534Y60513D01*
X31423Y60568D01*
X31323Y60641D01*
X31312Y60652D01*
X31284Y60680D01*
X31245Y60729D01*
X31201Y60796D01*
X31157Y60879D01*
X31118Y60974D01*
X31090Y61090D01*
X31084Y61146D01*
X31079Y61212D01*
Y61223D01*
Y61246D01*
X31084Y61285D01*
X31090Y61334D01*
X31101Y61396D01*
X31118Y61457D01*
X31140Y61523D01*
X31168Y61584D01*
X31173Y61590D01*
X31184Y61612D01*
X31207Y61645D01*
X31234Y61684D01*
X31268Y61728D01*
X31312Y61773D01*
X31356Y61817D01*
X31412Y61856D01*
X31418Y61862D01*
X31440Y61873D01*
X31467Y61895D01*
X31512Y61917D01*
X31562Y61939D01*
X31623Y61967D01*
X31684Y61989D01*
X31756Y62011D01*
X31762D01*
X31784Y62017D01*
X31817Y62028D01*
X31861Y62034D01*
X31917Y62045D01*
X31989Y62056D01*
X32072Y62073D01*
X32172Y62084D01*
X32178D01*
X32200Y62089D01*
X32228D01*
X32267Y62095D01*
X32311Y62100D01*
X32366Y62111D01*
X32428Y62117D01*
X32494Y62128D01*
X32627Y62156D01*
X32772Y62184D01*
X32899Y62217D01*
X32960Y62234D01*
X33016Y62250D01*
Y62256D01*
Y62267D01*
X33021Y62300D01*
Y62339D01*
Y62361D01*
Y62372D01*
Y62378D01*
Y62383D01*
Y62417D01*
X33016Y62472D01*
X33005Y62533D01*
X32988Y62600D01*
X32960Y62666D01*
X32927Y62727D01*
X32883Y62777D01*
X32877Y62783D01*
X32849Y62805D01*
X32805Y62827D01*
X32750Y62861D01*
X32672Y62888D01*
X32583Y62916D01*
X32472Y62933D01*
X32344Y62938D01*
X32289D01*
X32233Y62933D01*
X32156Y62922D01*
X32078Y62911D01*
X31995Y62888D01*
X31917Y62861D01*
X31850Y62822D01*
X31845Y62816D01*
X31823Y62800D01*
X31795Y62772D01*
X31762Y62727D01*
X31728Y62672D01*
X31689Y62600D01*
X31656Y62511D01*
X31623Y62411D01*
X31162Y62472D01*
Y62478D01*
X31168Y62483D01*
Y62500D01*
X31173Y62522D01*
X31190Y62572D01*
X31212Y62644D01*
X31240Y62716D01*
X31273Y62794D01*
X31318Y62872D01*
X31367Y62944D01*
X31373Y62950D01*
X31395Y62972D01*
X31429Y63005D01*
X31473Y63049D01*
X31534Y63094D01*
X31606Y63138D01*
X31689Y63188D01*
X31784Y63227D01*
X31789D01*
X31795Y63232D01*
X31811Y63238D01*
X31834Y63244D01*
X31889Y63260D01*
X31967Y63277D01*
X32056Y63294D01*
X32167Y63310D01*
X32283Y63321D01*
X32416Y63327D01*
X32478D01*
X32539Y63321D01*
D02*
G37*
G36*
X25740Y62944D02*
X25745Y62950D01*
X25756Y62961D01*
X25773Y62977D01*
X25801Y63005D01*
X25829Y63033D01*
X25868Y63066D01*
X25917Y63099D01*
X25967Y63138D01*
X26023Y63171D01*
X26084Y63205D01*
X26228Y63266D01*
X26306Y63294D01*
X26389Y63310D01*
X26478Y63321D01*
X26567Y63327D01*
X26617D01*
X26678Y63321D01*
X26750Y63310D01*
X26833Y63299D01*
X26922Y63277D01*
X27011Y63244D01*
X27100Y63205D01*
X27111Y63199D01*
X27138Y63183D01*
X27177Y63155D01*
X27227Y63116D01*
X27277Y63066D01*
X27333Y63011D01*
X27383Y62944D01*
X27427Y62866D01*
X27433Y62855D01*
X27444Y62827D01*
X27460Y62777D01*
X27477Y62705D01*
X27494Y62616D01*
X27510Y62511D01*
X27521Y62383D01*
X27527Y62239D01*
Y60480D01*
X27055D01*
Y62245D01*
Y62250D01*
Y62261D01*
Y62278D01*
Y62300D01*
X27050Y62361D01*
X27038Y62439D01*
X27016Y62522D01*
X26989Y62605D01*
X26950Y62689D01*
X26900Y62755D01*
X26894Y62761D01*
X26872Y62783D01*
X26839Y62811D01*
X26789Y62839D01*
X26728Y62872D01*
X26656Y62894D01*
X26567Y62916D01*
X26467Y62922D01*
X26434D01*
X26395Y62916D01*
X26339Y62911D01*
X26284Y62894D01*
X26217Y62877D01*
X26151Y62849D01*
X26078Y62811D01*
X26073Y62805D01*
X26051Y62788D01*
X26017Y62766D01*
X25978Y62733D01*
X25934Y62689D01*
X25890Y62639D01*
X25851Y62578D01*
X25817Y62511D01*
X25812Y62500D01*
X25806Y62478D01*
X25795Y62433D01*
X25779Y62378D01*
X25762Y62306D01*
X25751Y62217D01*
X25745Y62117D01*
X25740Y62000D01*
Y60480D01*
X25268D01*
Y64320D01*
X25740D01*
Y62944D01*
D02*
G37*
G36*
X38444Y63321D02*
X38488Y63316D01*
X38544Y63305D01*
X38605Y63294D01*
X38677Y63277D01*
X38743Y63260D01*
X38821Y63232D01*
X38893Y63205D01*
X38971Y63166D01*
X39049Y63121D01*
X39126Y63072D01*
X39199Y63011D01*
X39265Y62944D01*
X39271Y62938D01*
X39282Y62927D01*
X39298Y62905D01*
X39321Y62872D01*
X39348Y62833D01*
X39376Y62788D01*
X39410Y62733D01*
X39443Y62666D01*
X39476Y62594D01*
X39509Y62516D01*
X39537Y62428D01*
X39565Y62333D01*
X39587Y62228D01*
X39604Y62117D01*
X39615Y62000D01*
X39620Y61873D01*
Y61867D01*
Y61845D01*
Y61806D01*
X39615Y61751D01*
X37534D01*
Y61745D01*
Y61728D01*
X37539Y61706D01*
Y61673D01*
X37545Y61634D01*
X37556Y61590D01*
X37572Y61490D01*
X37606Y61379D01*
X37650Y61257D01*
X37711Y61146D01*
X37789Y61046D01*
X37794D01*
X37800Y61035D01*
X37833Y61007D01*
X37883Y60968D01*
X37950Y60929D01*
X38039Y60885D01*
X38138Y60846D01*
X38249Y60818D01*
X38311Y60813D01*
X38377Y60807D01*
X38422D01*
X38471Y60813D01*
X38533Y60824D01*
X38599Y60840D01*
X38677Y60863D01*
X38749Y60896D01*
X38821Y60940D01*
X38827Y60946D01*
X38855Y60968D01*
X38888Y61001D01*
X38927Y61046D01*
X38971Y61107D01*
X39021Y61185D01*
X39071Y61273D01*
X39115Y61379D01*
X39604Y61318D01*
Y61312D01*
X39598Y61301D01*
X39593Y61279D01*
X39582Y61246D01*
X39565Y61212D01*
X39548Y61168D01*
X39504Y61074D01*
X39448Y60968D01*
X39371Y60857D01*
X39282Y60752D01*
X39171Y60652D01*
X39165D01*
X39154Y60641D01*
X39138Y60629D01*
X39115Y60613D01*
X39082Y60596D01*
X39049Y60580D01*
X39004Y60557D01*
X38954Y60535D01*
X38899Y60513D01*
X38843Y60491D01*
X38705Y60457D01*
X38549Y60430D01*
X38377Y60419D01*
X38316D01*
X38277Y60424D01*
X38227Y60430D01*
X38166Y60441D01*
X38100Y60452D01*
X38028Y60463D01*
X37872Y60507D01*
X37789Y60541D01*
X37711Y60574D01*
X37628Y60618D01*
X37550Y60668D01*
X37478Y60724D01*
X37406Y60790D01*
X37400Y60796D01*
X37389Y60807D01*
X37373Y60829D01*
X37350Y60863D01*
X37323Y60901D01*
X37295Y60946D01*
X37262Y61001D01*
X37228Y61063D01*
X37195Y61135D01*
X37162Y61212D01*
X37134Y61301D01*
X37106Y61396D01*
X37084Y61495D01*
X37067Y61606D01*
X37056Y61723D01*
X37051Y61845D01*
Y61851D01*
Y61878D01*
Y61912D01*
X37056Y61962D01*
X37062Y62023D01*
X37067Y62089D01*
X37078Y62167D01*
X37095Y62245D01*
X37139Y62422D01*
X37167Y62511D01*
X37201Y62605D01*
X37245Y62694D01*
X37295Y62777D01*
X37350Y62861D01*
X37411Y62938D01*
X37417Y62944D01*
X37428Y62955D01*
X37450Y62972D01*
X37478Y62999D01*
X37511Y63027D01*
X37556Y63060D01*
X37606Y63099D01*
X37667Y63133D01*
X37728Y63171D01*
X37800Y63205D01*
X37878Y63238D01*
X37961Y63266D01*
X38050Y63294D01*
X38144Y63310D01*
X38244Y63321D01*
X38349Y63327D01*
X38405D01*
X38444Y63321D01*
D02*
G37*
G36*
X29486D02*
X29531Y63316D01*
X29586Y63305D01*
X29647Y63294D01*
X29719Y63277D01*
X29786Y63260D01*
X29864Y63232D01*
X29936Y63205D01*
X30013Y63166D01*
X30091Y63121D01*
X30169Y63072D01*
X30241Y63011D01*
X30307Y62944D01*
X30313Y62938D01*
X30324Y62927D01*
X30341Y62905D01*
X30363Y62872D01*
X30391Y62833D01*
X30419Y62788D01*
X30452Y62733D01*
X30485Y62666D01*
X30518Y62594D01*
X30552Y62516D01*
X30579Y62428D01*
X30607Y62333D01*
X30629Y62228D01*
X30646Y62117D01*
X30657Y62000D01*
X30663Y61873D01*
Y61867D01*
Y61845D01*
Y61806D01*
X30657Y61751D01*
X28576D01*
Y61745D01*
Y61728D01*
X28581Y61706D01*
Y61673D01*
X28587Y61634D01*
X28598Y61590D01*
X28615Y61490D01*
X28648Y61379D01*
X28692Y61257D01*
X28754Y61146D01*
X28831Y61046D01*
X28837D01*
X28842Y61035D01*
X28876Y61007D01*
X28925Y60968D01*
X28992Y60929D01*
X29081Y60885D01*
X29181Y60846D01*
X29292Y60818D01*
X29353Y60813D01*
X29419Y60807D01*
X29464D01*
X29514Y60813D01*
X29575Y60824D01*
X29642Y60840D01*
X29719Y60863D01*
X29791Y60896D01*
X29864Y60940D01*
X29869Y60946D01*
X29897Y60968D01*
X29930Y61001D01*
X29969Y61046D01*
X30013Y61107D01*
X30063Y61185D01*
X30113Y61273D01*
X30158Y61379D01*
X30646Y61318D01*
Y61312D01*
X30641Y61301D01*
X30635Y61279D01*
X30624Y61246D01*
X30607Y61212D01*
X30591Y61168D01*
X30546Y61074D01*
X30491Y60968D01*
X30413Y60857D01*
X30324Y60752D01*
X30213Y60652D01*
X30208D01*
X30196Y60641D01*
X30180Y60629D01*
X30158Y60613D01*
X30124Y60596D01*
X30091Y60580D01*
X30047Y60557D01*
X29997Y60535D01*
X29941Y60513D01*
X29886Y60491D01*
X29747Y60457D01*
X29592Y60430D01*
X29419Y60419D01*
X29358D01*
X29320Y60424D01*
X29270Y60430D01*
X29209Y60441D01*
X29142Y60452D01*
X29070Y60463D01*
X28914Y60507D01*
X28831Y60541D01*
X28754Y60574D01*
X28670Y60618D01*
X28593Y60668D01*
X28520Y60724D01*
X28448Y60790D01*
X28443Y60796D01*
X28432Y60807D01*
X28415Y60829D01*
X28393Y60863D01*
X28365Y60901D01*
X28337Y60946D01*
X28304Y61001D01*
X28271Y61063D01*
X28237Y61135D01*
X28204Y61212D01*
X28176Y61301D01*
X28148Y61396D01*
X28126Y61495D01*
X28110Y61606D01*
X28099Y61723D01*
X28093Y61845D01*
Y61851D01*
Y61878D01*
Y61912D01*
X28099Y61962D01*
X28104Y62023D01*
X28110Y62089D01*
X28121Y62167D01*
X28137Y62245D01*
X28182Y62422D01*
X28210Y62511D01*
X28243Y62605D01*
X28287Y62694D01*
X28337Y62777D01*
X28393Y62861D01*
X28454Y62938D01*
X28459Y62944D01*
X28470Y62955D01*
X28493Y62972D01*
X28520Y62999D01*
X28554Y63027D01*
X28598Y63060D01*
X28648Y63099D01*
X28709Y63133D01*
X28770Y63171D01*
X28842Y63205D01*
X28920Y63238D01*
X29003Y63266D01*
X29092Y63294D01*
X29186Y63310D01*
X29286Y63321D01*
X29392Y63327D01*
X29447D01*
X29486Y63321D01*
D02*
G37*
G36*
X22021D02*
X22066Y63316D01*
X22121Y63305D01*
X22182Y63294D01*
X22254Y63277D01*
X22321Y63260D01*
X22399Y63232D01*
X22471Y63205D01*
X22549Y63166D01*
X22626Y63121D01*
X22704Y63072D01*
X22776Y63011D01*
X22843Y62944D01*
X22848Y62938D01*
X22859Y62927D01*
X22876Y62905D01*
X22898Y62872D01*
X22926Y62833D01*
X22954Y62788D01*
X22987Y62733D01*
X23020Y62666D01*
X23054Y62594D01*
X23087Y62516D01*
X23115Y62428D01*
X23142Y62333D01*
X23165Y62228D01*
X23181Y62117D01*
X23192Y62000D01*
X23198Y61873D01*
Y61867D01*
Y61845D01*
Y61806D01*
X23192Y61751D01*
X21111D01*
Y61745D01*
Y61728D01*
X21117Y61706D01*
Y61673D01*
X21122Y61634D01*
X21133Y61590D01*
X21150Y61490D01*
X21183Y61379D01*
X21228Y61257D01*
X21289Y61146D01*
X21366Y61046D01*
X21372D01*
X21377Y61035D01*
X21411Y61007D01*
X21461Y60968D01*
X21527Y60929D01*
X21616Y60885D01*
X21716Y60846D01*
X21827Y60818D01*
X21888Y60813D01*
X21955Y60807D01*
X21999D01*
X22049Y60813D01*
X22110Y60824D01*
X22177Y60840D01*
X22254Y60863D01*
X22327Y60896D01*
X22399Y60940D01*
X22404Y60946D01*
X22432Y60968D01*
X22465Y61001D01*
X22504Y61046D01*
X22549Y61107D01*
X22599Y61185D01*
X22648Y61273D01*
X22693Y61379D01*
X23181Y61318D01*
Y61312D01*
X23176Y61301D01*
X23170Y61279D01*
X23159Y61246D01*
X23142Y61212D01*
X23126Y61168D01*
X23081Y61074D01*
X23026Y60968D01*
X22948Y60857D01*
X22859Y60752D01*
X22748Y60652D01*
X22743D01*
X22732Y60641D01*
X22715Y60629D01*
X22693Y60613D01*
X22660Y60596D01*
X22626Y60580D01*
X22582Y60557D01*
X22532Y60535D01*
X22476Y60513D01*
X22421Y60491D01*
X22282Y60457D01*
X22127Y60430D01*
X21955Y60419D01*
X21894D01*
X21855Y60424D01*
X21805Y60430D01*
X21744Y60441D01*
X21677Y60452D01*
X21605Y60463D01*
X21450Y60507D01*
X21366Y60541D01*
X21289Y60574D01*
X21205Y60618D01*
X21128Y60668D01*
X21056Y60724D01*
X20983Y60790D01*
X20978Y60796D01*
X20967Y60807D01*
X20950Y60829D01*
X20928Y60863D01*
X20900Y60901D01*
X20873Y60946D01*
X20839Y61001D01*
X20806Y61063D01*
X20773Y61135D01*
X20739Y61212D01*
X20711Y61301D01*
X20684Y61396D01*
X20662Y61495D01*
X20645Y61606D01*
X20634Y61723D01*
X20628Y61845D01*
Y61851D01*
Y61878D01*
Y61912D01*
X20634Y61962D01*
X20639Y62023D01*
X20645Y62089D01*
X20656Y62167D01*
X20673Y62245D01*
X20717Y62422D01*
X20745Y62511D01*
X20778Y62605D01*
X20822Y62694D01*
X20873Y62777D01*
X20928Y62861D01*
X20989Y62938D01*
X20995Y62944D01*
X21006Y62955D01*
X21028Y62972D01*
X21056Y62999D01*
X21089Y63027D01*
X21133Y63060D01*
X21183Y63099D01*
X21244Y63133D01*
X21305Y63171D01*
X21377Y63205D01*
X21455Y63238D01*
X21539Y63266D01*
X21627Y63294D01*
X21722Y63310D01*
X21822Y63321D01*
X21927Y63327D01*
X21982D01*
X22021Y63321D01*
D02*
G37*
G36*
X16338D02*
X16388Y63316D01*
X16444Y63305D01*
X16505Y63294D01*
X16577Y63282D01*
X16727Y63232D01*
X16804Y63205D01*
X16882Y63166D01*
X16960Y63127D01*
X17037Y63072D01*
X17110Y63016D01*
X17182Y62950D01*
X17187Y62944D01*
X17198Y62933D01*
X17215Y62911D01*
X17237Y62883D01*
X17265Y62844D01*
X17298Y62794D01*
X17332Y62739D01*
X17365Y62678D01*
X17398Y62611D01*
X17432Y62528D01*
X17465Y62444D01*
X17492Y62350D01*
X17515Y62250D01*
X17531Y62145D01*
X17542Y62034D01*
X17548Y61912D01*
Y61906D01*
Y61889D01*
Y61862D01*
Y61823D01*
X17542Y61778D01*
X17537Y61723D01*
Y61667D01*
X17526Y61606D01*
X17509Y61468D01*
X17476Y61329D01*
X17437Y61190D01*
X17381Y61063D01*
Y61057D01*
X17376Y61051D01*
X17365Y61035D01*
X17354Y61013D01*
X17315Y60957D01*
X17265Y60890D01*
X17198Y60813D01*
X17115Y60735D01*
X17021Y60657D01*
X16910Y60585D01*
X16904D01*
X16899Y60580D01*
X16882Y60568D01*
X16854Y60557D01*
X16826Y60546D01*
X16793Y60535D01*
X16710Y60502D01*
X16616Y60474D01*
X16499Y60446D01*
X16377Y60424D01*
X16244Y60419D01*
X16188D01*
X16144Y60424D01*
X16094Y60430D01*
X16038Y60441D01*
X15972Y60452D01*
X15905Y60463D01*
X15755Y60507D01*
X15672Y60541D01*
X15594Y60574D01*
X15517Y60618D01*
X15439Y60668D01*
X15367Y60724D01*
X15295Y60790D01*
X15289Y60796D01*
X15278Y60807D01*
X15261Y60829D01*
X15239Y60863D01*
X15212Y60901D01*
X15184Y60946D01*
X15150Y61001D01*
X15117Y61068D01*
X15084Y61140D01*
X15051Y61223D01*
X15023Y61312D01*
X14995Y61407D01*
X14973Y61512D01*
X14956Y61623D01*
X14945Y61745D01*
X14940Y61873D01*
Y61884D01*
Y61906D01*
X14945Y61945D01*
Y62000D01*
X14951Y62062D01*
X14962Y62139D01*
X14973Y62217D01*
X14995Y62306D01*
X15017Y62394D01*
X15045Y62489D01*
X15078Y62589D01*
X15123Y62683D01*
X15167Y62772D01*
X15228Y62861D01*
X15289Y62944D01*
X15367Y63016D01*
X15372Y63022D01*
X15383Y63027D01*
X15406Y63044D01*
X15434Y63066D01*
X15467Y63088D01*
X15511Y63116D01*
X15556Y63144D01*
X15611Y63171D01*
X15672Y63199D01*
X15739Y63227D01*
X15889Y63277D01*
X16061Y63316D01*
X16149Y63321D01*
X16244Y63327D01*
X16299D01*
X16338Y63321D01*
D02*
G37*
G36*
X13352D02*
X13402Y63316D01*
X13458Y63305D01*
X13519Y63294D01*
X13591Y63282D01*
X13741Y63232D01*
X13818Y63205D01*
X13896Y63166D01*
X13974Y63127D01*
X14051Y63072D01*
X14124Y63016D01*
X14196Y62950D01*
X14201Y62944D01*
X14212Y62933D01*
X14229Y62911D01*
X14251Y62883D01*
X14279Y62844D01*
X14312Y62794D01*
X14346Y62739D01*
X14379Y62678D01*
X14412Y62611D01*
X14446Y62528D01*
X14479Y62444D01*
X14507Y62350D01*
X14529Y62250D01*
X14546Y62145D01*
X14557Y62034D01*
X14562Y61912D01*
Y61906D01*
Y61889D01*
Y61862D01*
Y61823D01*
X14557Y61778D01*
X14551Y61723D01*
Y61667D01*
X14540Y61606D01*
X14523Y61468D01*
X14490Y61329D01*
X14451Y61190D01*
X14396Y61063D01*
Y61057D01*
X14390Y61051D01*
X14379Y61035D01*
X14368Y61013D01*
X14329Y60957D01*
X14279Y60890D01*
X14212Y60813D01*
X14129Y60735D01*
X14035Y60657D01*
X13924Y60585D01*
X13918D01*
X13913Y60580D01*
X13896Y60568D01*
X13868Y60557D01*
X13841Y60546D01*
X13807Y60535D01*
X13724Y60502D01*
X13630Y60474D01*
X13513Y60446D01*
X13391Y60424D01*
X13258Y60419D01*
X13202D01*
X13158Y60424D01*
X13108Y60430D01*
X13052Y60441D01*
X12986Y60452D01*
X12919Y60463D01*
X12769Y60507D01*
X12686Y60541D01*
X12608Y60574D01*
X12531Y60618D01*
X12453Y60668D01*
X12381Y60724D01*
X12309Y60790D01*
X12303Y60796D01*
X12292Y60807D01*
X12275Y60829D01*
X12253Y60863D01*
X12226Y60901D01*
X12198Y60946D01*
X12165Y61001D01*
X12131Y61068D01*
X12098Y61140D01*
X12065Y61223D01*
X12037Y61312D01*
X12009Y61407D01*
X11987Y61512D01*
X11970Y61623D01*
X11959Y61745D01*
X11954Y61873D01*
Y61884D01*
Y61906D01*
X11959Y61945D01*
Y62000D01*
X11965Y62062D01*
X11976Y62139D01*
X11987Y62217D01*
X12009Y62306D01*
X12031Y62394D01*
X12059Y62489D01*
X12092Y62589D01*
X12137Y62683D01*
X12181Y62772D01*
X12242Y62861D01*
X12303Y62944D01*
X12381Y63016D01*
X12387Y63022D01*
X12398Y63027D01*
X12420Y63044D01*
X12448Y63066D01*
X12481Y63088D01*
X12525Y63116D01*
X12570Y63144D01*
X12625Y63171D01*
X12686Y63199D01*
X12753Y63227D01*
X12903Y63277D01*
X13075Y63316D01*
X13163Y63321D01*
X13258Y63327D01*
X13313D01*
X13352Y63321D01*
D02*
G37*
G36*
X42610Y10700D02*
X42643Y10696D01*
X42683Y10692D01*
X42723Y10689D01*
X42770Y10678D01*
X42869Y10656D01*
X42978Y10623D01*
X43033Y10601D01*
X43084Y10576D01*
X43134Y10543D01*
X43185Y10510D01*
X43189Y10507D01*
X43196Y10503D01*
X43211Y10492D01*
X43229Y10474D01*
X43247Y10456D01*
X43273Y10430D01*
X43298Y10401D01*
X43327Y10372D01*
X43356Y10335D01*
X43386Y10292D01*
X43418Y10248D01*
X43448Y10201D01*
X43473Y10146D01*
X43502Y10092D01*
X43524Y10033D01*
X43546Y9968D01*
X43218Y9891D01*
Y9895D01*
X43215Y9902D01*
X43207Y9917D01*
X43200Y9935D01*
X43193Y9957D01*
X43182Y9986D01*
X43153Y10044D01*
X43116Y10110D01*
X43073Y10175D01*
X43018Y10237D01*
X42960Y10292D01*
X42952Y10299D01*
X42931Y10314D01*
X42894Y10332D01*
X42847Y10357D01*
X42785Y10379D01*
X42716Y10401D01*
X42632Y10416D01*
X42541Y10419D01*
X42512D01*
X42494Y10416D01*
X42468D01*
X42439Y10412D01*
X42370Y10401D01*
X42294Y10386D01*
X42214Y10361D01*
X42130Y10325D01*
X42053Y10277D01*
X42050D01*
X42046Y10270D01*
X42021Y10252D01*
X41988Y10223D01*
X41948Y10179D01*
X41901Y10124D01*
X41857Y10063D01*
X41817Y9986D01*
X41780Y9902D01*
Y9899D01*
X41777Y9891D01*
X41773Y9881D01*
X41769Y9862D01*
X41762Y9840D01*
X41755Y9815D01*
X41744Y9753D01*
X41729Y9680D01*
X41715Y9600D01*
X41708Y9513D01*
X41704Y9418D01*
Y9415D01*
Y9404D01*
Y9385D01*
Y9364D01*
X41708Y9338D01*
Y9305D01*
X41711Y9269D01*
X41715Y9229D01*
X41726Y9142D01*
X41744Y9047D01*
X41766Y8952D01*
X41795Y8858D01*
Y8854D01*
X41799Y8847D01*
X41806Y8836D01*
X41813Y8818D01*
X41835Y8774D01*
X41868Y8723D01*
X41908Y8665D01*
X41959Y8603D01*
X42017Y8548D01*
X42086Y8497D01*
X42090D01*
X42097Y8494D01*
X42108Y8486D01*
X42123Y8479D01*
X42141Y8472D01*
X42163Y8461D01*
X42214Y8439D01*
X42279Y8417D01*
X42352Y8399D01*
X42432Y8384D01*
X42516Y8381D01*
X42541D01*
X42563Y8384D01*
X42588D01*
X42614Y8388D01*
X42680Y8403D01*
X42756Y8421D01*
X42832Y8450D01*
X42912Y8490D01*
X42952Y8512D01*
X42989Y8541D01*
X42992Y8545D01*
X42996Y8548D01*
X43007Y8559D01*
X43022Y8570D01*
X43036Y8588D01*
X43054Y8610D01*
X43076Y8632D01*
X43094Y8661D01*
X43116Y8694D01*
X43142Y8730D01*
X43164Y8767D01*
X43185Y8810D01*
X43204Y8858D01*
X43222Y8909D01*
X43240Y8963D01*
X43255Y9021D01*
X43589Y8938D01*
Y8934D01*
X43586Y8919D01*
X43579Y8898D01*
X43568Y8869D01*
X43557Y8836D01*
X43542Y8796D01*
X43524Y8752D01*
X43502Y8705D01*
X43451Y8603D01*
X43386Y8501D01*
X43346Y8450D01*
X43306Y8399D01*
X43262Y8355D01*
X43211Y8312D01*
X43207Y8308D01*
X43200Y8301D01*
X43182Y8293D01*
X43164Y8279D01*
X43134Y8261D01*
X43105Y8242D01*
X43065Y8224D01*
X43025Y8206D01*
X42978Y8184D01*
X42927Y8166D01*
X42872Y8148D01*
X42814Y8130D01*
X42752Y8115D01*
X42687Y8108D01*
X42618Y8100D01*
X42545Y8097D01*
X42505D01*
X42476Y8100D01*
X42443D01*
X42403Y8104D01*
X42359Y8111D01*
X42308Y8119D01*
X42203Y8137D01*
X42093Y8166D01*
X41984Y8206D01*
X41933Y8232D01*
X41882Y8261D01*
X41879Y8264D01*
X41871Y8268D01*
X41857Y8279D01*
X41842Y8293D01*
X41820Y8308D01*
X41795Y8330D01*
X41766Y8355D01*
X41737Y8384D01*
X41708Y8417D01*
X41675Y8450D01*
X41609Y8534D01*
X41547Y8632D01*
X41493Y8741D01*
Y8745D01*
X41486Y8756D01*
X41482Y8774D01*
X41471Y8796D01*
X41464Y8825D01*
X41453Y8861D01*
X41438Y8901D01*
X41427Y8945D01*
X41416Y8992D01*
X41402Y9047D01*
X41384Y9160D01*
X41369Y9287D01*
X41362Y9418D01*
Y9422D01*
Y9436D01*
Y9458D01*
X41365Y9484D01*
Y9520D01*
X41369Y9556D01*
X41373Y9604D01*
X41380Y9651D01*
X41398Y9757D01*
X41424Y9873D01*
X41460Y9990D01*
X41511Y10103D01*
X41515Y10106D01*
X41518Y10117D01*
X41526Y10132D01*
X41540Y10150D01*
X41555Y10175D01*
X41573Y10204D01*
X41620Y10270D01*
X41682Y10343D01*
X41755Y10416D01*
X41839Y10488D01*
X41937Y10550D01*
X41941Y10554D01*
X41952Y10558D01*
X41966Y10565D01*
X41984Y10576D01*
X42013Y10587D01*
X42042Y10598D01*
X42079Y10612D01*
X42119Y10627D01*
X42163Y10641D01*
X42210Y10656D01*
X42312Y10678D01*
X42428Y10696D01*
X42548Y10703D01*
X42585D01*
X42610Y10700D01*
D02*
G37*
G36*
X45038Y8141D02*
X44729D01*
Y10110D01*
X44725Y10106D01*
X44707Y10092D01*
X44685Y10070D01*
X44649Y10044D01*
X44609Y10012D01*
X44558Y9975D01*
X44499Y9935D01*
X44434Y9895D01*
X44430D01*
X44427Y9891D01*
X44405Y9877D01*
X44368Y9859D01*
X44325Y9837D01*
X44274Y9811D01*
X44219Y9786D01*
X44165Y9760D01*
X44110Y9738D01*
Y10037D01*
X44114D01*
X44121Y10044D01*
X44135Y10048D01*
X44154Y10059D01*
X44175Y10070D01*
X44201Y10084D01*
X44263Y10121D01*
X44336Y10161D01*
X44409Y10212D01*
X44485Y10270D01*
X44561Y10332D01*
X44565Y10335D01*
X44569Y10339D01*
X44580Y10350D01*
X44594Y10361D01*
X44627Y10397D01*
X44671Y10441D01*
X44714Y10492D01*
X44762Y10550D01*
X44802Y10609D01*
X44838Y10670D01*
X45038D01*
Y8141D01*
D02*
G37*
G36*
X24493Y3120D02*
Y3116D01*
Y3102D01*
Y3083D01*
Y3058D01*
X24489Y3025D01*
Y2989D01*
X24486Y2945D01*
X24482Y2901D01*
X24471Y2803D01*
X24456Y2701D01*
X24435Y2603D01*
X24420Y2556D01*
X24406Y2512D01*
Y2508D01*
X24402Y2501D01*
X24395Y2490D01*
X24387Y2475D01*
X24365Y2435D01*
X24333Y2385D01*
X24289Y2326D01*
X24238Y2268D01*
X24173Y2206D01*
X24092Y2152D01*
X24089D01*
X24082Y2144D01*
X24071Y2141D01*
X24053Y2130D01*
X24031Y2119D01*
X24002Y2108D01*
X23972Y2097D01*
X23936Y2082D01*
X23896Y2068D01*
X23852Y2057D01*
X23805Y2046D01*
X23750Y2035D01*
X23696Y2028D01*
X23638Y2021D01*
X23506Y2013D01*
X23474D01*
X23448Y2017D01*
X23419D01*
X23383Y2021D01*
X23343Y2024D01*
X23303Y2028D01*
X23212Y2042D01*
X23113Y2064D01*
X23019Y2093D01*
X22928Y2133D01*
X22924D01*
X22917Y2141D01*
X22906Y2148D01*
X22891Y2155D01*
X22851Y2184D01*
X22804Y2224D01*
X22749Y2275D01*
X22698Y2334D01*
X22647Y2406D01*
X22607Y2486D01*
Y2490D01*
X22604Y2497D01*
X22600Y2512D01*
X22593Y2530D01*
X22586Y2552D01*
X22578Y2581D01*
X22567Y2614D01*
X22560Y2654D01*
X22553Y2698D01*
X22542Y2745D01*
X22535Y2796D01*
X22527Y2850D01*
X22520Y2912D01*
X22516Y2978D01*
X22513Y3047D01*
Y3120D01*
Y4576D01*
X22848D01*
Y3120D01*
Y3116D01*
Y3105D01*
Y3087D01*
Y3065D01*
X22851Y3040D01*
Y3007D01*
X22855Y2938D01*
X22862Y2858D01*
X22873Y2778D01*
X22888Y2701D01*
X22895Y2668D01*
X22906Y2636D01*
X22909Y2628D01*
X22917Y2610D01*
X22935Y2585D01*
X22957Y2548D01*
X22982Y2512D01*
X23019Y2472D01*
X23062Y2432D01*
X23113Y2399D01*
X23121Y2396D01*
X23139Y2385D01*
X23172Y2374D01*
X23215Y2359D01*
X23266Y2341D01*
X23332Y2330D01*
X23401Y2319D01*
X23477Y2315D01*
X23514D01*
X23536Y2319D01*
X23568D01*
X23601Y2323D01*
X23681Y2337D01*
X23769Y2355D01*
X23852Y2385D01*
X23932Y2425D01*
X23969Y2450D01*
X24002Y2479D01*
X24005Y2483D01*
X24009Y2486D01*
X24016Y2497D01*
X24027Y2512D01*
X24038Y2534D01*
X24053Y2556D01*
X24067Y2588D01*
X24082Y2621D01*
X24096Y2661D01*
X24107Y2709D01*
X24122Y2763D01*
X24133Y2821D01*
X24144Y2887D01*
X24151Y2956D01*
X24158Y3036D01*
Y3120D01*
Y4576D01*
X24493D01*
Y3120D01*
D02*
G37*
G36*
X26087Y2057D02*
X25778D01*
Y4026D01*
X25774Y4022D01*
X25756Y4008D01*
X25734Y3986D01*
X25698Y3961D01*
X25658Y3928D01*
X25607Y3892D01*
X25548Y3852D01*
X25483Y3811D01*
X25479D01*
X25476Y3808D01*
X25454Y3793D01*
X25418Y3775D01*
X25374Y3753D01*
X25323Y3728D01*
X25268Y3702D01*
X25214Y3677D01*
X25159Y3655D01*
Y3953D01*
X25163D01*
X25170Y3961D01*
X25185Y3964D01*
X25203Y3975D01*
X25225Y3986D01*
X25250Y4001D01*
X25312Y4037D01*
X25385Y4077D01*
X25458Y4128D01*
X25534Y4186D01*
X25610Y4248D01*
X25614Y4252D01*
X25618Y4256D01*
X25629Y4266D01*
X25643Y4277D01*
X25676Y4314D01*
X25720Y4357D01*
X25763Y4408D01*
X25811Y4467D01*
X25851Y4525D01*
X25887Y4587D01*
X26087D01*
Y2057D01*
D02*
G37*
G36*
X37484Y9781D02*
X37826D01*
Y9498D01*
X37484D01*
Y8893D01*
X37174D01*
Y9498D01*
X36079D01*
Y9781D01*
X37232Y11412D01*
X37484D01*
Y9781D01*
D02*
G37*
G36*
X34972Y11409D02*
X35005D01*
X35081Y11405D01*
X35161Y11394D01*
X35249Y11383D01*
X35329Y11365D01*
X35369Y11354D01*
X35401Y11343D01*
X35405D01*
X35409Y11339D01*
X35430Y11328D01*
X35463Y11314D01*
X35503Y11288D01*
X35547Y11256D01*
X35594Y11212D01*
X35638Y11161D01*
X35682Y11103D01*
Y11099D01*
X35685Y11096D01*
X35700Y11074D01*
X35715Y11037D01*
X35736Y10990D01*
X35754Y10935D01*
X35773Y10870D01*
X35784Y10801D01*
X35787Y10724D01*
Y10721D01*
Y10713D01*
Y10699D01*
X35784Y10681D01*
Y10655D01*
X35780Y10630D01*
X35765Y10568D01*
X35744Y10495D01*
X35715Y10419D01*
X35671Y10342D01*
X35642Y10306D01*
X35612Y10269D01*
X35609Y10266D01*
X35605Y10262D01*
X35594Y10251D01*
X35580Y10240D01*
X35562Y10226D01*
X35540Y10211D01*
X35511Y10193D01*
X35482Y10171D01*
X35445Y10153D01*
X35405Y10135D01*
X35361Y10113D01*
X35314Y10095D01*
X35260Y10080D01*
X35205Y10062D01*
X35143Y10051D01*
X35078Y10040D01*
X35085Y10036D01*
X35099Y10029D01*
X35121Y10014D01*
X35150Y10000D01*
X35216Y9960D01*
X35249Y9934D01*
X35278Y9913D01*
X35285Y9905D01*
X35303Y9887D01*
X35332Y9858D01*
X35369Y9822D01*
X35409Y9771D01*
X35456Y9716D01*
X35503Y9651D01*
X35554Y9578D01*
X35987Y8893D01*
X35572D01*
X35241Y9418D01*
Y9421D01*
X35234Y9428D01*
X35227Y9439D01*
X35216Y9454D01*
X35190Y9494D01*
X35157Y9545D01*
X35118Y9600D01*
X35078Y9658D01*
X35037Y9712D01*
X35001Y9763D01*
X34997Y9767D01*
X34986Y9781D01*
X34968Y9803D01*
X34943Y9829D01*
X34888Y9883D01*
X34859Y9909D01*
X34830Y9931D01*
X34826Y9934D01*
X34819Y9938D01*
X34804Y9945D01*
X34783Y9956D01*
X34761Y9967D01*
X34735Y9978D01*
X34677Y9996D01*
X34673D01*
X34666Y10000D01*
X34652D01*
X34633Y10004D01*
X34608Y10007D01*
X34579D01*
X34539Y10011D01*
X34109D01*
Y8893D01*
X33774D01*
Y11412D01*
X34943D01*
X34972Y11409D01*
D02*
G37*
G36*
X32651Y21539D02*
X32698Y21532D01*
X32756Y21521D01*
X32822Y21503D01*
X32887Y21481D01*
X32953Y21452D01*
X32956D01*
X32960Y21448D01*
X32982Y21437D01*
X33015Y21415D01*
X33051Y21390D01*
X33095Y21353D01*
X33138Y21313D01*
X33182Y21266D01*
X33218Y21212D01*
X33222Y21204D01*
X33233Y21186D01*
X33247Y21153D01*
X33266Y21113D01*
X33284Y21066D01*
X33298Y21011D01*
X33309Y20949D01*
X33313Y20888D01*
Y20880D01*
Y20858D01*
X33309Y20829D01*
X33302Y20789D01*
X33291Y20742D01*
X33273Y20691D01*
X33251Y20640D01*
X33222Y20589D01*
X33218Y20582D01*
X33207Y20567D01*
X33186Y20542D01*
X33156Y20513D01*
X33120Y20480D01*
X33076Y20444D01*
X33025Y20411D01*
X32963Y20378D01*
X32967D01*
X32974Y20374D01*
X32985Y20371D01*
X33000Y20367D01*
X33040Y20353D01*
X33091Y20331D01*
X33149Y20301D01*
X33207Y20265D01*
X33262Y20218D01*
X33313Y20163D01*
X33317Y20156D01*
X33331Y20134D01*
X33353Y20098D01*
X33375Y20050D01*
X33397Y19992D01*
X33419Y19923D01*
X33433Y19843D01*
X33437Y19756D01*
Y19752D01*
Y19741D01*
Y19723D01*
X33433Y19701D01*
X33429Y19672D01*
X33422Y19639D01*
X33415Y19603D01*
X33408Y19563D01*
X33378Y19475D01*
X33357Y19428D01*
X33335Y19384D01*
X33306Y19337D01*
X33273Y19290D01*
X33237Y19242D01*
X33193Y19199D01*
X33189Y19195D01*
X33182Y19188D01*
X33167Y19177D01*
X33149Y19162D01*
X33127Y19144D01*
X33098Y19126D01*
X33065Y19104D01*
X33025Y19086D01*
X32985Y19064D01*
X32938Y19042D01*
X32891Y19024D01*
X32836Y19006D01*
X32778Y18991D01*
X32716Y18980D01*
X32654Y18973D01*
X32585Y18969D01*
X32552D01*
X32530Y18973D01*
X32501Y18977D01*
X32469Y18980D01*
X32432Y18988D01*
X32392Y18995D01*
X32305Y19017D01*
X32214Y19053D01*
X32166Y19075D01*
X32123Y19100D01*
X32079Y19133D01*
X32035Y19166D01*
X32032Y19170D01*
X32024Y19177D01*
X32013Y19188D01*
X32003Y19202D01*
X31984Y19220D01*
X31966Y19246D01*
X31944Y19271D01*
X31923Y19304D01*
X31901Y19341D01*
X31879Y19377D01*
X31839Y19464D01*
X31806Y19566D01*
X31795Y19621D01*
X31788Y19679D01*
X32097Y19719D01*
Y19715D01*
X32101Y19708D01*
X32105Y19694D01*
X32108Y19675D01*
X32112Y19654D01*
X32119Y19628D01*
X32137Y19573D01*
X32163Y19508D01*
X32195Y19446D01*
X32232Y19388D01*
X32276Y19337D01*
X32283Y19333D01*
X32297Y19319D01*
X32326Y19300D01*
X32363Y19282D01*
X32407Y19261D01*
X32461Y19242D01*
X32523Y19228D01*
X32589Y19224D01*
X32610D01*
X32625Y19228D01*
X32665Y19231D01*
X32716Y19242D01*
X32774Y19261D01*
X32836Y19286D01*
X32898Y19322D01*
X32956Y19373D01*
X32963Y19381D01*
X32982Y19402D01*
X33004Y19435D01*
X33033Y19479D01*
X33062Y19534D01*
X33084Y19595D01*
X33102Y19668D01*
X33109Y19748D01*
Y19752D01*
Y19759D01*
Y19770D01*
X33105Y19785D01*
X33102Y19825D01*
X33091Y19872D01*
X33076Y19930D01*
X33051Y19988D01*
X33015Y20047D01*
X32967Y20101D01*
X32960Y20109D01*
X32942Y20123D01*
X32913Y20145D01*
X32873Y20170D01*
X32822Y20196D01*
X32760Y20218D01*
X32691Y20232D01*
X32614Y20240D01*
X32581D01*
X32556Y20236D01*
X32523Y20232D01*
X32487Y20225D01*
X32443Y20218D01*
X32396Y20207D01*
X32432Y20480D01*
X32450D01*
X32465Y20476D01*
X32512D01*
X32552Y20483D01*
X32599Y20491D01*
X32654Y20502D01*
X32716Y20520D01*
X32774Y20545D01*
X32836Y20578D01*
X32840D01*
X32843Y20582D01*
X32862Y20596D01*
X32887Y20622D01*
X32916Y20655D01*
X32945Y20702D01*
X32971Y20756D01*
X32989Y20818D01*
X32996Y20855D01*
Y20895D01*
Y20899D01*
Y20902D01*
Y20924D01*
X32989Y20953D01*
X32982Y20993D01*
X32967Y21037D01*
X32949Y21084D01*
X32920Y21131D01*
X32880Y21175D01*
X32876Y21179D01*
X32858Y21193D01*
X32833Y21212D01*
X32800Y21233D01*
X32756Y21251D01*
X32705Y21270D01*
X32647Y21284D01*
X32581Y21288D01*
X32552D01*
X32519Y21281D01*
X32476Y21273D01*
X32428Y21259D01*
X32381Y21241D01*
X32330Y21212D01*
X32283Y21175D01*
X32279Y21171D01*
X32265Y21153D01*
X32243Y21128D01*
X32217Y21091D01*
X32192Y21044D01*
X32166Y20986D01*
X32144Y20917D01*
X32130Y20837D01*
X31821Y20891D01*
Y20895D01*
X31824Y20906D01*
X31828Y20920D01*
X31831Y20942D01*
X31839Y20968D01*
X31850Y20997D01*
X31872Y21066D01*
X31908Y21146D01*
X31952Y21226D01*
X32006Y21303D01*
X32075Y21372D01*
X32079Y21375D01*
X32086Y21379D01*
X32097Y21386D01*
X32112Y21397D01*
X32130Y21412D01*
X32155Y21426D01*
X32181Y21441D01*
X32214Y21459D01*
X32287Y21488D01*
X32370Y21517D01*
X32469Y21535D01*
X32519Y21543D01*
X32610D01*
X32651Y21539D01*
D02*
G37*
G36*
X30572Y21528D02*
X30605D01*
X30681Y21524D01*
X30761Y21514D01*
X30849Y21503D01*
X30929Y21485D01*
X30969Y21474D01*
X31002Y21463D01*
X31005D01*
X31009Y21459D01*
X31031Y21448D01*
X31063Y21433D01*
X31104Y21408D01*
X31147Y21375D01*
X31194Y21332D01*
X31238Y21281D01*
X31282Y21222D01*
Y21219D01*
X31286Y21215D01*
X31300Y21193D01*
X31315Y21157D01*
X31336Y21110D01*
X31355Y21055D01*
X31373Y20989D01*
X31384Y20920D01*
X31387Y20844D01*
Y20840D01*
Y20833D01*
Y20818D01*
X31384Y20800D01*
Y20775D01*
X31380Y20749D01*
X31366Y20687D01*
X31344Y20615D01*
X31315Y20538D01*
X31271Y20462D01*
X31242Y20425D01*
X31213Y20389D01*
X31209Y20385D01*
X31205Y20382D01*
X31194Y20371D01*
X31180Y20360D01*
X31162Y20345D01*
X31140Y20331D01*
X31111Y20312D01*
X31082Y20291D01*
X31045Y20272D01*
X31005Y20254D01*
X30961Y20232D01*
X30914Y20214D01*
X30860Y20200D01*
X30805Y20181D01*
X30743Y20170D01*
X30678Y20159D01*
X30685Y20156D01*
X30699Y20149D01*
X30721Y20134D01*
X30750Y20120D01*
X30816Y20079D01*
X30849Y20054D01*
X30878Y20032D01*
X30885Y20025D01*
X30903Y20007D01*
X30932Y19977D01*
X30969Y19941D01*
X31009Y19890D01*
X31056Y19836D01*
X31104Y19770D01*
X31154Y19697D01*
X31588Y19013D01*
X31173D01*
X30841Y19537D01*
Y19541D01*
X30834Y19548D01*
X30827Y19559D01*
X30816Y19573D01*
X30790Y19613D01*
X30758Y19665D01*
X30718Y19719D01*
X30678Y19777D01*
X30638Y19832D01*
X30601Y19883D01*
X30597Y19886D01*
X30587Y19901D01*
X30568Y19923D01*
X30543Y19948D01*
X30488Y20003D01*
X30459Y20029D01*
X30430Y20050D01*
X30426Y20054D01*
X30419Y20058D01*
X30405Y20065D01*
X30383Y20076D01*
X30361Y20087D01*
X30335Y20098D01*
X30277Y20116D01*
X30274D01*
X30266Y20120D01*
X30252D01*
X30233Y20123D01*
X30208Y20127D01*
X30179D01*
X30139Y20130D01*
X29709D01*
Y19013D01*
X29375D01*
Y21532D01*
X30543D01*
X30572Y21528D01*
D02*
G37*
G36*
X12987Y11561D02*
X13016Y11558D01*
X13052Y11554D01*
X13092Y11547D01*
X13132Y11539D01*
X13227Y11514D01*
X13322Y11478D01*
X13369Y11456D01*
X13416Y11430D01*
X13460Y11398D01*
X13500Y11361D01*
X13504Y11357D01*
X13511Y11354D01*
X13518Y11339D01*
X13533Y11325D01*
X13551Y11306D01*
X13569Y11281D01*
X13587Y11255D01*
X13609Y11223D01*
X13646Y11154D01*
X13682Y11066D01*
X13697Y11022D01*
X13704Y10972D01*
X13711Y10921D01*
X13715Y10866D01*
Y10859D01*
Y10841D01*
X13711Y10811D01*
X13708Y10771D01*
X13700Y10728D01*
X13686Y10677D01*
X13671Y10622D01*
X13649Y10567D01*
X13646Y10560D01*
X13638Y10542D01*
X13624Y10513D01*
X13602Y10473D01*
X13573Y10429D01*
X13536Y10375D01*
X13493Y10320D01*
X13442Y10258D01*
X13434Y10251D01*
X13416Y10229D01*
X13398Y10211D01*
X13380Y10193D01*
X13358Y10171D01*
X13329Y10142D01*
X13300Y10113D01*
X13263Y10080D01*
X13227Y10043D01*
X13183Y10003D01*
X13136Y9963D01*
X13085Y9916D01*
X13027Y9869D01*
X12968Y9818D01*
X12965Y9814D01*
X12958Y9807D01*
X12943Y9796D01*
X12925Y9781D01*
X12903Y9759D01*
X12878Y9738D01*
X12819Y9690D01*
X12757Y9636D01*
X12699Y9581D01*
X12648Y9534D01*
X12626Y9516D01*
X12608Y9497D01*
X12605Y9494D01*
X12594Y9483D01*
X12579Y9468D01*
X12561Y9446D01*
X12543Y9421D01*
X12521Y9396D01*
X12477Y9334D01*
X13718D01*
Y9035D01*
X12048D01*
Y9039D01*
Y9053D01*
Y9075D01*
X12051Y9104D01*
X12055Y9137D01*
X12062Y9173D01*
X12070Y9210D01*
X12084Y9250D01*
Y9253D01*
X12088Y9257D01*
X12095Y9279D01*
X12110Y9312D01*
X12131Y9355D01*
X12161Y9406D01*
X12197Y9465D01*
X12237Y9523D01*
X12288Y9585D01*
Y9588D01*
X12295Y9592D01*
X12313Y9614D01*
X12346Y9647D01*
X12393Y9694D01*
X12448Y9748D01*
X12517Y9814D01*
X12601Y9887D01*
X12692Y9963D01*
X12696Y9967D01*
X12710Y9978D01*
X12732Y9996D01*
X12757Y10018D01*
X12790Y10047D01*
X12830Y10080D01*
X12870Y10116D01*
X12918Y10156D01*
X13009Y10244D01*
X13100Y10331D01*
X13143Y10375D01*
X13183Y10418D01*
X13220Y10458D01*
X13249Y10498D01*
Y10502D01*
X13256Y10506D01*
X13263Y10517D01*
X13271Y10531D01*
X13296Y10571D01*
X13325Y10618D01*
X13351Y10677D01*
X13376Y10739D01*
X13391Y10808D01*
X13398Y10873D01*
Y10877D01*
Y10881D01*
X13394Y10902D01*
X13391Y10939D01*
X13380Y10979D01*
X13365Y11030D01*
X13340Y11081D01*
X13307Y11132D01*
X13263Y11183D01*
X13256Y11190D01*
X13238Y11204D01*
X13212Y11223D01*
X13172Y11248D01*
X13121Y11270D01*
X13063Y11292D01*
X12994Y11306D01*
X12918Y11310D01*
X12896D01*
X12881Y11306D01*
X12837Y11303D01*
X12787Y11292D01*
X12732Y11277D01*
X12670Y11252D01*
X12612Y11219D01*
X12557Y11175D01*
X12550Y11168D01*
X12535Y11150D01*
X12514Y11121D01*
X12492Y11077D01*
X12466Y11026D01*
X12444Y10961D01*
X12430Y10888D01*
X12422Y10804D01*
X12106Y10837D01*
Y10841D01*
X12110Y10852D01*
Y10870D01*
X12113Y10895D01*
X12120Y10924D01*
X12128Y10957D01*
X12139Y10997D01*
X12150Y11037D01*
X12179Y11124D01*
X12222Y11212D01*
X12248Y11255D01*
X12281Y11299D01*
X12313Y11339D01*
X12350Y11376D01*
X12353Y11379D01*
X12361Y11383D01*
X12372Y11394D01*
X12390Y11405D01*
X12412Y11419D01*
X12437Y11434D01*
X12466Y11452D01*
X12503Y11470D01*
X12543Y11489D01*
X12586Y11507D01*
X12634Y11521D01*
X12685Y11536D01*
X12739Y11547D01*
X12798Y11558D01*
X12859Y11561D01*
X12925Y11565D01*
X12961D01*
X12987Y11561D01*
D02*
G37*
G36*
X10879Y11550D02*
X10912D01*
X10988Y11547D01*
X11068Y11536D01*
X11156Y11525D01*
X11236Y11507D01*
X11276Y11496D01*
X11309Y11485D01*
X11312D01*
X11316Y11481D01*
X11338Y11470D01*
X11371Y11456D01*
X11411Y11430D01*
X11454Y11398D01*
X11502Y11354D01*
X11545Y11303D01*
X11589Y11245D01*
Y11241D01*
X11593Y11237D01*
X11607Y11215D01*
X11622Y11179D01*
X11644Y11132D01*
X11662Y11077D01*
X11680Y11012D01*
X11691Y10943D01*
X11694Y10866D01*
Y10862D01*
Y10855D01*
Y10841D01*
X11691Y10822D01*
Y10797D01*
X11687Y10771D01*
X11673Y10710D01*
X11651Y10637D01*
X11622Y10560D01*
X11578Y10484D01*
X11549Y10447D01*
X11520Y10411D01*
X11516Y10407D01*
X11513Y10404D01*
X11502Y10393D01*
X11487Y10382D01*
X11469Y10367D01*
X11447Y10353D01*
X11418Y10335D01*
X11389Y10313D01*
X11352Y10294D01*
X11312Y10276D01*
X11269Y10255D01*
X11221Y10236D01*
X11167Y10222D01*
X11112Y10204D01*
X11050Y10193D01*
X10985Y10182D01*
X10992Y10178D01*
X11007Y10171D01*
X11028Y10156D01*
X11057Y10142D01*
X11123Y10102D01*
X11156Y10076D01*
X11185Y10054D01*
X11192Y10047D01*
X11210Y10029D01*
X11240Y10000D01*
X11276Y9963D01*
X11316Y9912D01*
X11363Y9858D01*
X11411Y9792D01*
X11462Y9719D01*
X11895Y9035D01*
X11480D01*
X11148Y9559D01*
Y9563D01*
X11141Y9570D01*
X11134Y9581D01*
X11123Y9596D01*
X11098Y9636D01*
X11065Y9687D01*
X11025Y9741D01*
X10985Y9799D01*
X10945Y9854D01*
X10908Y9905D01*
X10905Y9909D01*
X10894Y9923D01*
X10875Y9945D01*
X10850Y9971D01*
X10796Y10025D01*
X10766Y10051D01*
X10737Y10073D01*
X10734Y10076D01*
X10726Y10080D01*
X10712Y10087D01*
X10690Y10098D01*
X10668Y10109D01*
X10643Y10120D01*
X10584Y10138D01*
X10581D01*
X10573Y10142D01*
X10559D01*
X10541Y10145D01*
X10515Y10149D01*
X10486D01*
X10446Y10153D01*
X10017D01*
Y9035D01*
X9682D01*
Y11554D01*
X10850D01*
X10879Y11550D01*
D02*
G37*
G36*
X5787Y8491D02*
X5478D01*
Y10460D01*
X5474Y10457D01*
X5456Y10442D01*
X5434Y10420D01*
X5398Y10395D01*
X5358Y10362D01*
X5307Y10326D01*
X5249Y10286D01*
X5183Y10246D01*
X5179D01*
X5176Y10242D01*
X5154Y10227D01*
X5117Y10209D01*
X5074Y10187D01*
X5023Y10162D01*
X4968Y10136D01*
X4914Y10111D01*
X4859Y10089D01*
Y10387D01*
X4863D01*
X4870Y10395D01*
X4885Y10398D01*
X4903Y10409D01*
X4925Y10420D01*
X4950Y10435D01*
X5012Y10471D01*
X5085Y10511D01*
X5158Y10562D01*
X5234Y10621D01*
X5310Y10682D01*
X5314Y10686D01*
X5318Y10690D01*
X5329Y10701D01*
X5343Y10712D01*
X5376Y10748D01*
X5420Y10792D01*
X5463Y10842D01*
X5511Y10901D01*
X5551Y10959D01*
X5587Y11021D01*
X5787D01*
Y8491D01*
D02*
G37*
G36*
X3410Y11006D02*
X3443D01*
X3520Y11003D01*
X3600Y10992D01*
X3687Y10981D01*
X3767Y10963D01*
X3807Y10952D01*
X3840Y10941D01*
X3844D01*
X3847Y10937D01*
X3869Y10926D01*
X3902Y10912D01*
X3942Y10886D01*
X3985Y10853D01*
X4033Y10810D01*
X4076Y10759D01*
X4120Y10701D01*
Y10697D01*
X4124Y10693D01*
X4138Y10672D01*
X4153Y10635D01*
X4175Y10588D01*
X4193Y10533D01*
X4211Y10468D01*
X4222Y10398D01*
X4226Y10322D01*
Y10318D01*
Y10311D01*
Y10296D01*
X4222Y10278D01*
Y10253D01*
X4218Y10227D01*
X4204Y10165D01*
X4182Y10093D01*
X4153Y10016D01*
X4109Y9940D01*
X4080Y9903D01*
X4051Y9867D01*
X4047Y9863D01*
X4044Y9860D01*
X4033Y9849D01*
X4018Y9838D01*
X4000Y9823D01*
X3978Y9809D01*
X3949Y9791D01*
X3920Y9769D01*
X3884Y9751D01*
X3844Y9732D01*
X3800Y9710D01*
X3752Y9692D01*
X3698Y9678D01*
X3643Y9659D01*
X3581Y9649D01*
X3516Y9638D01*
X3523Y9634D01*
X3538Y9627D01*
X3560Y9612D01*
X3589Y9598D01*
X3654Y9558D01*
X3687Y9532D01*
X3716Y9510D01*
X3723Y9503D01*
X3742Y9485D01*
X3771Y9456D01*
X3807Y9419D01*
X3847Y9368D01*
X3894Y9314D01*
X3942Y9248D01*
X3993Y9175D01*
X4426Y8491D01*
X4011D01*
X3680Y9015D01*
Y9019D01*
X3672Y9026D01*
X3665Y9037D01*
X3654Y9052D01*
X3629Y9092D01*
X3596Y9143D01*
X3556Y9197D01*
X3516Y9256D01*
X3476Y9310D01*
X3439Y9361D01*
X3436Y9365D01*
X3425Y9379D01*
X3407Y9401D01*
X3381Y9427D01*
X3327Y9481D01*
X3297Y9507D01*
X3268Y9528D01*
X3265Y9532D01*
X3257Y9536D01*
X3243Y9543D01*
X3221Y9554D01*
X3199Y9565D01*
X3174Y9576D01*
X3115Y9594D01*
X3112D01*
X3105Y9598D01*
X3090D01*
X3072Y9601D01*
X3046Y9605D01*
X3017D01*
X2977Y9609D01*
X2548D01*
Y8491D01*
X2213D01*
Y11010D01*
X3381D01*
X3410Y11006D01*
D02*
G37*
%LPC*%
G36*
X15742Y5243D02*
X15714D01*
X15696Y5238D01*
X15645Y5229D01*
X15585Y5215D01*
X15515Y5187D01*
X15441Y5146D01*
X15404Y5118D01*
X15367Y5091D01*
X15335Y5054D01*
X15303Y5012D01*
Y5007D01*
X15293Y4998D01*
X15284Y4980D01*
X15270Y4956D01*
X15257Y4919D01*
X15238Y4878D01*
X15224Y4827D01*
X15206Y4767D01*
X15187Y4698D01*
X15169Y4619D01*
X15150Y4532D01*
X15136Y4434D01*
X15123Y4324D01*
X15113Y4203D01*
X15109Y4074D01*
X15104Y3931D01*
Y3922D01*
Y3898D01*
Y3857D01*
X15109Y3802D01*
Y3741D01*
X15113Y3667D01*
X15118Y3589D01*
X15127Y3506D01*
X15150Y3326D01*
X15164Y3238D01*
X15183Y3155D01*
X15201Y3076D01*
X15229Y3002D01*
X15257Y2938D01*
X15289Y2882D01*
Y2877D01*
X15298Y2873D01*
X15321Y2840D01*
X15363Y2799D01*
X15414Y2753D01*
X15483Y2707D01*
X15562Y2665D01*
X15649Y2633D01*
X15696Y2628D01*
X15746Y2623D01*
X15774D01*
X15792Y2628D01*
X15839Y2637D01*
X15903Y2656D01*
X15973Y2688D01*
X16051Y2734D01*
X16088Y2762D01*
X16125Y2799D01*
X16162Y2836D01*
X16199Y2882D01*
Y2887D01*
X16208Y2896D01*
X16217Y2910D01*
X16227Y2933D01*
X16245Y2965D01*
X16259Y3007D01*
X16278Y3053D01*
X16296Y3108D01*
X16310Y3178D01*
X16328Y3252D01*
X16347Y3339D01*
X16361Y3432D01*
X16370Y3543D01*
X16379Y3658D01*
X16388Y3788D01*
Y3931D01*
Y3935D01*
Y3940D01*
Y3963D01*
Y4005D01*
X16384Y4060D01*
Y4120D01*
X16379Y4194D01*
X16375Y4273D01*
X16365Y4360D01*
X16342Y4536D01*
X16328Y4624D01*
X16310Y4707D01*
X16291Y4786D01*
X16264Y4860D01*
X16236Y4924D01*
X16204Y4980D01*
Y4984D01*
X16194Y4989D01*
X16185Y5003D01*
X16171Y5021D01*
X16130Y5063D01*
X16079Y5114D01*
X16010Y5160D01*
X15931Y5201D01*
X15890Y5220D01*
X15843Y5234D01*
X15792Y5238D01*
X15742Y5243D01*
D02*
G37*
G36*
X19919Y30301D02*
X19227Y30039D01*
X19224D01*
X19213Y30035D01*
X19195Y30028D01*
X19173Y30021D01*
X19147Y30010D01*
X19115Y29999D01*
X19078Y29988D01*
X19042Y29973D01*
X18958Y29944D01*
X18871Y29915D01*
X18783Y29886D01*
X18699Y29860D01*
X18703D01*
X18710Y29857D01*
X18725D01*
X18740Y29849D01*
X18765Y29846D01*
X18790Y29839D01*
X18852Y29824D01*
X18925Y29806D01*
X19005Y29780D01*
X19093Y29755D01*
X19184Y29722D01*
X19919Y29449D01*
Y30301D01*
D02*
G37*
G36*
X19679Y28201D02*
X19675D01*
X19660D01*
X19642D01*
X19613Y28197D01*
X19580D01*
X19544Y28193D01*
X19500Y28190D01*
X19457Y28186D01*
X19358Y28168D01*
X19256Y28146D01*
X19162Y28113D01*
X19115Y28091D01*
X19074Y28069D01*
X19071D01*
X19063Y28062D01*
X19053Y28055D01*
X19038Y28048D01*
X19002Y28019D01*
X18958Y27982D01*
X18911Y27935D01*
X18863Y27880D01*
X18823Y27818D01*
X18790Y27753D01*
X18787Y27746D01*
X18783Y27727D01*
X18772Y27695D01*
X18761Y27647D01*
X18754Y27589D01*
X18743Y27516D01*
X18740Y27473D01*
Y27425D01*
X18736Y27378D01*
Y26796D01*
X20658D01*
Y27393D01*
X20654Y27418D01*
X20651Y27473D01*
X20647Y27534D01*
X20640Y27600D01*
X20629Y27665D01*
X20614Y27720D01*
X20610Y27727D01*
X20607Y27746D01*
X20596Y27771D01*
X20581Y27804D01*
X20560Y27840D01*
X20538Y27877D01*
X20512Y27913D01*
X20483Y27949D01*
X20476Y27953D01*
X20461Y27968D01*
X20436Y27989D01*
X20399Y28015D01*
X20352Y28044D01*
X20298Y28077D01*
X20236Y28106D01*
X20166Y28131D01*
X20163D01*
X20155Y28135D01*
X20145Y28139D01*
X20130Y28142D01*
X20112Y28146D01*
X20086Y28153D01*
X20061Y28161D01*
X20032Y28168D01*
X19959Y28179D01*
X19875Y28190D01*
X19781Y28197D01*
X19679Y28201D01*
D02*
G37*
G36*
X39179Y30605D02*
X39175D01*
X39160D01*
X39142D01*
X39113Y30602D01*
X39080D01*
X39044Y30598D01*
X39000Y30594D01*
X38957Y30591D01*
X38858Y30573D01*
X38756Y30551D01*
X38662Y30518D01*
X38614Y30496D01*
X38574Y30474D01*
X38571D01*
X38563Y30467D01*
X38553Y30460D01*
X38538Y30452D01*
X38502Y30423D01*
X38458Y30387D01*
X38411Y30340D01*
X38363Y30285D01*
X38323Y30223D01*
X38291Y30158D01*
X38287Y30150D01*
X38283Y30132D01*
X38272Y30099D01*
X38261Y30052D01*
X38254Y29994D01*
X38243Y29921D01*
X38240Y29877D01*
Y29830D01*
X38236Y29783D01*
Y29200D01*
X40158D01*
Y29797D01*
X40154Y29823D01*
X40151Y29877D01*
X40147Y29939D01*
X40140Y30005D01*
X40129Y30070D01*
X40114Y30125D01*
X40110Y30132D01*
X40107Y30150D01*
X40096Y30176D01*
X40081Y30209D01*
X40060Y30245D01*
X40038Y30281D01*
X40012Y30318D01*
X39983Y30354D01*
X39976Y30358D01*
X39961Y30372D01*
X39936Y30394D01*
X39899Y30420D01*
X39852Y30449D01*
X39797Y30481D01*
X39736Y30511D01*
X39666Y30536D01*
X39663D01*
X39656Y30540D01*
X39645Y30543D01*
X39630Y30547D01*
X39612Y30551D01*
X39586Y30558D01*
X39561Y30565D01*
X39532Y30573D01*
X39459Y30583D01*
X39375Y30594D01*
X39281Y30602D01*
X39179Y30605D01*
D02*
G37*
G36*
X35269Y62938D02*
X35241D01*
X35219Y62933D01*
X35158Y62927D01*
X35086Y62905D01*
X35003Y62877D01*
X34914Y62827D01*
X34825Y62766D01*
X34781Y62722D01*
X34742Y62678D01*
Y62672D01*
X34731Y62666D01*
X34725Y62650D01*
X34709Y62628D01*
X34692Y62600D01*
X34675Y62567D01*
X34659Y62528D01*
X34637Y62483D01*
X34614Y62428D01*
X34598Y62367D01*
X34581Y62300D01*
X34564Y62228D01*
X34553Y62150D01*
X34542Y62062D01*
X34531Y61967D01*
Y61867D01*
Y61862D01*
Y61845D01*
Y61817D01*
X34537Y61778D01*
Y61734D01*
X34542Y61684D01*
X34559Y61567D01*
X34587Y61440D01*
X34625Y61307D01*
X34681Y61179D01*
X34714Y61124D01*
X34753Y61068D01*
X34759D01*
X34764Y61057D01*
X34792Y61029D01*
X34842Y60985D01*
X34903Y60940D01*
X34981Y60890D01*
X35075Y60846D01*
X35175Y60818D01*
X35230Y60813D01*
X35286Y60807D01*
X35314D01*
X35336Y60813D01*
X35397Y60818D01*
X35469Y60840D01*
X35552Y60868D01*
X35641Y60913D01*
X35730Y60974D01*
X35774Y61013D01*
X35813Y61057D01*
Y61063D01*
X35824Y61068D01*
X35835Y61085D01*
X35846Y61107D01*
X35863Y61135D01*
X35885Y61162D01*
X35902Y61207D01*
X35924Y61251D01*
X35946Y61301D01*
X35963Y61357D01*
X35985Y61423D01*
X36002Y61490D01*
X36013Y61567D01*
X36024Y61645D01*
X36035Y61734D01*
Y61828D01*
Y61834D01*
Y61856D01*
Y61884D01*
X36029Y61923D01*
Y61967D01*
X36024Y62023D01*
X36018Y62084D01*
X36007Y62150D01*
X35980Y62283D01*
X35941Y62422D01*
X35885Y62555D01*
X35852Y62611D01*
X35813Y62666D01*
Y62672D01*
X35802Y62678D01*
X35774Y62711D01*
X35724Y62755D01*
X35663Y62805D01*
X35585Y62855D01*
X35491Y62894D01*
X35386Y62927D01*
X35330Y62933D01*
X35269Y62938D01*
D02*
G37*
G36*
X33021Y61878D02*
X33016D01*
X33010Y61873D01*
X32994Y61867D01*
X32972Y61862D01*
X32944Y61851D01*
X32910Y61839D01*
X32872Y61828D01*
X32827Y61817D01*
X32777Y61801D01*
X32716Y61790D01*
X32655Y61773D01*
X32583Y61756D01*
X32505Y61739D01*
X32428Y61723D01*
X32339Y61712D01*
X32244Y61695D01*
X32233D01*
X32200Y61690D01*
X32144Y61678D01*
X32083Y61667D01*
X32017Y61656D01*
X31950Y61640D01*
X31889Y61623D01*
X31834Y61601D01*
X31828D01*
X31811Y61590D01*
X31789Y61579D01*
X31767Y61562D01*
X31701Y61518D01*
X31645Y61451D01*
Y61445D01*
X31634Y61434D01*
X31628Y61412D01*
X31617Y61384D01*
X31606Y61351D01*
X31595Y61318D01*
X31589Y61273D01*
X31584Y61229D01*
Y61223D01*
Y61196D01*
X31589Y61162D01*
X31601Y61118D01*
X31617Y61068D01*
X31645Y61018D01*
X31678Y60962D01*
X31723Y60913D01*
X31728Y60907D01*
X31751Y60896D01*
X31784Y60874D01*
X31828Y60852D01*
X31889Y60829D01*
X31961Y60807D01*
X32045Y60796D01*
X32144Y60790D01*
X32189D01*
X32244Y60796D01*
X32305Y60807D01*
X32383Y60818D01*
X32461Y60840D01*
X32544Y60868D01*
X32627Y60907D01*
X32638Y60913D01*
X32661Y60929D01*
X32699Y60957D01*
X32744Y60996D01*
X32794Y61040D01*
X32849Y61096D01*
X32894Y61162D01*
X32938Y61234D01*
X32944Y61240D01*
X32949Y61262D01*
X32960Y61301D01*
X32977Y61351D01*
X32994Y61418D01*
X33005Y61495D01*
X33010Y61590D01*
X33016Y61701D01*
X33021Y61878D01*
D02*
G37*
G36*
X38355Y62938D02*
X38322D01*
X38300Y62933D01*
X38238Y62927D01*
X38166Y62911D01*
X38078Y62883D01*
X37983Y62844D01*
X37894Y62788D01*
X37806Y62716D01*
X37794Y62705D01*
X37772Y62678D01*
X37733Y62628D01*
X37694Y62561D01*
X37650Y62483D01*
X37611Y62383D01*
X37578Y62267D01*
X37561Y62139D01*
X39121D01*
Y62145D01*
Y62156D01*
X39115Y62173D01*
Y62195D01*
X39104Y62261D01*
X39088Y62333D01*
X39060Y62422D01*
X39032Y62505D01*
X38988Y62589D01*
X38938Y62661D01*
Y62666D01*
X38927Y62672D01*
X38899Y62705D01*
X38849Y62750D01*
X38782Y62800D01*
X38699Y62849D01*
X38599Y62894D01*
X38483Y62927D01*
X38422Y62933D01*
X38355Y62938D01*
D02*
G37*
G36*
X29397D02*
X29364D01*
X29342Y62933D01*
X29281Y62927D01*
X29209Y62911D01*
X29120Y62883D01*
X29025Y62844D01*
X28937Y62788D01*
X28848Y62716D01*
X28837Y62705D01*
X28815Y62678D01*
X28776Y62628D01*
X28737Y62561D01*
X28692Y62483D01*
X28654Y62383D01*
X28620Y62267D01*
X28604Y62139D01*
X30163D01*
Y62145D01*
Y62156D01*
X30158Y62173D01*
Y62195D01*
X30147Y62261D01*
X30130Y62333D01*
X30102Y62422D01*
X30074Y62505D01*
X30030Y62589D01*
X29980Y62661D01*
Y62666D01*
X29969Y62672D01*
X29941Y62705D01*
X29891Y62750D01*
X29825Y62800D01*
X29741Y62849D01*
X29642Y62894D01*
X29525Y62927D01*
X29464Y62933D01*
X29397Y62938D01*
D02*
G37*
G36*
X21933D02*
X21899D01*
X21877Y62933D01*
X21816Y62927D01*
X21744Y62911D01*
X21655Y62883D01*
X21561Y62844D01*
X21472Y62788D01*
X21383Y62716D01*
X21372Y62705D01*
X21350Y62678D01*
X21311Y62628D01*
X21272Y62561D01*
X21228Y62483D01*
X21189Y62383D01*
X21156Y62267D01*
X21139Y62139D01*
X22698D01*
Y62145D01*
Y62156D01*
X22693Y62173D01*
Y62195D01*
X22682Y62261D01*
X22665Y62333D01*
X22637Y62422D01*
X22610Y62505D01*
X22565Y62589D01*
X22515Y62661D01*
Y62666D01*
X22504Y62672D01*
X22476Y62705D01*
X22426Y62750D01*
X22360Y62800D01*
X22277Y62849D01*
X22177Y62894D01*
X22060Y62927D01*
X21999Y62933D01*
X21933Y62938D01*
D02*
G37*
G36*
X16244D02*
X16210D01*
X16183Y62933D01*
X16122Y62927D01*
X16038Y62905D01*
X15944Y62872D01*
X15844Y62827D01*
X15750Y62761D01*
X15700Y62716D01*
X15655Y62672D01*
Y62666D01*
X15644Y62661D01*
X15633Y62644D01*
X15617Y62622D01*
X15600Y62594D01*
X15583Y62561D01*
X15561Y62516D01*
X15539Y62472D01*
X15517Y62417D01*
X15495Y62361D01*
X15478Y62295D01*
X15461Y62222D01*
X15445Y62145D01*
X15434Y62062D01*
X15428Y61967D01*
X15422Y61873D01*
Y61867D01*
Y61851D01*
Y61823D01*
X15428Y61784D01*
Y61739D01*
X15434Y61690D01*
X15450Y61573D01*
X15478Y61440D01*
X15522Y61307D01*
X15578Y61179D01*
X15617Y61124D01*
X15655Y61068D01*
X15661D01*
X15667Y61057D01*
X15700Y61029D01*
X15750Y60985D01*
X15816Y60940D01*
X15900Y60890D01*
X16000Y60846D01*
X16116Y60818D01*
X16177Y60813D01*
X16244Y60807D01*
X16277D01*
X16305Y60813D01*
X16366Y60824D01*
X16449Y60840D01*
X16538Y60874D01*
X16638Y60918D01*
X16732Y60985D01*
X16782Y61029D01*
X16826Y61074D01*
X16832Y61079D01*
X16838Y61085D01*
X16849Y61101D01*
X16865Y61124D01*
X16882Y61151D01*
X16904Y61185D01*
X16926Y61229D01*
X16949Y61273D01*
X16971Y61329D01*
X16987Y61390D01*
X17010Y61457D01*
X17026Y61529D01*
X17043Y61612D01*
X17054Y61695D01*
X17065Y61790D01*
Y61889D01*
Y61895D01*
Y61912D01*
Y61939D01*
X17060Y61973D01*
Y62017D01*
X17054Y62067D01*
X17037Y62184D01*
X17010Y62306D01*
X16965Y62439D01*
X16904Y62561D01*
X16871Y62622D01*
X16826Y62672D01*
Y62678D01*
X16815Y62683D01*
X16782Y62716D01*
X16732Y62755D01*
X16666Y62805D01*
X16582Y62855D01*
X16482Y62900D01*
X16371Y62927D01*
X16310Y62933D01*
X16244Y62938D01*
D02*
G37*
G36*
X13258D02*
X13225D01*
X13197Y62933D01*
X13136Y62927D01*
X13052Y62905D01*
X12958Y62872D01*
X12858Y62827D01*
X12764Y62761D01*
X12714Y62716D01*
X12670Y62672D01*
Y62666D01*
X12659Y62661D01*
X12647Y62644D01*
X12631Y62622D01*
X12614Y62594D01*
X12597Y62561D01*
X12575Y62516D01*
X12553Y62472D01*
X12531Y62417D01*
X12509Y62361D01*
X12492Y62295D01*
X12475Y62222D01*
X12459Y62145D01*
X12448Y62062D01*
X12442Y61967D01*
X12437Y61873D01*
Y61867D01*
Y61851D01*
Y61823D01*
X12442Y61784D01*
Y61739D01*
X12448Y61690D01*
X12464Y61573D01*
X12492Y61440D01*
X12536Y61307D01*
X12592Y61179D01*
X12631Y61124D01*
X12670Y61068D01*
X12675D01*
X12681Y61057D01*
X12714Y61029D01*
X12764Y60985D01*
X12831Y60940D01*
X12914Y60890D01*
X13014Y60846D01*
X13130Y60818D01*
X13191Y60813D01*
X13258Y60807D01*
X13291D01*
X13319Y60813D01*
X13380Y60824D01*
X13463Y60840D01*
X13552Y60874D01*
X13652Y60918D01*
X13746Y60985D01*
X13796Y61029D01*
X13841Y61074D01*
X13846Y61079D01*
X13852Y61085D01*
X13863Y61101D01*
X13880Y61124D01*
X13896Y61151D01*
X13918Y61185D01*
X13940Y61229D01*
X13963Y61273D01*
X13985Y61329D01*
X14002Y61390D01*
X14024Y61457D01*
X14040Y61529D01*
X14057Y61612D01*
X14068Y61695D01*
X14079Y61790D01*
Y61889D01*
Y61895D01*
Y61912D01*
Y61939D01*
X14074Y61973D01*
Y62017D01*
X14068Y62067D01*
X14051Y62184D01*
X14024Y62306D01*
X13979Y62439D01*
X13918Y62561D01*
X13885Y62622D01*
X13841Y62672D01*
Y62678D01*
X13829Y62683D01*
X13796Y62716D01*
X13746Y62755D01*
X13680Y62805D01*
X13596Y62855D01*
X13497Y62900D01*
X13386Y62927D01*
X13325Y62933D01*
X13258Y62938D01*
D02*
G37*
G36*
X37174Y10910D02*
X36381Y9781D01*
X37174D01*
Y10910D01*
D02*
G37*
G36*
X34903Y11132D02*
X34109D01*
Y10298D01*
X34859D01*
X34903Y10302D01*
X34954Y10306D01*
X35012Y10309D01*
X35070Y10317D01*
X35128Y10328D01*
X35179Y10342D01*
X35187Y10346D01*
X35201Y10353D01*
X35223Y10364D01*
X35252Y10379D01*
X35285Y10400D01*
X35318Y10426D01*
X35350Y10459D01*
X35376Y10495D01*
X35380Y10499D01*
X35387Y10513D01*
X35398Y10535D01*
X35412Y10564D01*
X35423Y10597D01*
X35434Y10633D01*
X35441Y10677D01*
X35445Y10721D01*
Y10724D01*
Y10728D01*
X35441Y10750D01*
X35438Y10783D01*
X35430Y10826D01*
X35412Y10870D01*
X35390Y10921D01*
X35358Y10968D01*
X35314Y11016D01*
X35307Y11019D01*
X35289Y11034D01*
X35260Y11052D01*
X35212Y11074D01*
X35157Y11096D01*
X35085Y11114D01*
X35001Y11128D01*
X34903Y11132D01*
D02*
G37*
G36*
X30503Y21251D02*
X29709D01*
Y20418D01*
X30459D01*
X30503Y20422D01*
X30554Y20425D01*
X30612Y20429D01*
X30670Y20436D01*
X30729Y20447D01*
X30779Y20462D01*
X30787Y20465D01*
X30801Y20473D01*
X30823Y20483D01*
X30852Y20498D01*
X30885Y20520D01*
X30918Y20545D01*
X30951Y20578D01*
X30976Y20615D01*
X30980Y20618D01*
X30987Y20633D01*
X30998Y20655D01*
X31012Y20684D01*
X31023Y20717D01*
X31034Y20753D01*
X31042Y20797D01*
X31045Y20840D01*
Y20844D01*
Y20847D01*
X31042Y20869D01*
X31038Y20902D01*
X31031Y20946D01*
X31012Y20989D01*
X30991Y21040D01*
X30958Y21088D01*
X30914Y21135D01*
X30907Y21139D01*
X30889Y21153D01*
X30860Y21171D01*
X30812Y21193D01*
X30758Y21215D01*
X30685Y21233D01*
X30601Y21248D01*
X30503Y21251D01*
D02*
G37*
G36*
X10810Y11274D02*
X10017D01*
Y10440D01*
X10766D01*
X10810Y10444D01*
X10861Y10447D01*
X10919Y10451D01*
X10977Y10458D01*
X11036Y10469D01*
X11087Y10484D01*
X11094Y10487D01*
X11108Y10495D01*
X11130Y10506D01*
X11159Y10520D01*
X11192Y10542D01*
X11225Y10567D01*
X11258Y10600D01*
X11283Y10637D01*
X11287Y10640D01*
X11294Y10655D01*
X11305Y10677D01*
X11320Y10706D01*
X11331Y10739D01*
X11342Y10775D01*
X11349Y10819D01*
X11352Y10862D01*
Y10866D01*
Y10870D01*
X11349Y10892D01*
X11345Y10924D01*
X11338Y10968D01*
X11320Y11012D01*
X11298Y11063D01*
X11265Y11110D01*
X11221Y11157D01*
X11214Y11161D01*
X11196Y11175D01*
X11167Y11194D01*
X11119Y11215D01*
X11065Y11237D01*
X10992Y11255D01*
X10908Y11270D01*
X10810Y11274D01*
D02*
G37*
G36*
X3341Y10730D02*
X2548D01*
Y9896D01*
X3297D01*
X3341Y9900D01*
X3392Y9903D01*
X3450Y9907D01*
X3509Y9914D01*
X3567Y9925D01*
X3618Y9940D01*
X3625Y9944D01*
X3640Y9951D01*
X3661Y9962D01*
X3691Y9976D01*
X3723Y9998D01*
X3756Y10024D01*
X3789Y10056D01*
X3814Y10093D01*
X3818Y10096D01*
X3825Y10111D01*
X3836Y10133D01*
X3851Y10162D01*
X3862Y10195D01*
X3873Y10231D01*
X3880Y10275D01*
X3884Y10318D01*
Y10322D01*
Y10326D01*
X3880Y10347D01*
X3876Y10380D01*
X3869Y10424D01*
X3851Y10468D01*
X3829Y10519D01*
X3796Y10566D01*
X3752Y10613D01*
X3745Y10617D01*
X3727Y10631D01*
X3698Y10650D01*
X3651Y10672D01*
X3596Y10693D01*
X3523Y10712D01*
X3439Y10726D01*
X3341Y10730D01*
D02*
G37*
%LPD*%
D10*
X45594Y54200D02*
G03*
X45594Y54200I-394J0D01*
G01*
X16252Y14240D02*
G03*
X16252Y14240I-394J0D01*
G01*
X23165Y21634D02*
X24740D01*
X23165Y18878D02*
X24740D01*
X44000Y32500D02*
Y42500D01*
X4000Y32500D02*
X44000D01*
X4000Y42500D02*
X44000D01*
X4000Y32500D02*
Y42500D01*
X34422Y15913D02*
Y17487D01*
X37178Y15913D02*
Y17487D01*
X3122Y16469D02*
Y18043D01*
X5878Y16469D02*
Y18043D01*
X10122Y16469D02*
Y18043D01*
X12878Y16469D02*
Y18043D01*
D11*
X4104Y45635D02*
X43474D01*
X4104D02*
Y65714D01*
X43474D01*
Y45635D02*
Y65714D01*
D12*
X19205Y5382D02*
X29047D01*
X19205Y15224D02*
X29047D01*
X19205Y14929D02*
Y15224D01*
X29047Y14929D02*
Y15224D01*
Y5382D02*
Y5677D01*
X19205Y5382D02*
Y5677D01*
M02*
