G04*
G04 #@! TF.GenerationSoftware,Altium Limited,Altium Designer,25.0.2 (28)*
G04*
G04 Layer_Color=8388736*
%FSLAX25Y25*%
%MOIN*%
G70*
G04*
G04 #@! TF.SameCoordinates,061776E8-EAF2-49E9-AD8A-D8C15C8D69D4*
G04*
G04*
G04 #@! TF.FilePolarity,Negative*
G04*
G01*
G75*
%ADD18R,0.03556X0.04343*%
%ADD19R,0.04343X0.03950*%
%ADD20R,0.04343X0.03556*%
%ADD21R,0.05950X0.05950*%
%ADD22C,0.05950*%
%ADD23C,0.06706*%
%ADD24R,0.06706X0.06706*%
G36*
X20593Y8039D02*
X20603Y8038D01*
X20614Y8037D01*
X20624Y8035D01*
X20634Y8033D01*
X20643Y8030D01*
X20653Y8026D01*
X20663Y8022D01*
X20672Y8018D01*
X20681Y8013D01*
X20690Y8008D01*
X20698Y8002D01*
X20707Y7995D01*
X20714Y7989D01*
X20722Y7982D01*
X20729Y7974D01*
X20736Y7966D01*
X20742Y7958D01*
X20748Y7950D01*
X20753Y7941D01*
X20758Y7932D01*
X20763Y7923D01*
X20766Y7913D01*
X20770Y7903D01*
X20773Y7893D01*
X20775Y7884D01*
X20777Y7873D01*
X20778Y7863D01*
X20779Y7853D01*
X20779Y7842D01*
Y6858D01*
X20779Y6848D01*
X20778Y6838D01*
X20777Y6827D01*
X20775Y6817D01*
X20773Y6807D01*
X20770Y6797D01*
X20766Y6788D01*
X20763Y6778D01*
X20758Y6769D01*
X20753Y6760D01*
X20748Y6751D01*
X20742Y6743D01*
X20736Y6734D01*
X20729Y6727D01*
X20722Y6719D01*
X20714Y6712D01*
X20707Y6705D01*
X20698Y6699D01*
X20690Y6693D01*
X20681Y6688D01*
X20672Y6683D01*
X20663Y6678D01*
X20653Y6674D01*
X20643Y6671D01*
X20634Y6668D01*
X20624Y6666D01*
X20614Y6664D01*
X20603Y6662D01*
X20593Y6662D01*
X20583Y6661D01*
X18417D01*
X18407Y6662D01*
X18397Y6662D01*
X18386Y6664D01*
X18376Y6666D01*
X18366Y6668D01*
X18357Y6671D01*
X18347Y6674D01*
X18337Y6678D01*
X18328Y6683D01*
X18319Y6688D01*
X18310Y6693D01*
X18302Y6699D01*
X18293Y6705D01*
X18286Y6712D01*
X18278Y6719D01*
X18271Y6727D01*
X18264Y6734D01*
X18258Y6743D01*
X18252Y6751D01*
X18247Y6760D01*
X18242Y6769D01*
X18237Y6778D01*
X18234Y6788D01*
X18230Y6797D01*
X18227Y6807D01*
X18225Y6817D01*
X18223Y6827D01*
X18222Y6838D01*
X18221Y6848D01*
X18221Y6858D01*
Y7842D01*
X18221Y7853D01*
X18222Y7863D01*
X18223Y7873D01*
X18225Y7884D01*
X18227Y7893D01*
X18230Y7903D01*
X18234Y7913D01*
X18237Y7923D01*
X18242Y7932D01*
X18247Y7941D01*
X18252Y7950D01*
X18258Y7958D01*
X18264Y7966D01*
X18271Y7974D01*
X18278Y7982D01*
X18286Y7989D01*
X18293Y7995D01*
X18302Y8002D01*
X18310Y8008D01*
X18319Y8013D01*
X18328Y8018D01*
X18337Y8022D01*
X18347Y8026D01*
X18357Y8030D01*
X18366Y8033D01*
X18376Y8035D01*
X18386Y8037D01*
X18397Y8038D01*
X18407Y8039D01*
X18417Y8039D01*
X20583D01*
X20593Y8039D01*
D02*
G37*
G36*
Y10008D02*
X20603Y10007D01*
X20614Y10006D01*
X20624Y10004D01*
X20634Y10001D01*
X20643Y9998D01*
X20653Y9995D01*
X20663Y9991D01*
X20672Y9986D01*
X20681Y9982D01*
X20690Y9976D01*
X20698Y9970D01*
X20707Y9964D01*
X20714Y9957D01*
X20722Y9950D01*
X20729Y9943D01*
X20736Y9935D01*
X20742Y9927D01*
X20748Y9918D01*
X20753Y9909D01*
X20758Y9900D01*
X20763Y9891D01*
X20766Y9882D01*
X20770Y9872D01*
X20773Y9862D01*
X20775Y9852D01*
X20777Y9842D01*
X20778Y9832D01*
X20779Y9821D01*
X20779Y9811D01*
Y8827D01*
X20779Y8817D01*
X20778Y8806D01*
X20777Y8796D01*
X20775Y8786D01*
X20773Y8776D01*
X20770Y8766D01*
X20766Y8756D01*
X20763Y8747D01*
X20758Y8737D01*
X20753Y8728D01*
X20748Y8720D01*
X20742Y8711D01*
X20736Y8703D01*
X20729Y8695D01*
X20722Y8688D01*
X20714Y8681D01*
X20707Y8674D01*
X20698Y8668D01*
X20690Y8662D01*
X20681Y8656D01*
X20672Y8651D01*
X20663Y8647D01*
X20653Y8643D01*
X20643Y8640D01*
X20634Y8637D01*
X20624Y8634D01*
X20614Y8632D01*
X20603Y8631D01*
X20593Y8630D01*
X20583Y8630D01*
X18417D01*
X18407Y8630D01*
X18397Y8631D01*
X18386Y8632D01*
X18376Y8634D01*
X18366Y8637D01*
X18357Y8640D01*
X18347Y8643D01*
X18337Y8647D01*
X18328Y8651D01*
X18319Y8656D01*
X18310Y8662D01*
X18302Y8668D01*
X18293Y8674D01*
X18286Y8681D01*
X18278Y8688D01*
X18271Y8695D01*
X18264Y8703D01*
X18258Y8711D01*
X18252Y8720D01*
X18247Y8728D01*
X18242Y8737D01*
X18237Y8747D01*
X18234Y8756D01*
X18230Y8766D01*
X18227Y8776D01*
X18225Y8786D01*
X18223Y8796D01*
X18222Y8806D01*
X18221Y8817D01*
X18221Y8827D01*
Y9811D01*
X18221Y9821D01*
X18222Y9832D01*
X18223Y9842D01*
X18225Y9852D01*
X18227Y9862D01*
X18230Y9872D01*
X18234Y9882D01*
X18237Y9891D01*
X18242Y9900D01*
X18247Y9909D01*
X18252Y9918D01*
X18258Y9927D01*
X18264Y9935D01*
X18271Y9943D01*
X18278Y9950D01*
X18286Y9957D01*
X18293Y9964D01*
X18302Y9970D01*
X18310Y9976D01*
X18319Y9982D01*
X18328Y9986D01*
X18337Y9991D01*
X18347Y9995D01*
X18357Y9998D01*
X18366Y10001D01*
X18376Y10004D01*
X18386Y10006D01*
X18397Y10007D01*
X18407Y10008D01*
X18417Y10008D01*
X20583D01*
X20593Y10008D01*
D02*
G37*
G36*
Y11976D02*
X20603Y11975D01*
X20614Y11974D01*
X20624Y11972D01*
X20634Y11970D01*
X20643Y11967D01*
X20653Y11963D01*
X20663Y11959D01*
X20672Y11955D01*
X20681Y11950D01*
X20690Y11945D01*
X20698Y11939D01*
X20707Y11932D01*
X20714Y11926D01*
X20722Y11919D01*
X20729Y11911D01*
X20736Y11903D01*
X20742Y11895D01*
X20748Y11887D01*
X20753Y11878D01*
X20758Y11869D01*
X20763Y11860D01*
X20766Y11850D01*
X20770Y11840D01*
X20773Y11830D01*
X20775Y11821D01*
X20777Y11810D01*
X20778Y11800D01*
X20779Y11790D01*
X20779Y11779D01*
Y10795D01*
X20779Y10785D01*
X20778Y10775D01*
X20777Y10764D01*
X20775Y10754D01*
X20773Y10744D01*
X20770Y10734D01*
X20766Y10725D01*
X20763Y10715D01*
X20758Y10706D01*
X20753Y10697D01*
X20748Y10688D01*
X20742Y10680D01*
X20736Y10671D01*
X20729Y10664D01*
X20722Y10656D01*
X20714Y10649D01*
X20707Y10642D01*
X20698Y10636D01*
X20690Y10630D01*
X20681Y10625D01*
X20672Y10620D01*
X20663Y10615D01*
X20653Y10611D01*
X20643Y10608D01*
X20634Y10605D01*
X20624Y10603D01*
X20614Y10601D01*
X20603Y10599D01*
X20593Y10599D01*
X20583Y10598D01*
X18417D01*
X18407Y10599D01*
X18397Y10599D01*
X18386Y10601D01*
X18376Y10603D01*
X18366Y10605D01*
X18357Y10608D01*
X18347Y10611D01*
X18337Y10615D01*
X18328Y10620D01*
X18319Y10625D01*
X18310Y10630D01*
X18302Y10636D01*
X18293Y10642D01*
X18286Y10649D01*
X18278Y10656D01*
X18271Y10664D01*
X18264Y10671D01*
X18258Y10680D01*
X18252Y10688D01*
X18247Y10697D01*
X18242Y10706D01*
X18237Y10715D01*
X18234Y10725D01*
X18230Y10734D01*
X18227Y10744D01*
X18225Y10754D01*
X18223Y10764D01*
X18222Y10775D01*
X18221Y10785D01*
X18221Y10795D01*
Y11779D01*
X18221Y11790D01*
X18222Y11800D01*
X18223Y11810D01*
X18225Y11821D01*
X18227Y11830D01*
X18230Y11840D01*
X18234Y11850D01*
X18237Y11860D01*
X18242Y11869D01*
X18247Y11878D01*
X18252Y11887D01*
X18258Y11895D01*
X18264Y11903D01*
X18271Y11911D01*
X18278Y11919D01*
X18286Y11926D01*
X18293Y11932D01*
X18302Y11939D01*
X18310Y11945D01*
X18319Y11950D01*
X18328Y11955D01*
X18337Y11959D01*
X18347Y11963D01*
X18357Y11967D01*
X18366Y11970D01*
X18376Y11972D01*
X18386Y11974D01*
X18397Y11975D01*
X18407Y11976D01*
X18417Y11976D01*
X20583D01*
X20593Y11976D01*
D02*
G37*
G36*
X20406Y13944D02*
X20427Y13943D01*
X20447Y13940D01*
X20468Y13936D01*
X20488Y13931D01*
X20507Y13926D01*
X20527Y13919D01*
X20546Y13911D01*
X20565Y13902D01*
X20583Y13892D01*
X20600Y13881D01*
X20617Y13870D01*
X20634Y13857D01*
X20649Y13844D01*
X20664Y13830D01*
X20678Y13815D01*
X20692Y13799D01*
X20704Y13783D01*
X20716Y13766D01*
X20727Y13748D01*
X20737Y13730D01*
X20745Y13711D01*
X20753Y13692D01*
X20760Y13673D01*
X20766Y13653D01*
X20771Y13633D01*
X20775Y13613D01*
X20777Y13592D01*
X20779Y13572D01*
X20779Y13551D01*
Y12961D01*
X20779Y12940D01*
X20777Y12920D01*
X20775Y12899D01*
X20771Y12879D01*
X20766Y12859D01*
X20760Y12839D01*
X20753Y12820D01*
X20745Y12800D01*
X20737Y12782D01*
X20727Y12764D01*
X20716Y12746D01*
X20704Y12729D01*
X20692Y12713D01*
X20678Y12697D01*
X20664Y12682D01*
X20649Y12668D01*
X20634Y12655D01*
X20617Y12642D01*
X20600Y12630D01*
X20583Y12620D01*
X20565Y12610D01*
X20546Y12601D01*
X20527Y12593D01*
X20507Y12586D01*
X20488Y12580D01*
X20468Y12575D01*
X20447Y12572D01*
X20427Y12569D01*
X20406Y12567D01*
X20386Y12567D01*
X18614D01*
X18594Y12567D01*
X18573Y12569D01*
X18553Y12572D01*
X18532Y12575D01*
X18512Y12580D01*
X18493Y12586D01*
X18473Y12593D01*
X18454Y12601D01*
X18435Y12610D01*
X18417Y12620D01*
X18400Y12630D01*
X18383Y12642D01*
X18366Y12655D01*
X18351Y12668D01*
X18336Y12682D01*
X18322Y12697D01*
X18308Y12713D01*
X18296Y12729D01*
X18284Y12746D01*
X18273Y12764D01*
X18263Y12782D01*
X18255Y12800D01*
X18247Y12820D01*
X18240Y12839D01*
X18234Y12859D01*
X18229Y12879D01*
X18225Y12899D01*
X18223Y12920D01*
X18221Y12940D01*
X18221Y12961D01*
Y13551D01*
X18221Y13572D01*
X18223Y13592D01*
X18225Y13613D01*
X18229Y13633D01*
X18234Y13653D01*
X18240Y13673D01*
X18247Y13692D01*
X18255Y13711D01*
X18263Y13730D01*
X18273Y13748D01*
X18284Y13766D01*
X18296Y13783D01*
X18308Y13799D01*
X18322Y13815D01*
X18336Y13830D01*
X18351Y13844D01*
X18366Y13857D01*
X18383Y13870D01*
X18400Y13881D01*
X18417Y13892D01*
X18435Y13902D01*
X18454Y13911D01*
X18473Y13919D01*
X18493Y13926D01*
X18512Y13931D01*
X18532Y13936D01*
X18553Y13940D01*
X18573Y13943D01*
X18594Y13944D01*
X18614Y13945D01*
X20386D01*
X20406Y13944D01*
D02*
G37*
G36*
X29845Y13945D02*
X29855Y13944D01*
X29865Y13942D01*
X29876Y13941D01*
X29886Y13938D01*
X29895Y13935D01*
X29905Y13932D01*
X29915Y13928D01*
X29924Y13923D01*
X29933Y13918D01*
X29942Y13913D01*
X29950Y13907D01*
X29959Y13901D01*
X29966Y13894D01*
X29974Y13887D01*
X29981Y13880D01*
X29988Y13872D01*
X29994Y13864D01*
X30000Y13855D01*
X30005Y13847D01*
X30010Y13837D01*
X30015Y13828D01*
X30018Y13819D01*
X30022Y13809D01*
X30025Y13799D01*
X30027Y13789D01*
X30029Y13779D01*
X30030Y13769D01*
X30031Y13758D01*
X30031Y13748D01*
Y12764D01*
X30031Y12754D01*
X30030Y12743D01*
X30029Y12733D01*
X30027Y12723D01*
X30025Y12713D01*
X30022Y12703D01*
X30018Y12693D01*
X30015Y12684D01*
X30010Y12674D01*
X30005Y12665D01*
X30000Y12657D01*
X29994Y12648D01*
X29988Y12640D01*
X29981Y12632D01*
X29974Y12625D01*
X29966Y12618D01*
X29959Y12611D01*
X29950Y12605D01*
X29942Y12599D01*
X29933Y12593D01*
X29924Y12588D01*
X29915Y12584D01*
X29905Y12580D01*
X29895Y12577D01*
X29886Y12574D01*
X29876Y12571D01*
X29865Y12569D01*
X29855Y12568D01*
X29845Y12567D01*
X29835Y12567D01*
X27669D01*
X27659Y12567D01*
X27649Y12568D01*
X27639Y12569D01*
X27628Y12571D01*
X27618Y12574D01*
X27608Y12577D01*
X27599Y12580D01*
X27589Y12584D01*
X27580Y12588D01*
X27571Y12593D01*
X27562Y12599D01*
X27554Y12605D01*
X27545Y12611D01*
X27538Y12618D01*
X27530Y12625D01*
X27523Y12632D01*
X27516Y12640D01*
X27510Y12648D01*
X27504Y12657D01*
X27499Y12665D01*
X27494Y12674D01*
X27490Y12684D01*
X27485Y12693D01*
X27482Y12703D01*
X27479Y12713D01*
X27477Y12723D01*
X27475Y12733D01*
X27474Y12743D01*
X27473Y12754D01*
X27472Y12764D01*
Y13748D01*
X27473Y13758D01*
X27474Y13769D01*
X27475Y13779D01*
X27477Y13789D01*
X27479Y13799D01*
X27482Y13809D01*
X27485Y13819D01*
X27490Y13828D01*
X27494Y13837D01*
X27499Y13847D01*
X27504Y13855D01*
X27510Y13864D01*
X27516Y13872D01*
X27523Y13880D01*
X27530Y13887D01*
X27538Y13894D01*
X27545Y13901D01*
X27554Y13907D01*
X27562Y13913D01*
X27571Y13918D01*
X27580Y13923D01*
X27589Y13928D01*
X27599Y13932D01*
X27608Y13935D01*
X27618Y13938D01*
X27628Y13941D01*
X27639Y13942D01*
X27649Y13944D01*
X27659Y13945D01*
X27669Y13945D01*
X29835D01*
X29845Y13945D01*
D02*
G37*
G36*
Y11976D02*
X29855Y11975D01*
X29865Y11974D01*
X29876Y11972D01*
X29886Y11970D01*
X29895Y11967D01*
X29905Y11963D01*
X29915Y11959D01*
X29924Y11955D01*
X29933Y11950D01*
X29942Y11945D01*
X29950Y11939D01*
X29959Y11932D01*
X29966Y11926D01*
X29974Y11919D01*
X29981Y11911D01*
X29988Y11903D01*
X29994Y11895D01*
X30000Y11887D01*
X30005Y11878D01*
X30010Y11869D01*
X30015Y11860D01*
X30018Y11850D01*
X30022Y11840D01*
X30025Y11830D01*
X30027Y11821D01*
X30029Y11810D01*
X30030Y11800D01*
X30031Y11790D01*
X30031Y11779D01*
Y10795D01*
X30031Y10785D01*
X30030Y10775D01*
X30029Y10764D01*
X30027Y10754D01*
X30025Y10744D01*
X30022Y10734D01*
X30018Y10725D01*
X30015Y10715D01*
X30010Y10706D01*
X30005Y10697D01*
X30000Y10688D01*
X29994Y10680D01*
X29988Y10671D01*
X29981Y10664D01*
X29974Y10656D01*
X29966Y10649D01*
X29959Y10642D01*
X29950Y10636D01*
X29942Y10630D01*
X29933Y10625D01*
X29924Y10620D01*
X29915Y10615D01*
X29905Y10611D01*
X29895Y10608D01*
X29886Y10605D01*
X29876Y10603D01*
X29865Y10601D01*
X29855Y10599D01*
X29845Y10599D01*
X29835Y10598D01*
X27669D01*
X27659Y10599D01*
X27649Y10599D01*
X27639Y10601D01*
X27628Y10603D01*
X27618Y10605D01*
X27608Y10608D01*
X27599Y10611D01*
X27589Y10615D01*
X27580Y10620D01*
X27571Y10625D01*
X27562Y10630D01*
X27554Y10636D01*
X27545Y10642D01*
X27538Y10649D01*
X27530Y10656D01*
X27523Y10664D01*
X27516Y10671D01*
X27510Y10680D01*
X27504Y10688D01*
X27499Y10697D01*
X27494Y10706D01*
X27490Y10715D01*
X27485Y10725D01*
X27482Y10734D01*
X27479Y10744D01*
X27477Y10754D01*
X27475Y10764D01*
X27474Y10775D01*
X27473Y10785D01*
X27472Y10795D01*
Y11779D01*
X27473Y11790D01*
X27474Y11800D01*
X27475Y11810D01*
X27477Y11821D01*
X27479Y11830D01*
X27482Y11840D01*
X27485Y11850D01*
X27490Y11860D01*
X27494Y11869D01*
X27499Y11878D01*
X27504Y11887D01*
X27510Y11895D01*
X27516Y11903D01*
X27523Y11911D01*
X27530Y11919D01*
X27538Y11926D01*
X27545Y11932D01*
X27554Y11939D01*
X27562Y11945D01*
X27571Y11950D01*
X27580Y11955D01*
X27589Y11959D01*
X27599Y11963D01*
X27608Y11967D01*
X27618Y11970D01*
X27628Y11972D01*
X27639Y11974D01*
X27649Y11975D01*
X27659Y11976D01*
X27669Y11976D01*
X29835D01*
X29845Y11976D01*
D02*
G37*
G36*
Y10008D02*
X29855Y10007D01*
X29865Y10006D01*
X29876Y10004D01*
X29886Y10001D01*
X29895Y9998D01*
X29905Y9995D01*
X29915Y9991D01*
X29924Y9986D01*
X29933Y9982D01*
X29942Y9976D01*
X29950Y9970D01*
X29959Y9964D01*
X29966Y9957D01*
X29974Y9950D01*
X29981Y9943D01*
X29988Y9935D01*
X29994Y9927D01*
X30000Y9918D01*
X30005Y9909D01*
X30010Y9900D01*
X30015Y9891D01*
X30018Y9882D01*
X30022Y9872D01*
X30025Y9862D01*
X30027Y9852D01*
X30029Y9842D01*
X30030Y9832D01*
X30031Y9821D01*
X30031Y9811D01*
Y8827D01*
X30031Y8817D01*
X30030Y8806D01*
X30029Y8796D01*
X30027Y8786D01*
X30025Y8776D01*
X30022Y8766D01*
X30018Y8756D01*
X30015Y8747D01*
X30010Y8737D01*
X30005Y8728D01*
X30000Y8720D01*
X29994Y8711D01*
X29988Y8703D01*
X29981Y8695D01*
X29974Y8688D01*
X29966Y8681D01*
X29959Y8674D01*
X29950Y8668D01*
X29942Y8662D01*
X29933Y8656D01*
X29924Y8651D01*
X29915Y8647D01*
X29905Y8643D01*
X29895Y8640D01*
X29886Y8637D01*
X29876Y8634D01*
X29865Y8632D01*
X29855Y8631D01*
X29845Y8630D01*
X29835Y8630D01*
X27669D01*
X27659Y8630D01*
X27649Y8631D01*
X27639Y8632D01*
X27628Y8634D01*
X27618Y8637D01*
X27608Y8640D01*
X27599Y8643D01*
X27589Y8647D01*
X27580Y8651D01*
X27571Y8656D01*
X27562Y8662D01*
X27554Y8668D01*
X27545Y8674D01*
X27538Y8681D01*
X27530Y8688D01*
X27523Y8695D01*
X27516Y8703D01*
X27510Y8711D01*
X27504Y8720D01*
X27499Y8728D01*
X27494Y8737D01*
X27490Y8747D01*
X27485Y8756D01*
X27482Y8766D01*
X27479Y8776D01*
X27477Y8786D01*
X27475Y8796D01*
X27474Y8806D01*
X27473Y8817D01*
X27472Y8827D01*
Y9811D01*
X27473Y9821D01*
X27474Y9832D01*
X27475Y9842D01*
X27477Y9852D01*
X27479Y9862D01*
X27482Y9872D01*
X27485Y9882D01*
X27490Y9891D01*
X27494Y9900D01*
X27499Y9909D01*
X27504Y9918D01*
X27510Y9927D01*
X27516Y9935D01*
X27523Y9943D01*
X27530Y9950D01*
X27538Y9957D01*
X27545Y9964D01*
X27554Y9970D01*
X27562Y9976D01*
X27571Y9982D01*
X27580Y9986D01*
X27589Y9991D01*
X27599Y9995D01*
X27608Y9998D01*
X27618Y10001D01*
X27628Y10004D01*
X27639Y10006D01*
X27649Y10007D01*
X27659Y10008D01*
X27669Y10008D01*
X29835D01*
X29845Y10008D01*
D02*
G37*
G36*
Y8039D02*
X29855Y8038D01*
X29865Y8037D01*
X29876Y8035D01*
X29886Y8033D01*
X29895Y8030D01*
X29905Y8026D01*
X29915Y8022D01*
X29924Y8018D01*
X29933Y8013D01*
X29942Y8008D01*
X29950Y8002D01*
X29959Y7995D01*
X29966Y7989D01*
X29974Y7982D01*
X29981Y7974D01*
X29988Y7966D01*
X29994Y7958D01*
X30000Y7950D01*
X30005Y7941D01*
X30010Y7932D01*
X30015Y7923D01*
X30018Y7913D01*
X30022Y7903D01*
X30025Y7893D01*
X30027Y7884D01*
X30029Y7873D01*
X30030Y7863D01*
X30031Y7853D01*
X30031Y7842D01*
Y6858D01*
X30031Y6848D01*
X30030Y6838D01*
X30029Y6827D01*
X30027Y6817D01*
X30025Y6807D01*
X30022Y6797D01*
X30018Y6788D01*
X30015Y6778D01*
X30010Y6769D01*
X30005Y6760D01*
X30000Y6751D01*
X29994Y6743D01*
X29988Y6734D01*
X29981Y6727D01*
X29974Y6719D01*
X29966Y6712D01*
X29959Y6705D01*
X29950Y6699D01*
X29942Y6693D01*
X29933Y6688D01*
X29924Y6683D01*
X29915Y6678D01*
X29905Y6674D01*
X29895Y6671D01*
X29886Y6668D01*
X29876Y6666D01*
X29865Y6664D01*
X29855Y6662D01*
X29845Y6662D01*
X29835Y6661D01*
X27669D01*
X27659Y6662D01*
X27649Y6662D01*
X27639Y6664D01*
X27628Y6666D01*
X27618Y6668D01*
X27608Y6671D01*
X27599Y6674D01*
X27589Y6678D01*
X27580Y6683D01*
X27571Y6688D01*
X27562Y6693D01*
X27554Y6699D01*
X27545Y6705D01*
X27538Y6712D01*
X27530Y6719D01*
X27523Y6727D01*
X27516Y6734D01*
X27510Y6743D01*
X27504Y6751D01*
X27499Y6760D01*
X27494Y6769D01*
X27490Y6778D01*
X27485Y6788D01*
X27482Y6797D01*
X27479Y6807D01*
X27477Y6817D01*
X27475Y6827D01*
X27474Y6838D01*
X27473Y6848D01*
X27472Y6858D01*
Y7842D01*
X27473Y7853D01*
X27474Y7863D01*
X27475Y7873D01*
X27477Y7884D01*
X27479Y7893D01*
X27482Y7903D01*
X27485Y7913D01*
X27490Y7923D01*
X27494Y7932D01*
X27499Y7941D01*
X27504Y7950D01*
X27510Y7958D01*
X27516Y7966D01*
X27523Y7974D01*
X27530Y7982D01*
X27538Y7989D01*
X27545Y7995D01*
X27554Y8002D01*
X27562Y8008D01*
X27571Y8013D01*
X27580Y8018D01*
X27589Y8022D01*
X27599Y8026D01*
X27608Y8030D01*
X27618Y8033D01*
X27628Y8035D01*
X27639Y8037D01*
X27649Y8038D01*
X27659Y8039D01*
X27669Y8039D01*
X29835D01*
X29845Y8039D01*
D02*
G37*
G36*
X26115Y14043D02*
X26136Y14041D01*
X26156Y14039D01*
X26176Y14035D01*
X26196Y14030D01*
X26216Y14024D01*
X26236Y14017D01*
X26255Y14009D01*
X26273Y14000D01*
X26291Y13991D01*
X26309Y13980D01*
X26326Y13968D01*
X26342Y13956D01*
X26358Y13942D01*
X26373Y13928D01*
X26387Y13913D01*
X26401Y13897D01*
X26413Y13881D01*
X26425Y13864D01*
X26435Y13847D01*
X26445Y13828D01*
X26454Y13810D01*
X26462Y13791D01*
X26469Y13771D01*
X26475Y13751D01*
X26480Y13732D01*
X26483Y13711D01*
X26486Y13691D01*
X26488Y13670D01*
X26488Y13650D01*
Y6957D01*
X26488Y6936D01*
X26486Y6916D01*
X26483Y6895D01*
X26480Y6875D01*
X26475Y6855D01*
X26469Y6835D01*
X26462Y6816D01*
X26454Y6797D01*
X26445Y6778D01*
X26435Y6760D01*
X26425Y6742D01*
X26413Y6725D01*
X26401Y6709D01*
X26387Y6693D01*
X26373Y6678D01*
X26358Y6664D01*
X26342Y6651D01*
X26326Y6638D01*
X26309Y6627D01*
X26291Y6616D01*
X26273Y6606D01*
X26255Y6597D01*
X26236Y6589D01*
X26216Y6582D01*
X26196Y6576D01*
X26176Y6572D01*
X26156Y6568D01*
X26136Y6565D01*
X26115Y6564D01*
X26094Y6563D01*
X22158D01*
X22137Y6564D01*
X22116Y6565D01*
X22096Y6568D01*
X22076Y6572D01*
X22056Y6576D01*
X22036Y6582D01*
X22016Y6589D01*
X21997Y6597D01*
X21979Y6606D01*
X21961Y6616D01*
X21943Y6627D01*
X21926Y6638D01*
X21910Y6651D01*
X21894Y6664D01*
X21879Y6678D01*
X21865Y6693D01*
X21851Y6709D01*
X21839Y6725D01*
X21827Y6742D01*
X21816Y6760D01*
X21807Y6778D01*
X21798Y6797D01*
X21790Y6816D01*
X21783Y6835D01*
X21777Y6855D01*
X21772Y6875D01*
X21769Y6895D01*
X21766Y6916D01*
X21764Y6936D01*
X21764Y6957D01*
Y12747D01*
X23060Y14043D01*
X26094D01*
X26115Y14043D01*
D02*
G37*
D18*
X21000Y20256D02*
D03*
X26906D02*
D03*
D19*
X42800Y14044D02*
D03*
Y19556D02*
D03*
D20*
X35800Y13747D02*
D03*
Y19653D02*
D03*
X4500Y14303D02*
D03*
Y20209D02*
D03*
X11500Y14303D02*
D03*
Y20209D02*
D03*
D21*
X35600Y54100D02*
D03*
D22*
X27726D02*
D03*
X19852D02*
D03*
X11978D02*
D03*
D23*
X9000Y37500D02*
D03*
X19000D02*
D03*
X29000D02*
D03*
D24*
X39000D02*
D03*
M02*
