G04*
G04 #@! TF.GenerationSoftware,Altium Limited,Altium Designer,25.0.2 (28)*
G04*
G04 Layer_Physical_Order=1*
G04 Layer_Color=255*
%FSLAX25Y25*%
%MOIN*%
G70*
G04*
G04 #@! TF.SameCoordinates,04528678-07C5-4B7D-9F9D-9FCF3C40A8B5*
G04*
G04*
G04 #@! TF.FilePolarity,Positive*
G04*
G01*
G75*
%ADD10C,0.01000*%
%ADD13R,0.04331X0.03937*%
%ADD14R,0.04331X0.03150*%
%ADD15R,0.02756X0.03543*%
%ADD22C,0.02362*%
%ADD23C,0.05906*%
%ADD24R,0.05906X0.05906*%
D10*
X36000Y16500D02*
Y21000D01*
Y12000D02*
Y16500D01*
X40000D01*
X34669Y10669D02*
X36000Y12000D01*
X30000Y10669D02*
X34669D01*
X35000Y22000D02*
X36000Y21000D01*
X30500Y22000D02*
X35000D01*
X30500D02*
Y36500D01*
X16024Y12835D02*
Y36976D01*
X13500Y39500D02*
X16024Y36976D01*
X30500Y36500D02*
X33500Y39500D01*
X23500Y31294D02*
Y39500D01*
Y31294D02*
X24594Y30200D01*
Y22000D02*
Y30200D01*
D13*
X16024Y12835D02*
D03*
D14*
X30000Y15000D02*
D03*
Y10669D02*
D03*
D15*
X30500Y22000D02*
D03*
X24594D02*
D03*
D22*
X40000Y16500D02*
D03*
D23*
X13500Y39500D02*
D03*
X23500D02*
D03*
D24*
X33500D02*
D03*
M02*
