G04*
G04 #@! TF.GenerationSoftware,Altium Limited,Altium Designer,25.0.2 (28)*
G04*
G04 Layer_Color=32896*
%FSLAX25Y25*%
%MOIN*%
G70*
G04*
G04 #@! TF.SameCoordinates,04528678-07C5-4B7D-9F9D-9FCF3C40A8B5*
G04*
G04*
G04 #@! TF.FilePolarity,Positive*
G04*
G01*
G75*
G36*
X24646Y17083D02*
X23771D01*
Y18979D01*
Y19125D01*
Y19708D01*
X24646D01*
Y17083D01*
D02*
G37*
G36*
X28583Y17958D02*
X28729D01*
Y17812D01*
X28875D01*
Y17667D01*
X29021D01*
Y17375D01*
X28875D01*
Y17229D01*
X28729D01*
Y17083D01*
X28583D01*
Y16938D01*
X28438D01*
Y16792D01*
X28292D01*
Y16646D01*
X28146D01*
Y16500D01*
X28000D01*
Y16354D01*
X27854D01*
Y16208D01*
X27708D01*
Y16062D01*
X27562D01*
Y15917D01*
X27417D01*
Y15771D01*
X27271D01*
Y15625D01*
X27125D01*
Y15771D01*
X26979D01*
Y15917D01*
X26833D01*
Y16062D01*
X26687D01*
Y16500D01*
X26833D01*
Y16646D01*
X26979D01*
Y16792D01*
X27125D01*
Y16938D01*
X27271D01*
Y17083D01*
X27417D01*
Y17229D01*
X27562D01*
Y17375D01*
X27708D01*
Y17521D01*
X27854D01*
Y17667D01*
X28000D01*
Y17812D01*
X28146D01*
Y17958D01*
X28292D01*
Y18104D01*
X28583D01*
Y17958D01*
D02*
G37*
G36*
X20125D02*
X20271D01*
Y17812D01*
X20417D01*
Y17667D01*
X20562D01*
Y17521D01*
X20708D01*
Y17375D01*
X20854D01*
Y17229D01*
X21000D01*
Y17083D01*
X21146D01*
Y16938D01*
X21292D01*
Y16792D01*
X21438D01*
Y16646D01*
X21583D01*
Y16500D01*
X21729D01*
Y16354D01*
X21875D01*
Y16208D01*
X21729D01*
Y16062D01*
X21583D01*
Y15917D01*
X21438D01*
Y15771D01*
X21292D01*
Y15625D01*
X21146D01*
Y15771D01*
X21000D01*
Y15917D01*
X20854D01*
Y16062D01*
X20708D01*
Y16208D01*
X20562D01*
Y16354D01*
X20417D01*
Y16500D01*
X20271D01*
Y16646D01*
X20125D01*
Y16792D01*
X19979D01*
Y16938D01*
X19833D01*
Y17083D01*
X19688D01*
Y17229D01*
X19542D01*
Y17375D01*
X19396D01*
Y17667D01*
X19542D01*
Y17812D01*
X19688D01*
Y17958D01*
X19833D01*
Y18104D01*
X20125D01*
Y17958D01*
D02*
G37*
G36*
X30625Y12854D02*
X28000D01*
Y13729D01*
X30625D01*
Y12854D01*
D02*
G37*
G36*
X20417Y13583D02*
Y13438D01*
Y12854D01*
X17792D01*
Y13729D01*
X20417D01*
Y13583D01*
D02*
G37*
G36*
X24938Y16354D02*
X25375D01*
Y16208D01*
X25667D01*
Y16062D01*
X25958D01*
Y15917D01*
X26104D01*
Y15771D01*
X26250D01*
Y15625D01*
X26542D01*
Y15333D01*
X26687D01*
Y15188D01*
X26833D01*
Y15042D01*
X26979D01*
Y14750D01*
X27125D01*
Y14458D01*
X27271D01*
Y14021D01*
X27417D01*
Y12562D01*
X27271D01*
Y12125D01*
X27125D01*
Y11833D01*
X26979D01*
Y11542D01*
X26833D01*
Y11396D01*
X26687D01*
Y11250D01*
X26542D01*
Y10958D01*
X26250D01*
Y10813D01*
X26104D01*
Y10667D01*
X25958D01*
Y10521D01*
X25667D01*
Y10375D01*
X25375D01*
Y10229D01*
X24938D01*
Y10083D01*
X23479D01*
Y10229D01*
X23042D01*
Y10375D01*
X22750D01*
Y10521D01*
X22458D01*
Y10667D01*
X22312D01*
Y10813D01*
X22167D01*
Y10958D01*
X21875D01*
Y11250D01*
X21729D01*
Y11396D01*
X21583D01*
Y11542D01*
X21438D01*
Y11833D01*
X21292D01*
Y12125D01*
X21146D01*
Y12562D01*
X21000D01*
Y14021D01*
X21146D01*
Y14458D01*
X21292D01*
Y14750D01*
X21438D01*
Y15042D01*
X21583D01*
Y15188D01*
X21729D01*
Y15333D01*
X21875D01*
Y15625D01*
X22167D01*
Y15771D01*
X22312D01*
Y15917D01*
X22458D01*
Y16062D01*
X22750D01*
Y16208D01*
X23042D01*
Y16354D01*
X23479D01*
Y16500D01*
X24938D01*
Y16354D01*
D02*
G37*
G36*
X27417Y10667D02*
X27562D01*
Y10521D01*
X27708D01*
Y10375D01*
X27854D01*
Y10229D01*
X28000D01*
Y10083D01*
X28146D01*
Y9938D01*
X28292D01*
Y9792D01*
X28438D01*
Y9646D01*
X28583D01*
Y9500D01*
X28729D01*
Y9354D01*
X28875D01*
Y9208D01*
X29021D01*
Y8917D01*
X28875D01*
Y8771D01*
X28729D01*
Y8625D01*
X28583D01*
Y8479D01*
X28292D01*
Y8625D01*
X28146D01*
Y8771D01*
X28000D01*
Y8917D01*
X27854D01*
Y9063D01*
X27708D01*
Y9208D01*
X27562D01*
Y9354D01*
X27417D01*
Y9500D01*
X27271D01*
Y9646D01*
X27125D01*
Y9792D01*
X26979D01*
Y9938D01*
X26833D01*
Y10083D01*
X26687D01*
Y10229D01*
X26542D01*
Y10375D01*
X26687D01*
Y10521D01*
X26833D01*
Y10667D01*
X26979D01*
Y10813D01*
X27417D01*
Y10667D01*
D02*
G37*
G36*
X21292Y10813D02*
X21438D01*
Y10667D01*
X21583D01*
Y10521D01*
X21729D01*
Y10083D01*
X21583D01*
Y9938D01*
X21438D01*
Y9792D01*
X21292D01*
Y9646D01*
X21146D01*
Y9500D01*
X21000D01*
Y9354D01*
X20854D01*
Y9208D01*
X20708D01*
Y9063D01*
X20562D01*
Y8917D01*
X20417D01*
Y8771D01*
X20271D01*
Y8625D01*
X20125D01*
Y8479D01*
X19833D01*
Y8625D01*
X19688D01*
Y8771D01*
X19542D01*
Y8917D01*
X19396D01*
Y9208D01*
X19542D01*
Y9354D01*
X19688D01*
Y9500D01*
X19833D01*
Y9646D01*
X19979D01*
Y9792D01*
X20125D01*
Y9938D01*
X20271D01*
Y10083D01*
X20417D01*
Y10229D01*
X20562D01*
Y10375D01*
X20708D01*
Y10521D01*
X20854D01*
Y10667D01*
X21000D01*
Y10813D01*
X21146D01*
Y10958D01*
X21292D01*
Y10813D01*
D02*
G37*
G36*
X24646Y6875D02*
X23771D01*
Y9500D01*
X24646D01*
Y6875D01*
D02*
G37*
G36*
X20327Y24753D02*
X20428Y24734D01*
X20526Y24711D01*
X20604Y24688D01*
X20673Y24660D01*
X20701Y24646D01*
X20724Y24637D01*
X20743Y24628D01*
X20756Y24619D01*
X20766Y24614D01*
X20770D01*
X20858Y24558D01*
X20937Y24489D01*
X21001Y24420D01*
X21057Y24351D01*
X21098Y24291D01*
X21126Y24240D01*
X21135Y24221D01*
X21145Y24207D01*
X21149Y24198D01*
Y24193D01*
X21191Y24083D01*
X21218Y23972D01*
X21242Y23861D01*
X21256Y23759D01*
X21260Y23713D01*
X21265Y23671D01*
Y23634D01*
X21269Y23602D01*
Y23574D01*
Y23556D01*
Y23542D01*
Y23537D01*
X21265Y23431D01*
X21256Y23334D01*
X21242Y23237D01*
X21223Y23154D01*
X21205Y23071D01*
X21177Y23001D01*
X21154Y22932D01*
X21126Y22872D01*
X21098Y22821D01*
X21075Y22775D01*
X21048Y22734D01*
X21029Y22701D01*
X21011Y22678D01*
X20997Y22660D01*
X20988Y22650D01*
X20983Y22646D01*
X20928Y22590D01*
X20867Y22544D01*
X20807Y22502D01*
X20743Y22466D01*
X20678Y22438D01*
X20618Y22410D01*
X20493Y22373D01*
X20438Y22364D01*
X20387Y22355D01*
X20341Y22345D01*
X20299Y22341D01*
X20267Y22336D01*
X20221D01*
X20151Y22341D01*
X20082Y22345D01*
X19962Y22373D01*
X19851Y22406D01*
X19759Y22447D01*
X19722Y22470D01*
X19685Y22489D01*
X19652Y22507D01*
X19629Y22526D01*
X19611Y22539D01*
X19597Y22549D01*
X19588Y22553D01*
X19583Y22558D01*
X19537Y22604D01*
X19495Y22650D01*
X19421Y22752D01*
X19361Y22858D01*
X19320Y22955D01*
X19287Y23048D01*
X19278Y23085D01*
X19269Y23122D01*
X19264Y23149D01*
X19260Y23168D01*
X19255Y23182D01*
Y23186D01*
X19643Y23237D01*
X19662Y23135D01*
X19689Y23043D01*
X19726Y22969D01*
X19759Y22909D01*
X19791Y22858D01*
X19819Y22826D01*
X19832Y22803D01*
X19842Y22798D01*
X19902Y22752D01*
X19966Y22720D01*
X20031Y22692D01*
X20091Y22678D01*
X20142Y22669D01*
X20188Y22664D01*
X20216Y22660D01*
X20225D01*
X20276Y22664D01*
X20327Y22669D01*
X20419Y22692D01*
X20498Y22724D01*
X20567Y22766D01*
X20618Y22803D01*
X20660Y22835D01*
X20683Y22858D01*
X20692Y22867D01*
X20724Y22909D01*
X20752Y22960D01*
X20794Y23062D01*
X20826Y23177D01*
X20844Y23288D01*
X20858Y23390D01*
X20863Y23431D01*
Y23473D01*
X20867Y23501D01*
Y23528D01*
Y23542D01*
Y23547D01*
Y23630D01*
X20858Y23708D01*
X20849Y23782D01*
X20840Y23847D01*
X20826Y23907D01*
X20807Y23963D01*
X20794Y24013D01*
X20775Y24059D01*
X20756Y24096D01*
X20743Y24129D01*
X20724Y24157D01*
X20710Y24180D01*
X20701Y24198D01*
X20692Y24212D01*
X20683Y24217D01*
Y24221D01*
X20646Y24258D01*
X20609Y24291D01*
X20530Y24346D01*
X20447Y24383D01*
X20373Y24406D01*
X20304Y24424D01*
X20253Y24429D01*
X20230Y24434D01*
X20202D01*
X20133Y24429D01*
X20068Y24415D01*
X20013Y24397D01*
X19962Y24374D01*
X19925Y24351D01*
X19893Y24332D01*
X19874Y24318D01*
X19870Y24314D01*
X19823Y24267D01*
X19782Y24212D01*
X19745Y24152D01*
X19722Y24096D01*
X19699Y24046D01*
X19685Y24004D01*
X19680Y23976D01*
X19676Y23972D01*
Y23967D01*
X19292Y24027D01*
X19324Y24152D01*
X19371Y24258D01*
X19421Y24351D01*
X19472Y24424D01*
X19523Y24485D01*
X19565Y24526D01*
X19592Y24554D01*
X19597Y24563D01*
X19602D01*
X19699Y24628D01*
X19800Y24674D01*
X19902Y24711D01*
X19999Y24734D01*
X20087Y24748D01*
X20124Y24753D01*
X20151D01*
X20179Y24757D01*
X20216D01*
X20327Y24753D01*
D02*
G37*
G36*
X35000Y25205D02*
X33947D01*
Y22387D01*
X33522D01*
Y25205D01*
X32468D01*
Y25584D01*
X35000D01*
Y25205D01*
D02*
G37*
G36*
X32025Y22387D02*
X31600D01*
Y23805D01*
X31054D01*
X31004Y23801D01*
X30967D01*
X30934Y23796D01*
X30911Y23791D01*
X30893D01*
X30884Y23787D01*
X30879D01*
X30805Y23764D01*
X30773Y23750D01*
X30745Y23736D01*
X30717Y23722D01*
X30699Y23713D01*
X30689Y23708D01*
X30685Y23704D01*
X30648Y23676D01*
X30611Y23644D01*
X30542Y23574D01*
X30509Y23542D01*
X30486Y23514D01*
X30472Y23496D01*
X30468Y23491D01*
X30422Y23426D01*
X30371Y23357D01*
X30320Y23283D01*
X30269Y23214D01*
X30228Y23149D01*
X30195Y23099D01*
X30181Y23080D01*
X30172Y23066D01*
X30163Y23057D01*
Y23052D01*
X29742Y22387D01*
X29216D01*
X29765Y23256D01*
X29830Y23348D01*
X29890Y23431D01*
X29950Y23501D01*
X30001Y23565D01*
X30047Y23611D01*
X30084Y23648D01*
X30107Y23671D01*
X30117Y23681D01*
X30154Y23708D01*
X30195Y23741D01*
X30278Y23791D01*
X30315Y23810D01*
X30343Y23829D01*
X30362Y23838D01*
X30371Y23842D01*
X30288Y23856D01*
X30209Y23870D01*
X30140Y23893D01*
X30070Y23912D01*
X30010Y23935D01*
X29955Y23963D01*
X29904Y23986D01*
X29858Y24009D01*
X29821Y24036D01*
X29784Y24059D01*
X29756Y24078D01*
X29733Y24096D01*
X29715Y24110D01*
X29701Y24124D01*
X29696Y24129D01*
X29692Y24133D01*
X29655Y24180D01*
X29618Y24226D01*
X29562Y24323D01*
X29525Y24420D01*
X29498Y24512D01*
X29479Y24591D01*
X29474Y24623D01*
Y24656D01*
X29470Y24679D01*
Y24697D01*
Y24706D01*
Y24711D01*
X29474Y24808D01*
X29488Y24896D01*
X29511Y24979D01*
X29535Y25048D01*
X29562Y25108D01*
X29581Y25154D01*
X29599Y25182D01*
X29604Y25187D01*
Y25191D01*
X29659Y25265D01*
X29715Y25330D01*
X29775Y25385D01*
X29830Y25427D01*
X29881Y25459D01*
X29923Y25478D01*
X29950Y25492D01*
X29955Y25496D01*
X29960D01*
X30001Y25510D01*
X30052Y25524D01*
X30154Y25547D01*
X30264Y25561D01*
X30366Y25575D01*
X30463Y25580D01*
X30505D01*
X30542Y25584D01*
X32025D01*
Y22387D01*
D02*
G37*
G36*
X26587D02*
X25367D01*
X25256Y22392D01*
X25159Y22396D01*
X25072Y22406D01*
X24998Y22415D01*
X24938Y22424D01*
X24891Y22429D01*
X24864Y22438D01*
X24855D01*
X24776Y22461D01*
X24711Y22484D01*
X24651Y22512D01*
X24600Y22539D01*
X24559Y22558D01*
X24527Y22577D01*
X24508Y22590D01*
X24503Y22595D01*
X24453Y22637D01*
X24406Y22687D01*
X24369Y22738D01*
X24332Y22784D01*
X24305Y22831D01*
X24286Y22863D01*
X24272Y22886D01*
X24268Y22895D01*
X24235Y22969D01*
X24212Y23043D01*
X24194Y23112D01*
X24185Y23177D01*
X24175Y23233D01*
X24171Y23279D01*
Y23306D01*
Y23311D01*
Y23316D01*
X24175Y23417D01*
X24194Y23510D01*
X24221Y23588D01*
X24249Y23662D01*
X24277Y23718D01*
X24305Y23759D01*
X24323Y23787D01*
X24328Y23796D01*
X24393Y23870D01*
X24462Y23930D01*
X24540Y23981D01*
X24610Y24023D01*
X24674Y24055D01*
X24730Y24073D01*
X24748Y24083D01*
X24762Y24087D01*
X24771Y24092D01*
X24776D01*
X24697Y24138D01*
X24628Y24184D01*
X24573Y24235D01*
X24527Y24281D01*
X24489Y24318D01*
X24462Y24355D01*
X24448Y24374D01*
X24443Y24383D01*
X24406Y24452D01*
X24379Y24517D01*
X24355Y24581D01*
X24342Y24642D01*
X24332Y24692D01*
X24328Y24734D01*
Y24757D01*
Y24766D01*
X24332Y24845D01*
X24346Y24923D01*
X24369Y24993D01*
X24393Y25057D01*
X24416Y25113D01*
X24439Y25150D01*
X24453Y25177D01*
X24457Y25187D01*
X24508Y25256D01*
X24563Y25321D01*
X24623Y25372D01*
X24679Y25413D01*
X24725Y25446D01*
X24767Y25469D01*
X24794Y25482D01*
X24799Y25487D01*
X24804D01*
X24891Y25519D01*
X24988Y25543D01*
X25085Y25561D01*
X25178Y25570D01*
X25261Y25580D01*
X25298D01*
X25330Y25584D01*
X26587D01*
Y22387D01*
D02*
G37*
G36*
X23528D02*
X23080D01*
Y22835D01*
X23528D01*
Y22387D01*
D02*
G37*
G36*
X15633Y24753D02*
X15679Y24743D01*
X15725Y24729D01*
X15762Y24715D01*
X15790Y24702D01*
X15818Y24688D01*
X15832Y24679D01*
X15836Y24674D01*
X15878Y24637D01*
X15919Y24591D01*
X15961Y24535D01*
X15998Y24485D01*
X16035Y24434D01*
X16058Y24392D01*
X16077Y24360D01*
X16081Y24355D01*
Y24706D01*
X16437D01*
Y22387D01*
X16044D01*
Y23597D01*
X16039Y23690D01*
X16035Y23773D01*
X16026Y23852D01*
X16012Y23921D01*
X15998Y23976D01*
X15989Y24018D01*
X15984Y24046D01*
X15980Y24055D01*
X15961Y24106D01*
X15938Y24147D01*
X15915Y24184D01*
X15892Y24217D01*
X15869Y24240D01*
X15855Y24258D01*
X15841Y24267D01*
X15836Y24272D01*
X15799Y24300D01*
X15758Y24318D01*
X15716Y24332D01*
X15684Y24341D01*
X15651Y24346D01*
X15628Y24351D01*
X15605D01*
X15554Y24346D01*
X15504Y24337D01*
X15453Y24323D01*
X15411Y24309D01*
X15374Y24295D01*
X15347Y24281D01*
X15328Y24272D01*
X15323Y24267D01*
X15180Y24628D01*
X15259Y24669D01*
X15333Y24702D01*
X15397Y24725D01*
X15457Y24743D01*
X15508Y24753D01*
X15550Y24757D01*
X15582D01*
X15633Y24753D01*
D02*
G37*
G36*
X18058D02*
X18132Y24748D01*
X18276Y24715D01*
X18400Y24674D01*
X18456Y24651D01*
X18507Y24628D01*
X18553Y24605D01*
X18590Y24581D01*
X18627Y24558D01*
X18654Y24540D01*
X18677Y24521D01*
X18696Y24508D01*
X18705Y24503D01*
X18710Y24498D01*
X18775Y24438D01*
X18825Y24369D01*
X18876Y24295D01*
X18913Y24221D01*
X18950Y24143D01*
X18978Y24059D01*
X19001Y23981D01*
X19019Y23907D01*
X19038Y23833D01*
X19047Y23768D01*
X19056Y23704D01*
X19061Y23653D01*
Y23607D01*
X19066Y23574D01*
Y23556D01*
Y23547D01*
X19061Y23440D01*
X19052Y23339D01*
X19038Y23246D01*
X19019Y23159D01*
X18996Y23080D01*
X18973Y23006D01*
X18946Y22937D01*
X18918Y22877D01*
X18890Y22821D01*
X18862Y22775D01*
X18839Y22738D01*
X18816Y22706D01*
X18798Y22678D01*
X18784Y22660D01*
X18775Y22650D01*
X18770Y22646D01*
X18710Y22590D01*
X18650Y22544D01*
X18585Y22502D01*
X18520Y22466D01*
X18456Y22438D01*
X18386Y22410D01*
X18262Y22373D01*
X18206Y22364D01*
X18151Y22355D01*
X18105Y22345D01*
X18063Y22341D01*
X18026Y22336D01*
X17980D01*
X17869Y22341D01*
X17767Y22359D01*
X17670Y22382D01*
X17592Y22406D01*
X17523Y22433D01*
X17495Y22443D01*
X17472Y22452D01*
X17449Y22461D01*
X17435Y22470D01*
X17430Y22475D01*
X17425D01*
X17333Y22535D01*
X17255Y22600D01*
X17185Y22664D01*
X17130Y22729D01*
X17088Y22784D01*
X17056Y22831D01*
X17047Y22849D01*
X17037Y22863D01*
X17033Y22867D01*
Y22872D01*
X16987Y22978D01*
X16954Y23094D01*
X16927Y23209D01*
X16913Y23325D01*
X16904Y23376D01*
Y23422D01*
X16899Y23468D01*
X16894Y23505D01*
Y23537D01*
Y23561D01*
Y23574D01*
Y23579D01*
X16899Y23681D01*
X16908Y23773D01*
X16922Y23861D01*
X16940Y23944D01*
X16963Y24023D01*
X16991Y24092D01*
X17019Y24161D01*
X17047Y24217D01*
X17074Y24267D01*
X17102Y24314D01*
X17130Y24355D01*
X17153Y24387D01*
X17171Y24411D01*
X17185Y24429D01*
X17195Y24438D01*
X17199Y24443D01*
X17259Y24498D01*
X17319Y24545D01*
X17384Y24591D01*
X17449Y24623D01*
X17513Y24656D01*
X17578Y24679D01*
X17703Y24720D01*
X17763Y24729D01*
X17814Y24739D01*
X17860Y24748D01*
X17901Y24753D01*
X17934Y24757D01*
X17980D01*
X18058Y24753D01*
D02*
G37*
G36*
X27687Y23380D02*
Y23283D01*
X27696Y23200D01*
X27700Y23131D01*
X27710Y23075D01*
X27719Y23034D01*
X27724Y23001D01*
X27733Y22983D01*
Y22978D01*
X27751Y22932D01*
X27774Y22895D01*
X27802Y22863D01*
X27825Y22831D01*
X27853Y22812D01*
X27871Y22794D01*
X27885Y22784D01*
X27890Y22780D01*
X27936Y22757D01*
X27982Y22738D01*
X28028Y22729D01*
X28070Y22720D01*
X28112Y22715D01*
X28139Y22710D01*
X28167D01*
X28241Y22715D01*
X28310Y22734D01*
X28366Y22752D01*
X28416Y22780D01*
X28453Y22803D01*
X28481Y22826D01*
X28500Y22840D01*
X28504Y22844D01*
X28527Y22872D01*
X28546Y22905D01*
X28574Y22978D01*
X28601Y23062D01*
X28615Y23145D01*
X28629Y23223D01*
Y23256D01*
X28634Y23283D01*
X28638Y23311D01*
Y23329D01*
Y23339D01*
Y23343D01*
X29022Y23288D01*
Y23200D01*
X29017Y23122D01*
X29003Y23043D01*
X28994Y22974D01*
X28975Y22909D01*
X28957Y22854D01*
X28939Y22798D01*
X28920Y22752D01*
X28897Y22710D01*
X28879Y22673D01*
X28860Y22641D01*
X28842Y22618D01*
X28828Y22600D01*
X28818Y22581D01*
X28814Y22577D01*
X28809Y22572D01*
X28763Y22530D01*
X28717Y22493D01*
X28666Y22461D01*
X28611Y22433D01*
X28504Y22392D01*
X28403Y22364D01*
X28306Y22345D01*
X28269Y22341D01*
X28232Y22336D01*
X28204Y22332D01*
X28162D01*
X28061Y22336D01*
X27968Y22350D01*
X27885Y22369D01*
X27811Y22392D01*
X27751Y22410D01*
X27710Y22429D01*
X27682Y22443D01*
X27673Y22447D01*
X27599Y22493D01*
X27534Y22549D01*
X27483Y22604D01*
X27437Y22655D01*
X27405Y22706D01*
X27382Y22743D01*
X27368Y22771D01*
X27363Y22775D01*
Y22780D01*
X27331Y22872D01*
X27303Y22969D01*
X27285Y23075D01*
X27275Y23177D01*
X27266Y23265D01*
Y23302D01*
X27261Y23339D01*
Y23367D01*
Y23385D01*
Y23399D01*
Y23403D01*
Y25584D01*
X27687D01*
Y23380D01*
D02*
G37*
G36*
X14002Y24753D02*
X14076Y24743D01*
X14141Y24729D01*
X14196Y24711D01*
X14242Y24692D01*
X14279Y24679D01*
X14298Y24669D01*
X14307Y24665D01*
X14363Y24628D01*
X14418Y24586D01*
X14464Y24545D01*
X14506Y24498D01*
X14543Y24461D01*
X14566Y24429D01*
X14584Y24411D01*
X14589Y24401D01*
Y24706D01*
X14945D01*
Y21500D01*
X14552D01*
Y22627D01*
X14515Y22581D01*
X14473Y22539D01*
X14427Y22502D01*
X14390Y22475D01*
X14353Y22447D01*
X14325Y22429D01*
X14302Y22419D01*
X14298Y22415D01*
X14238Y22387D01*
X14178Y22369D01*
X14118Y22355D01*
X14062Y22345D01*
X14016Y22341D01*
X13979Y22336D01*
X13947D01*
X13850Y22341D01*
X13753Y22359D01*
X13669Y22382D01*
X13591Y22410D01*
X13526Y22438D01*
X13480Y22461D01*
X13462Y22470D01*
X13448Y22479D01*
X13443Y22484D01*
X13439D01*
X13351Y22549D01*
X13277Y22618D01*
X13212Y22687D01*
X13161Y22757D01*
X13120Y22821D01*
X13087Y22872D01*
X13078Y22891D01*
X13069Y22905D01*
X13064Y22914D01*
Y22918D01*
X13023Y23029D01*
X12990Y23140D01*
X12967Y23246D01*
X12949Y23348D01*
X12939Y23431D01*
Y23468D01*
X12935Y23501D01*
Y23528D01*
Y23547D01*
Y23556D01*
Y23561D01*
X12939Y23681D01*
X12953Y23796D01*
X12972Y23898D01*
X12995Y23990D01*
X13018Y24064D01*
X13027Y24096D01*
X13036Y24124D01*
X13046Y24143D01*
X13050Y24157D01*
X13055Y24166D01*
Y24170D01*
X13101Y24267D01*
X13157Y24355D01*
X13212Y24429D01*
X13268Y24489D01*
X13318Y24535D01*
X13360Y24572D01*
X13388Y24591D01*
X13392Y24600D01*
X13397D01*
X13485Y24651D01*
X13572Y24692D01*
X13660Y24720D01*
X13743Y24739D01*
X13813Y24748D01*
X13845Y24753D01*
X13868Y24757D01*
X13919D01*
X14002Y24753D01*
D02*
G37*
G36*
X33822Y29904D02*
Y29812D01*
X33817Y29724D01*
X33813Y29641D01*
X33803Y29563D01*
X33794Y29493D01*
X33785Y29429D01*
X33771Y29369D01*
X33762Y29313D01*
X33753Y29262D01*
X33739Y29221D01*
X33729Y29184D01*
X33720Y29156D01*
X33711Y29133D01*
X33706Y29114D01*
X33702Y29105D01*
Y29101D01*
X33651Y28999D01*
X33586Y28907D01*
X33522Y28833D01*
X33452Y28768D01*
X33392Y28717D01*
X33341Y28680D01*
X33323Y28671D01*
X33309Y28662D01*
X33300Y28653D01*
X33295D01*
X33180Y28602D01*
X33060Y28565D01*
X32935Y28537D01*
X32819Y28519D01*
X32768Y28514D01*
X32718Y28509D01*
X32671Y28505D01*
X32635D01*
X32602Y28500D01*
X32561D01*
X32394Y28509D01*
X32320Y28519D01*
X32251Y28528D01*
X32182Y28542D01*
X32122Y28555D01*
X32066Y28569D01*
X32015Y28588D01*
X31969Y28606D01*
X31932Y28620D01*
X31895Y28634D01*
X31868Y28648D01*
X31844Y28662D01*
X31831Y28666D01*
X31821Y28676D01*
X31817D01*
X31715Y28745D01*
X31632Y28823D01*
X31567Y28897D01*
X31512Y28971D01*
X31470Y29036D01*
X31443Y29087D01*
X31433Y29105D01*
X31424Y29119D01*
X31420Y29128D01*
Y29133D01*
X31401Y29188D01*
X31383Y29248D01*
X31355Y29373D01*
X31336Y29502D01*
X31323Y29627D01*
X31318Y29683D01*
X31313Y29738D01*
Y29784D01*
X31309Y29826D01*
Y29858D01*
Y29881D01*
Y29900D01*
Y29904D01*
Y31752D01*
X31734D01*
Y29904D01*
Y29798D01*
X31743Y29697D01*
X31752Y29609D01*
X31766Y29526D01*
X31780Y29452D01*
X31798Y29382D01*
X31812Y29322D01*
X31831Y29272D01*
X31849Y29230D01*
X31868Y29188D01*
X31886Y29161D01*
X31900Y29133D01*
X31914Y29114D01*
X31923Y29101D01*
X31928Y29096D01*
X31932Y29091D01*
X31974Y29054D01*
X32020Y29022D01*
X32122Y28971D01*
X32228Y28934D01*
X32339Y28911D01*
X32441Y28893D01*
X32482Y28888D01*
X32524D01*
X32551Y28883D01*
X32598D01*
X32695Y28888D01*
X32782Y28902D01*
X32866Y28916D01*
X32930Y28939D01*
X32986Y28957D01*
X33027Y28971D01*
X33050Y28985D01*
X33060Y28990D01*
X33124Y29031D01*
X33180Y29082D01*
X33226Y29133D01*
X33258Y29179D01*
X33286Y29225D01*
X33309Y29258D01*
X33318Y29281D01*
X33323Y29290D01*
X33337Y29332D01*
X33346Y29373D01*
X33364Y29470D01*
X33378Y29572D01*
X33388Y29673D01*
X33392Y29761D01*
Y29803D01*
X33397Y29835D01*
Y29863D01*
Y29886D01*
Y29900D01*
Y29904D01*
Y31752D01*
X33822D01*
Y29904D01*
D02*
G37*
G36*
X35000Y28555D02*
X34575D01*
Y31752D01*
X35000D01*
Y28555D01*
D02*
G37*
G36*
X30842Y31374D02*
X29789D01*
Y28555D01*
X29364D01*
Y31374D01*
X28310D01*
Y31752D01*
X30842D01*
Y31374D01*
D02*
G37*
G36*
X26647Y28555D02*
X25427D01*
X25317Y28560D01*
X25220Y28565D01*
X25132Y28574D01*
X25058Y28583D01*
X24998Y28592D01*
X24951Y28597D01*
X24924Y28606D01*
X24915D01*
X24836Y28629D01*
X24771Y28653D01*
X24711Y28680D01*
X24660Y28708D01*
X24619Y28726D01*
X24587Y28745D01*
X24568Y28759D01*
X24563Y28763D01*
X24513Y28805D01*
X24466Y28856D01*
X24429Y28907D01*
X24393Y28953D01*
X24365Y28999D01*
X24346Y29031D01*
X24332Y29054D01*
X24328Y29064D01*
X24295Y29138D01*
X24272Y29212D01*
X24254Y29281D01*
X24245Y29346D01*
X24235Y29401D01*
X24231Y29447D01*
Y29475D01*
Y29479D01*
Y29484D01*
X24235Y29586D01*
X24254Y29678D01*
X24282Y29757D01*
X24309Y29831D01*
X24337Y29886D01*
X24365Y29928D01*
X24383Y29955D01*
X24388Y29965D01*
X24453Y30038D01*
X24522Y30099D01*
X24600Y30149D01*
X24670Y30191D01*
X24734Y30223D01*
X24790Y30242D01*
X24808Y30251D01*
X24822Y30256D01*
X24831Y30260D01*
X24836D01*
X24757Y30306D01*
X24688Y30353D01*
X24633Y30403D01*
X24587Y30450D01*
X24550Y30487D01*
X24522Y30524D01*
X24508Y30542D01*
X24503Y30551D01*
X24466Y30621D01*
X24439Y30685D01*
X24416Y30750D01*
X24402Y30810D01*
X24393Y30861D01*
X24388Y30902D01*
Y30926D01*
Y30935D01*
X24393Y31013D01*
X24406Y31092D01*
X24429Y31161D01*
X24453Y31226D01*
X24476Y31281D01*
X24499Y31318D01*
X24513Y31346D01*
X24517Y31355D01*
X24568Y31424D01*
X24623Y31489D01*
X24683Y31540D01*
X24739Y31582D01*
X24785Y31614D01*
X24827Y31637D01*
X24855Y31651D01*
X24859Y31655D01*
X24864D01*
X24951Y31688D01*
X25049Y31711D01*
X25146Y31729D01*
X25238Y31739D01*
X25321Y31748D01*
X25358D01*
X25390Y31752D01*
X26647D01*
Y28555D01*
D02*
G37*
G36*
X23644D02*
X23219D01*
Y29974D01*
X22674D01*
X22623Y29969D01*
X22586D01*
X22554Y29965D01*
X22531Y29960D01*
X22512D01*
X22503Y29955D01*
X22498D01*
X22424Y29932D01*
X22392Y29918D01*
X22364Y29904D01*
X22337Y29891D01*
X22318Y29881D01*
X22309Y29877D01*
X22304Y29872D01*
X22267Y29844D01*
X22230Y29812D01*
X22161Y29743D01*
X22129Y29710D01*
X22106Y29683D01*
X22092Y29664D01*
X22087Y29660D01*
X22041Y29595D01*
X21990Y29526D01*
X21939Y29452D01*
X21888Y29382D01*
X21847Y29318D01*
X21814Y29267D01*
X21801Y29248D01*
X21791Y29235D01*
X21782Y29225D01*
Y29221D01*
X21362Y28555D01*
X20835D01*
X21385Y29424D01*
X21450Y29516D01*
X21510Y29600D01*
X21570Y29669D01*
X21621Y29733D01*
X21667Y29780D01*
X21704Y29817D01*
X21727Y29840D01*
X21736Y29849D01*
X21773Y29877D01*
X21814Y29909D01*
X21898Y29960D01*
X21935Y29978D01*
X21962Y29997D01*
X21981Y30006D01*
X21990Y30011D01*
X21907Y30025D01*
X21828Y30038D01*
X21759Y30062D01*
X21690Y30080D01*
X21630Y30103D01*
X21574Y30131D01*
X21523Y30154D01*
X21477Y30177D01*
X21440Y30205D01*
X21403Y30228D01*
X21376Y30246D01*
X21352Y30265D01*
X21334Y30279D01*
X21320Y30293D01*
X21316Y30297D01*
X21311Y30302D01*
X21274Y30348D01*
X21237Y30394D01*
X21182Y30491D01*
X21145Y30588D01*
X21117Y30681D01*
X21098Y30759D01*
X21094Y30792D01*
Y30824D01*
X21089Y30847D01*
Y30865D01*
Y30875D01*
Y30879D01*
X21094Y30976D01*
X21108Y31064D01*
X21131Y31147D01*
X21154Y31217D01*
X21182Y31277D01*
X21200Y31323D01*
X21218Y31350D01*
X21223Y31355D01*
Y31360D01*
X21279Y31434D01*
X21334Y31498D01*
X21394Y31554D01*
X21450Y31595D01*
X21500Y31628D01*
X21542Y31646D01*
X21570Y31660D01*
X21574Y31665D01*
X21579D01*
X21621Y31679D01*
X21671Y31692D01*
X21773Y31716D01*
X21884Y31729D01*
X21985Y31743D01*
X22083Y31748D01*
X22124D01*
X22161Y31752D01*
X23644D01*
Y28555D01*
D02*
G37*
G36*
X20419D02*
X18031D01*
Y28934D01*
X19994D01*
Y30020D01*
X18225D01*
Y30399D01*
X19994D01*
Y31374D01*
X18105D01*
Y31752D01*
X20419D01*
Y28555D01*
D02*
G37*
G36*
X14704Y31374D02*
X13651D01*
Y28555D01*
X13226D01*
Y31374D01*
X12173D01*
Y31752D01*
X14704D01*
Y31374D01*
D02*
G37*
G36*
X16465Y31803D02*
X16571Y31789D01*
X16672Y31771D01*
X16760Y31752D01*
X16829Y31734D01*
X16862Y31725D01*
X16885Y31716D01*
X16904Y31706D01*
X16917Y31702D01*
X16927Y31697D01*
X16931D01*
X17024Y31651D01*
X17107Y31600D01*
X17176Y31545D01*
X17232Y31494D01*
X17273Y31448D01*
X17305Y31411D01*
X17328Y31383D01*
X17333Y31378D01*
Y31374D01*
X17379Y31295D01*
X17412Y31217D01*
X17435Y31138D01*
X17449Y31069D01*
X17458Y31009D01*
X17467Y30962D01*
Y30944D01*
Y30930D01*
Y30926D01*
Y30921D01*
X17462Y30842D01*
X17449Y30768D01*
X17430Y30699D01*
X17412Y30639D01*
X17393Y30593D01*
X17375Y30556D01*
X17361Y30533D01*
X17356Y30524D01*
X17310Y30459D01*
X17255Y30399D01*
X17199Y30348D01*
X17144Y30306D01*
X17097Y30270D01*
X17056Y30246D01*
X17028Y30228D01*
X17024Y30223D01*
X17019D01*
X16982Y30205D01*
X16940Y30186D01*
X16848Y30154D01*
X16742Y30122D01*
X16640Y30089D01*
X16548Y30062D01*
X16506Y30052D01*
X16469Y30043D01*
X16442Y30034D01*
X16418Y30029D01*
X16405Y30025D01*
X16400D01*
X16321Y30006D01*
X16247Y29988D01*
X16183Y29969D01*
X16127Y29955D01*
X16072Y29941D01*
X16026Y29928D01*
X15984Y29918D01*
X15952Y29904D01*
X15919Y29895D01*
X15896Y29891D01*
X15859Y29877D01*
X15836Y29872D01*
X15832Y29868D01*
X15762Y29840D01*
X15702Y29807D01*
X15651Y29775D01*
X15615Y29747D01*
X15582Y29720D01*
X15564Y29701D01*
X15550Y29687D01*
X15545Y29683D01*
X15513Y29641D01*
X15490Y29595D01*
X15476Y29549D01*
X15462Y29512D01*
X15457Y29475D01*
X15453Y29447D01*
Y29424D01*
Y29419D01*
X15457Y29364D01*
X15467Y29313D01*
X15481Y29267D01*
X15499Y29230D01*
X15518Y29193D01*
X15531Y29170D01*
X15541Y29151D01*
X15545Y29147D01*
X15582Y29101D01*
X15628Y29064D01*
X15675Y29031D01*
X15716Y28999D01*
X15758Y28980D01*
X15790Y28962D01*
X15813Y28953D01*
X15822Y28948D01*
X15892Y28925D01*
X15966Y28907D01*
X16039Y28897D01*
X16104Y28888D01*
X16160Y28883D01*
X16206Y28879D01*
X16247D01*
X16349Y28883D01*
X16442Y28893D01*
X16525Y28907D01*
X16599Y28925D01*
X16659Y28943D01*
X16705Y28957D01*
X16719Y28962D01*
X16733Y28967D01*
X16737Y28971D01*
X16742D01*
X16816Y29008D01*
X16885Y29050D01*
X16936Y29091D01*
X16982Y29133D01*
X17019Y29165D01*
X17042Y29198D01*
X17056Y29216D01*
X17061Y29221D01*
X17093Y29281D01*
X17125Y29346D01*
X17144Y29415D01*
X17162Y29475D01*
X17176Y29535D01*
X17185Y29577D01*
Y29595D01*
X17190Y29609D01*
Y29613D01*
Y29618D01*
X17587Y29581D01*
X17578Y29466D01*
X17560Y29355D01*
X17532Y29258D01*
X17499Y29170D01*
X17467Y29101D01*
X17453Y29073D01*
X17444Y29050D01*
X17430Y29031D01*
X17425Y29017D01*
X17416Y29008D01*
Y29004D01*
X17347Y28916D01*
X17273Y28837D01*
X17195Y28773D01*
X17121Y28717D01*
X17056Y28676D01*
X17000Y28648D01*
X16982Y28639D01*
X16968Y28629D01*
X16959Y28625D01*
X16954D01*
X16839Y28583D01*
X16719Y28551D01*
X16599Y28532D01*
X16483Y28514D01*
X16428Y28509D01*
X16381Y28505D01*
X16340D01*
X16303Y28500D01*
X16229D01*
X16104Y28505D01*
X15989Y28519D01*
X15882Y28542D01*
X15795Y28565D01*
X15721Y28583D01*
X15688Y28597D01*
X15661Y28606D01*
X15642Y28615D01*
X15628Y28620D01*
X15619Y28625D01*
X15615D01*
X15518Y28676D01*
X15434Y28731D01*
X15360Y28791D01*
X15300Y28846D01*
X15254Y28893D01*
X15222Y28934D01*
X15199Y28962D01*
X15194Y28967D01*
Y28971D01*
X15143Y29059D01*
X15106Y29142D01*
X15083Y29221D01*
X15065Y29295D01*
X15055Y29359D01*
X15046Y29410D01*
Y29429D01*
Y29443D01*
Y29447D01*
Y29452D01*
X15051Y29544D01*
X15065Y29632D01*
X15088Y29710D01*
X15111Y29775D01*
X15139Y29831D01*
X15157Y29872D01*
X15176Y29895D01*
X15180Y29904D01*
X15236Y29974D01*
X15300Y30038D01*
X15370Y30094D01*
X15439Y30145D01*
X15499Y30182D01*
X15550Y30209D01*
X15568Y30219D01*
X15582Y30228D01*
X15591Y30233D01*
X15596D01*
X15633Y30251D01*
X15679Y30265D01*
X15730Y30283D01*
X15785Y30302D01*
X15901Y30334D01*
X16021Y30367D01*
X16077Y30380D01*
X16127Y30394D01*
X16178Y30408D01*
X16220Y30417D01*
X16252Y30426D01*
X16280Y30431D01*
X16298Y30436D01*
X16303D01*
X16395Y30459D01*
X16478Y30477D01*
X16552Y30501D01*
X16617Y30519D01*
X16677Y30542D01*
X16728Y30560D01*
X16774Y30579D01*
X16816Y30593D01*
X16848Y30611D01*
X16876Y30625D01*
X16894Y30634D01*
X16913Y30648D01*
X16936Y30662D01*
X16940Y30667D01*
X16982Y30713D01*
X17010Y30759D01*
X17033Y30805D01*
X17047Y30852D01*
X17056Y30889D01*
X17061Y30921D01*
Y30939D01*
Y30949D01*
X17051Y31023D01*
X17033Y31087D01*
X17005Y31143D01*
X16973Y31194D01*
X16945Y31230D01*
X16917Y31263D01*
X16899Y31281D01*
X16890Y31286D01*
X16853Y31309D01*
X16816Y31332D01*
X16728Y31369D01*
X16635Y31392D01*
X16543Y31411D01*
X16460Y31420D01*
X16423Y31424D01*
X16395Y31429D01*
X16331D01*
X16201Y31424D01*
X16086Y31406D01*
X15993Y31378D01*
X15915Y31350D01*
X15855Y31323D01*
X15809Y31295D01*
X15785Y31277D01*
X15776Y31272D01*
X15711Y31207D01*
X15661Y31138D01*
X15619Y31064D01*
X15591Y30990D01*
X15573Y30921D01*
X15559Y30870D01*
X15554Y30847D01*
X15550Y30833D01*
Y30824D01*
Y30819D01*
X15143Y30852D01*
X15153Y30953D01*
X15176Y31046D01*
X15199Y31133D01*
X15231Y31207D01*
X15259Y31267D01*
X15282Y31314D01*
X15291Y31327D01*
X15300Y31341D01*
X15305Y31346D01*
Y31350D01*
X15365Y31429D01*
X15430Y31498D01*
X15499Y31558D01*
X15568Y31605D01*
X15628Y31646D01*
X15675Y31669D01*
X15693Y31679D01*
X15707Y31688D01*
X15716Y31692D01*
X15721D01*
X15822Y31729D01*
X15933Y31757D01*
X16035Y31780D01*
X16132Y31794D01*
X16220Y31803D01*
X16252D01*
X16284Y31808D01*
X16344D01*
X16465Y31803D01*
D02*
G37*
%LPC*%
G36*
X31600Y25228D02*
X30593D01*
X30468Y25224D01*
X30362Y25205D01*
X30269Y25182D01*
X30200Y25154D01*
X30140Y25127D01*
X30103Y25104D01*
X30080Y25085D01*
X30070Y25080D01*
X30015Y25020D01*
X29973Y24960D01*
X29946Y24896D01*
X29923Y24840D01*
X29913Y24785D01*
X29909Y24743D01*
X29904Y24715D01*
Y24711D01*
Y24706D01*
X29909Y24651D01*
X29918Y24595D01*
X29932Y24549D01*
X29946Y24508D01*
X29964Y24471D01*
X29978Y24443D01*
X29987Y24424D01*
X29992Y24420D01*
X30024Y24374D01*
X30066Y24332D01*
X30107Y24300D01*
X30149Y24272D01*
X30186Y24253D01*
X30214Y24240D01*
X30232Y24230D01*
X30241Y24226D01*
X30306Y24207D01*
X30380Y24193D01*
X30454Y24184D01*
X30528Y24180D01*
X30593Y24175D01*
X30648Y24170D01*
X31600D01*
Y25228D01*
D02*
G37*
G36*
X26162Y25205D02*
X25404D01*
X25303Y25196D01*
X25224Y25191D01*
X25155Y25182D01*
X25104Y25173D01*
X25072Y25168D01*
X25049Y25159D01*
X25044D01*
X24993Y25141D01*
X24947Y25113D01*
X24910Y25085D01*
X24878Y25057D01*
X24855Y25034D01*
X24836Y25011D01*
X24827Y24997D01*
X24822Y24993D01*
X24794Y24947D01*
X24776Y24900D01*
X24762Y24854D01*
X24753Y24808D01*
X24748Y24771D01*
X24744Y24743D01*
Y24725D01*
Y24715D01*
X24748Y24656D01*
X24757Y24600D01*
X24771Y24554D01*
X24785Y24517D01*
X24799Y24485D01*
X24813Y24457D01*
X24822Y24443D01*
X24827Y24438D01*
X24859Y24401D01*
X24901Y24364D01*
X24942Y24337D01*
X24979Y24318D01*
X25016Y24300D01*
X25044Y24286D01*
X25062Y24281D01*
X25072Y24277D01*
X25122Y24267D01*
X25187Y24258D01*
X25252Y24253D01*
X25317Y24249D01*
X25376Y24244D01*
X26162D01*
Y25205D01*
D02*
G37*
G36*
Y23865D02*
X25321D01*
X25224Y23856D01*
X25146Y23847D01*
X25081Y23838D01*
X25030Y23829D01*
X24988Y23819D01*
X24970Y23815D01*
X24961Y23810D01*
X24901Y23787D01*
X24850Y23759D01*
X24804Y23727D01*
X24767Y23695D01*
X24739Y23667D01*
X24721Y23644D01*
X24707Y23625D01*
X24702Y23621D01*
X24670Y23570D01*
X24647Y23519D01*
X24628Y23468D01*
X24619Y23422D01*
X24610Y23380D01*
X24605Y23343D01*
Y23325D01*
Y23316D01*
X24610Y23260D01*
X24614Y23205D01*
X24623Y23159D01*
X24637Y23122D01*
X24651Y23089D01*
X24660Y23062D01*
X24665Y23048D01*
X24670Y23043D01*
X24697Y23001D01*
X24721Y22964D01*
X24753Y22937D01*
X24776Y22909D01*
X24799Y22891D01*
X24817Y22877D01*
X24831Y22867D01*
X24836Y22863D01*
X24915Y22826D01*
X24993Y22798D01*
X25025Y22789D01*
X25053Y22784D01*
X25072Y22780D01*
X25076D01*
X25113Y22775D01*
X25155Y22771D01*
X25252Y22766D01*
X26162D01*
Y23865D01*
D02*
G37*
G36*
X18008Y24434D02*
X17980D01*
X17924Y24429D01*
X17874Y24424D01*
X17781Y24401D01*
X17698Y24364D01*
X17629Y24323D01*
X17573Y24281D01*
X17532Y24249D01*
X17504Y24221D01*
X17495Y24217D01*
Y24212D01*
X17458Y24170D01*
X17430Y24119D01*
X17379Y24018D01*
X17342Y23907D01*
X17319Y23805D01*
X17305Y23708D01*
X17301Y23667D01*
Y23630D01*
X17296Y23602D01*
Y23579D01*
Y23565D01*
Y23561D01*
Y23477D01*
X17305Y23399D01*
X17315Y23329D01*
X17328Y23260D01*
X17342Y23200D01*
X17361Y23145D01*
X17375Y23094D01*
X17393Y23048D01*
X17412Y23011D01*
X17430Y22974D01*
X17449Y22946D01*
X17462Y22923D01*
X17476Y22905D01*
X17486Y22891D01*
X17490Y22886D01*
X17495Y22881D01*
X17532Y22844D01*
X17573Y22807D01*
X17652Y22752D01*
X17735Y22715D01*
X17809Y22687D01*
X17878Y22673D01*
X17929Y22664D01*
X17952Y22660D01*
X17980D01*
X18035Y22664D01*
X18086Y22669D01*
X18183Y22692D01*
X18266Y22729D01*
X18336Y22771D01*
X18391Y22807D01*
X18433Y22844D01*
X18460Y22867D01*
X18465Y22877D01*
X18470D01*
X18502Y22923D01*
X18534Y22969D01*
X18580Y23075D01*
X18618Y23186D01*
X18641Y23297D01*
X18654Y23394D01*
X18659Y23436D01*
Y23473D01*
X18664Y23505D01*
Y23528D01*
Y23542D01*
Y23547D01*
X18659Y23625D01*
X18654Y23704D01*
X18645Y23773D01*
X18631Y23838D01*
X18618Y23898D01*
X18604Y23953D01*
X18585Y23999D01*
X18567Y24046D01*
X18548Y24083D01*
X18530Y24119D01*
X18516Y24147D01*
X18502Y24170D01*
X18488Y24189D01*
X18479Y24203D01*
X18470Y24207D01*
Y24212D01*
X18433Y24249D01*
X18391Y24286D01*
X18313Y24341D01*
X18229Y24378D01*
X18151Y24406D01*
X18082Y24424D01*
X18031Y24429D01*
X18008Y24434D01*
D02*
G37*
G36*
X13979Y24448D02*
X13956D01*
X13910Y24443D01*
X13863Y24438D01*
X13780Y24415D01*
X13706Y24378D01*
X13642Y24337D01*
X13591Y24295D01*
X13554Y24263D01*
X13531Y24235D01*
X13522Y24230D01*
Y24226D01*
X13489Y24184D01*
X13462Y24133D01*
X13415Y24027D01*
X13383Y23921D01*
X13360Y23815D01*
X13346Y23718D01*
X13341Y23676D01*
Y23639D01*
X13337Y23607D01*
Y23584D01*
Y23570D01*
Y23565D01*
Y23482D01*
X13346Y23403D01*
X13355Y23329D01*
X13364Y23260D01*
X13378Y23200D01*
X13397Y23145D01*
X13415Y23089D01*
X13429Y23048D01*
X13448Y23006D01*
X13466Y22974D01*
X13480Y22941D01*
X13498Y22918D01*
X13508Y22900D01*
X13517Y22886D01*
X13526Y22881D01*
Y22877D01*
X13563Y22840D01*
X13600Y22807D01*
X13674Y22752D01*
X13748Y22715D01*
X13817Y22687D01*
X13882Y22673D01*
X13928Y22664D01*
X13947Y22660D01*
X13974D01*
X14021Y22664D01*
X14067Y22669D01*
X14150Y22692D01*
X14224Y22729D01*
X14288Y22766D01*
X14339Y22803D01*
X14376Y22840D01*
X14399Y22863D01*
X14409Y22872D01*
X14441Y22914D01*
X14469Y22960D01*
X14515Y23066D01*
X14543Y23172D01*
X14566Y23283D01*
X14580Y23380D01*
X14584Y23422D01*
Y23459D01*
X14589Y23491D01*
Y23514D01*
Y23528D01*
Y23533D01*
Y23616D01*
X14580Y23690D01*
X14570Y23759D01*
X14561Y23829D01*
X14543Y23889D01*
X14529Y23944D01*
X14510Y23995D01*
X14492Y24041D01*
X14478Y24078D01*
X14459Y24115D01*
X14441Y24143D01*
X14427Y24170D01*
X14418Y24189D01*
X14409Y24203D01*
X14399Y24207D01*
Y24212D01*
X14363Y24253D01*
X14325Y24291D01*
X14288Y24323D01*
X14247Y24351D01*
X14173Y24392D01*
X14104Y24420D01*
X14044Y24434D01*
X13997Y24443D01*
X13979Y24448D01*
D02*
G37*
G36*
X26222Y31374D02*
X25464D01*
X25363Y31364D01*
X25284Y31360D01*
X25215Y31350D01*
X25164Y31341D01*
X25132Y31337D01*
X25109Y31327D01*
X25104D01*
X25053Y31309D01*
X25007Y31281D01*
X24970Y31253D01*
X24938Y31226D01*
X24915Y31203D01*
X24896Y31180D01*
X24887Y31166D01*
X24882Y31161D01*
X24855Y31115D01*
X24836Y31069D01*
X24822Y31023D01*
X24813Y30976D01*
X24808Y30939D01*
X24804Y30912D01*
Y30893D01*
Y30884D01*
X24808Y30824D01*
X24817Y30768D01*
X24831Y30722D01*
X24845Y30685D01*
X24859Y30653D01*
X24873Y30625D01*
X24882Y30611D01*
X24887Y30607D01*
X24919Y30570D01*
X24961Y30533D01*
X25002Y30505D01*
X25039Y30487D01*
X25076Y30468D01*
X25104Y30454D01*
X25122Y30450D01*
X25132Y30445D01*
X25183Y30436D01*
X25247Y30426D01*
X25312Y30422D01*
X25376Y30417D01*
X25437Y30413D01*
X26222D01*
Y31374D01*
D02*
G37*
G36*
Y30034D02*
X25381D01*
X25284Y30025D01*
X25206Y30015D01*
X25141Y30006D01*
X25090Y29997D01*
X25049Y29988D01*
X25030Y29983D01*
X25021Y29978D01*
X24961Y29955D01*
X24910Y29928D01*
X24864Y29895D01*
X24827Y29863D01*
X24799Y29835D01*
X24781Y29812D01*
X24767Y29794D01*
X24762Y29789D01*
X24730Y29738D01*
X24707Y29687D01*
X24688Y29636D01*
X24679Y29590D01*
X24670Y29549D01*
X24665Y29512D01*
Y29493D01*
Y29484D01*
X24670Y29429D01*
X24674Y29373D01*
X24683Y29327D01*
X24697Y29290D01*
X24711Y29258D01*
X24721Y29230D01*
X24725Y29216D01*
X24730Y29212D01*
X24757Y29170D01*
X24781Y29133D01*
X24813Y29105D01*
X24836Y29078D01*
X24859Y29059D01*
X24878Y29045D01*
X24891Y29036D01*
X24896Y29031D01*
X24975Y28994D01*
X25053Y28967D01*
X25085Y28957D01*
X25113Y28953D01*
X25132Y28948D01*
X25136D01*
X25173Y28943D01*
X25215Y28939D01*
X25312Y28934D01*
X26222D01*
Y30034D01*
D02*
G37*
G36*
X23219Y31397D02*
X22212D01*
X22087Y31392D01*
X21981Y31374D01*
X21888Y31350D01*
X21819Y31323D01*
X21759Y31295D01*
X21722Y31272D01*
X21699Y31253D01*
X21690Y31249D01*
X21634Y31189D01*
X21593Y31129D01*
X21565Y31064D01*
X21542Y31009D01*
X21533Y30953D01*
X21528Y30912D01*
X21523Y30884D01*
Y30879D01*
Y30875D01*
X21528Y30819D01*
X21537Y30764D01*
X21551Y30718D01*
X21565Y30676D01*
X21584Y30639D01*
X21597Y30611D01*
X21607Y30593D01*
X21611Y30588D01*
X21644Y30542D01*
X21685Y30501D01*
X21727Y30468D01*
X21768Y30440D01*
X21805Y30422D01*
X21833Y30408D01*
X21851Y30399D01*
X21861Y30394D01*
X21925Y30376D01*
X21999Y30362D01*
X22073Y30353D01*
X22147Y30348D01*
X22212Y30343D01*
X22267Y30339D01*
X23219D01*
Y31397D01*
D02*
G37*
%LPD*%
M02*
