G04*
G04 #@! TF.GenerationSoftware,Altium Limited,Altium Designer,25.0.2 (28)*
G04*
G04 Layer_Color=65535*
%FSLAX25Y25*%
%MOIN*%
G70*
G04*
G04 #@! TF.SameCoordinates,04528678-07C5-4B7D-9F9D-9FCF3C40A8B5*
G04*
G04*
G04 #@! TF.FilePolarity,Positive*
G04*
G01*
G75*
%ADD10C,0.01000*%
%ADD11C,0.00984*%
%ADD12C,0.00787*%
G36*
X34611Y32682D02*
X34614Y32675D01*
X34625Y32660D01*
X34640Y32642D01*
X34654Y32620D01*
X34672Y32595D01*
X34694Y32562D01*
X34716Y32529D01*
X34763Y32453D01*
X34814Y32365D01*
X34862Y32274D01*
X34902Y32176D01*
Y32172D01*
X34905Y32165D01*
X34909Y32151D01*
X34916Y32132D01*
X34924Y32107D01*
X34934Y32078D01*
X34942Y32045D01*
X34949Y32012D01*
X34967Y31932D01*
X34985Y31841D01*
X34996Y31743D01*
X35000Y31641D01*
Y31605D01*
X34996Y31579D01*
Y31546D01*
X34993Y31506D01*
X34985Y31463D01*
X34982Y31415D01*
X34960Y31310D01*
X34934Y31197D01*
X34894Y31080D01*
X34873Y31022D01*
X34844Y30964D01*
X34840Y30960D01*
X34836Y30949D01*
X34825Y30935D01*
X34814Y30913D01*
X34796Y30887D01*
X34778Y30862D01*
X34727Y30793D01*
X34661Y30720D01*
X34581Y30644D01*
X34490Y30571D01*
X34385Y30505D01*
X34381D01*
X34370Y30498D01*
X34356Y30491D01*
X34330Y30480D01*
X34305Y30469D01*
X34268Y30458D01*
X34232Y30443D01*
X34188Y30429D01*
X34141Y30414D01*
X34086Y30400D01*
X34032Y30389D01*
X33974Y30378D01*
X33846Y30360D01*
X33711Y30352D01*
X33708D01*
X33693D01*
X33675D01*
X33650Y30356D01*
X33617D01*
X33577Y30360D01*
X33537Y30367D01*
X33489Y30371D01*
X33438Y30382D01*
X33384Y30389D01*
X33267Y30418D01*
X33147Y30454D01*
X33027Y30505D01*
X33024Y30509D01*
X33013Y30513D01*
X32998Y30520D01*
X32976Y30534D01*
X32947Y30549D01*
X32918Y30567D01*
X32849Y30618D01*
X32769Y30680D01*
X32692Y30757D01*
X32616Y30844D01*
X32583Y30895D01*
X32550Y30946D01*
X32547Y30949D01*
X32543Y30960D01*
X32536Y30975D01*
X32525Y30997D01*
X32514Y31026D01*
X32499Y31059D01*
X32485Y31095D01*
X32470Y31139D01*
X32456Y31186D01*
X32445Y31237D01*
X32430Y31292D01*
X32419Y31350D01*
X32401Y31477D01*
X32394Y31543D01*
Y31659D01*
X32397Y31681D01*
Y31710D01*
X32405Y31779D01*
X32416Y31856D01*
X32434Y31936D01*
X32456Y32023D01*
X32485Y32107D01*
Y32111D01*
X32488Y32118D01*
X32492Y32129D01*
X32499Y32143D01*
X32521Y32183D01*
X32547Y32234D01*
X32583Y32289D01*
X32627Y32347D01*
X32674Y32402D01*
X32732Y32453D01*
X32740Y32460D01*
X32761Y32475D01*
X32794Y32496D01*
X32842Y32526D01*
X32900Y32555D01*
X32972Y32587D01*
X33053Y32620D01*
X33144Y32646D01*
X33224Y32344D01*
X33220D01*
X33216Y32340D01*
X33206Y32336D01*
X33191Y32333D01*
X33158Y32322D01*
X33114Y32307D01*
X33064Y32285D01*
X33016Y32260D01*
X32965Y32234D01*
X32922Y32202D01*
X32918Y32198D01*
X32903Y32187D01*
X32885Y32165D01*
X32860Y32140D01*
X32831Y32107D01*
X32801Y32063D01*
X32772Y32016D01*
X32747Y31961D01*
X32743Y31954D01*
X32736Y31936D01*
X32725Y31903D01*
X32710Y31859D01*
X32699Y31808D01*
X32689Y31750D01*
X32681Y31685D01*
X32678Y31615D01*
Y31576D01*
X32681Y31557D01*
Y31535D01*
X32685Y31481D01*
X32696Y31419D01*
X32707Y31350D01*
X32725Y31284D01*
X32750Y31219D01*
X32754Y31212D01*
X32761Y31190D01*
X32780Y31161D01*
X32798Y31124D01*
X32827Y31080D01*
X32856Y31033D01*
X32892Y30989D01*
X32932Y30949D01*
X32936Y30946D01*
X32951Y30931D01*
X32976Y30913D01*
X33005Y30891D01*
X33042Y30866D01*
X33085Y30840D01*
X33133Y30815D01*
X33184Y30789D01*
X33187D01*
X33195Y30786D01*
X33206Y30782D01*
X33224Y30775D01*
X33246Y30767D01*
X33271Y30760D01*
X33300Y30749D01*
X33333Y30742D01*
X33409Y30724D01*
X33497Y30709D01*
X33588Y30698D01*
X33690Y30695D01*
X33693D01*
X33704D01*
X33722D01*
X33744Y30698D01*
X33773D01*
X33810Y30702D01*
X33846Y30705D01*
X33886Y30709D01*
X33977Y30724D01*
X34072Y30742D01*
X34166Y30771D01*
X34257Y30807D01*
X34261D01*
X34268Y30815D01*
X34279Y30818D01*
X34294Y30829D01*
X34334Y30855D01*
X34385Y30895D01*
X34439Y30942D01*
X34494Y31000D01*
X34545Y31069D01*
X34592Y31146D01*
Y31150D01*
X34596Y31157D01*
X34603Y31168D01*
X34611Y31186D01*
X34618Y31204D01*
X34625Y31230D01*
X34647Y31288D01*
X34665Y31361D01*
X34683Y31441D01*
X34698Y31528D01*
X34701Y31619D01*
Y31656D01*
X34698Y31677D01*
Y31699D01*
X34691Y31754D01*
X34683Y31819D01*
X34669Y31888D01*
X34647Y31965D01*
X34621Y32041D01*
Y32045D01*
X34618Y32052D01*
X34614Y32060D01*
X34607Y32074D01*
X34589Y32114D01*
X34567Y32158D01*
X34541Y32209D01*
X34512Y32263D01*
X34479Y32314D01*
X34443Y32358D01*
X33970D01*
Y31615D01*
X33671D01*
Y32686D01*
X34607D01*
X34611Y32682D01*
D02*
G37*
G36*
X34956Y29515D02*
X32437D01*
Y29850D01*
X34956D01*
Y29515D01*
D02*
G37*
G36*
X34323Y28995D02*
X34374Y28987D01*
X34432Y28973D01*
X34494Y28955D01*
X34560Y28926D01*
X34629Y28885D01*
X34632D01*
X34636Y28882D01*
X34658Y28864D01*
X34691Y28838D01*
X34727Y28802D01*
X34771Y28754D01*
X34818Y28696D01*
X34862Y28631D01*
X34902Y28554D01*
Y28551D01*
X34905Y28543D01*
X34909Y28532D01*
X34916Y28518D01*
X34924Y28496D01*
X34934Y28471D01*
X34949Y28412D01*
X34967Y28343D01*
X34985Y28259D01*
X34996Y28168D01*
X35000Y28070D01*
Y28012D01*
X34996Y27983D01*
Y27950D01*
X34993Y27914D01*
X34989Y27870D01*
X34975Y27779D01*
X34960Y27684D01*
X34934Y27590D01*
X34902Y27499D01*
Y27495D01*
X34898Y27488D01*
X34891Y27477D01*
X34883Y27462D01*
X34862Y27419D01*
X34829Y27368D01*
X34785Y27309D01*
X34734Y27248D01*
X34672Y27189D01*
X34603Y27135D01*
X34600D01*
X34592Y27127D01*
X34581Y27124D01*
X34567Y27113D01*
X34549Y27106D01*
X34527Y27095D01*
X34472Y27069D01*
X34403Y27044D01*
X34327Y27022D01*
X34239Y27007D01*
X34148Y27000D01*
X34119Y27313D01*
X34123D01*
X34126D01*
X34137Y27317D01*
X34152D01*
X34185Y27324D01*
X34232Y27335D01*
X34279Y27349D01*
X34334Y27364D01*
X34385Y27389D01*
X34432Y27415D01*
X34436Y27419D01*
X34450Y27430D01*
X34476Y27448D01*
X34501Y27477D01*
X34534Y27513D01*
X34567Y27553D01*
X34600Y27608D01*
X34629Y27666D01*
Y27670D01*
X34632Y27673D01*
X34636Y27684D01*
X34640Y27695D01*
X34651Y27732D01*
X34665Y27779D01*
X34680Y27837D01*
X34691Y27903D01*
X34698Y27975D01*
X34701Y28056D01*
Y28088D01*
X34698Y28125D01*
X34694Y28168D01*
X34687Y28219D01*
X34680Y28278D01*
X34665Y28336D01*
X34647Y28390D01*
X34643Y28398D01*
X34636Y28416D01*
X34621Y28441D01*
X34607Y28474D01*
X34581Y28507D01*
X34556Y28543D01*
X34527Y28580D01*
X34490Y28609D01*
X34487Y28613D01*
X34472Y28620D01*
X34454Y28631D01*
X34425Y28645D01*
X34396Y28660D01*
X34359Y28671D01*
X34319Y28678D01*
X34276Y28682D01*
X34272D01*
X34254D01*
X34232Y28678D01*
X34203Y28674D01*
X34174Y28664D01*
X34137Y28653D01*
X34101Y28634D01*
X34068Y28609D01*
X34064Y28605D01*
X34054Y28594D01*
X34039Y28580D01*
X34017Y28554D01*
X33995Y28525D01*
X33970Y28485D01*
X33944Y28438D01*
X33923Y28383D01*
X33919Y28380D01*
X33915Y28361D01*
X33904Y28332D01*
X33901Y28314D01*
X33893Y28289D01*
X33882Y28263D01*
X33875Y28230D01*
X33864Y28194D01*
X33853Y28150D01*
X33843Y28107D01*
X33828Y28056D01*
X33813Y27997D01*
X33799Y27935D01*
Y27932D01*
X33795Y27921D01*
X33792Y27903D01*
X33784Y27881D01*
X33777Y27852D01*
X33770Y27819D01*
X33748Y27746D01*
X33722Y27666D01*
X33697Y27582D01*
X33671Y27510D01*
X33657Y27477D01*
X33642Y27448D01*
Y27444D01*
X33639Y27440D01*
X33624Y27419D01*
X33606Y27386D01*
X33577Y27349D01*
X33544Y27306D01*
X33504Y27262D01*
X33457Y27218D01*
X33406Y27182D01*
X33398Y27178D01*
X33380Y27167D01*
X33351Y27153D01*
X33315Y27138D01*
X33267Y27124D01*
X33213Y27109D01*
X33154Y27098D01*
X33093Y27095D01*
X33089D01*
X33085D01*
X33074D01*
X33060D01*
X33024Y27102D01*
X32976Y27109D01*
X32922Y27120D01*
X32860Y27138D01*
X32798Y27164D01*
X32736Y27200D01*
X32732D01*
X32729Y27204D01*
X32707Y27222D01*
X32678Y27248D01*
X32641Y27280D01*
X32601Y27324D01*
X32558Y27379D01*
X32517Y27444D01*
X32481Y27517D01*
Y27520D01*
X32478Y27528D01*
X32474Y27539D01*
X32467Y27553D01*
X32459Y27571D01*
X32452Y27597D01*
X32437Y27652D01*
X32423Y27721D01*
X32408Y27801D01*
X32397Y27885D01*
X32394Y27979D01*
Y28027D01*
X32397Y28052D01*
Y28077D01*
X32405Y28147D01*
X32416Y28223D01*
X32434Y28303D01*
X32456Y28390D01*
X32485Y28471D01*
Y28474D01*
X32488Y28482D01*
X32496Y28492D01*
X32503Y28507D01*
X32521Y28543D01*
X32554Y28591D01*
X32590Y28645D01*
X32638Y28700D01*
X32692Y28751D01*
X32754Y28798D01*
X32758D01*
X32761Y28802D01*
X32772Y28809D01*
X32783Y28816D01*
X32820Y28835D01*
X32867Y28856D01*
X32925Y28882D01*
X32994Y28900D01*
X33067Y28918D01*
X33147Y28926D01*
X33173Y28605D01*
X33169D01*
X33162D01*
X33151Y28602D01*
X33133Y28598D01*
X33093Y28587D01*
X33038Y28572D01*
X32980Y28551D01*
X32922Y28518D01*
X32867Y28478D01*
X32816Y28427D01*
X32812Y28420D01*
X32798Y28401D01*
X32776Y28365D01*
X32754Y28318D01*
X32732Y28256D01*
X32710Y28183D01*
X32696Y28092D01*
X32692Y27990D01*
Y27939D01*
X32696Y27917D01*
X32699Y27888D01*
X32707Y27823D01*
X32721Y27750D01*
X32740Y27677D01*
X32769Y27608D01*
X32787Y27579D01*
X32805Y27550D01*
X32809Y27542D01*
X32823Y27528D01*
X32849Y27506D01*
X32878Y27484D01*
X32918Y27459D01*
X32962Y27437D01*
X33013Y27422D01*
X33071Y27415D01*
X33078D01*
X33093D01*
X33118Y27419D01*
X33147Y27426D01*
X33184Y27437D01*
X33220Y27455D01*
X33256Y27477D01*
X33293Y27510D01*
X33296Y27513D01*
X33307Y27531D01*
X33318Y27546D01*
X33326Y27561D01*
X33336Y27582D01*
X33351Y27608D01*
X33362Y27641D01*
X33377Y27677D01*
X33391Y27717D01*
X33409Y27764D01*
X33424Y27815D01*
X33442Y27874D01*
X33457Y27939D01*
X33475Y28012D01*
Y28016D01*
X33479Y28030D01*
X33482Y28052D01*
X33489Y28077D01*
X33497Y28110D01*
X33508Y28150D01*
X33518Y28190D01*
X33529Y28234D01*
X33555Y28329D01*
X33580Y28420D01*
X33595Y28463D01*
X33610Y28503D01*
X33620Y28540D01*
X33635Y28569D01*
Y28572D01*
X33639Y28580D01*
X33646Y28591D01*
X33653Y28605D01*
X33675Y28645D01*
X33704Y28693D01*
X33744Y28747D01*
X33788Y28802D01*
X33839Y28853D01*
X33893Y28896D01*
X33901Y28900D01*
X33919Y28915D01*
X33952Y28929D01*
X33995Y28951D01*
X34046Y28969D01*
X34108Y28987D01*
X34177Y28998D01*
X34250Y29002D01*
X34254D01*
X34257D01*
X34268D01*
X34283D01*
X34323Y28995D01*
D02*
G37*
G36*
X23759Y33444D02*
X23788D01*
X23857Y33440D01*
X23937Y33429D01*
X24021Y33418D01*
X24108Y33400D01*
X24196Y33378D01*
X24199D01*
X24206Y33375D01*
X24217Y33371D01*
X24232Y33367D01*
X24272Y33353D01*
X24323Y33331D01*
X24381Y33309D01*
X24439Y33280D01*
X24501Y33244D01*
X24560Y33207D01*
X24567Y33204D01*
X24585Y33189D01*
X24611Y33167D01*
X24643Y33138D01*
X24680Y33105D01*
X24716Y33065D01*
X24756Y33025D01*
X24789Y32978D01*
X24792Y32971D01*
X24803Y32956D01*
X24818Y32931D01*
X24836Y32894D01*
X24858Y32851D01*
X24876Y32800D01*
X24898Y32741D01*
X24916Y32676D01*
Y32669D01*
X24920Y32658D01*
X24924Y32647D01*
X24927Y32610D01*
X24935Y32559D01*
X24942Y32501D01*
X24949Y32432D01*
X24953Y32355D01*
X24956Y32272D01*
Y31365D01*
X22437D01*
Y32334D01*
X22441Y32399D01*
X22445Y32472D01*
X22452Y32545D01*
X22463Y32618D01*
X22474Y32679D01*
Y32683D01*
X22478Y32690D01*
Y32701D01*
X22485Y32716D01*
X22496Y32756D01*
X22514Y32807D01*
X22539Y32865D01*
X22572Y32927D01*
X22609Y32989D01*
X22656Y33047D01*
X22659Y33051D01*
X22663Y33054D01*
X22674Y33065D01*
X22685Y33080D01*
X22721Y33116D01*
X22772Y33160D01*
X22834Y33207D01*
X22907Y33258D01*
X22991Y33305D01*
X23085Y33345D01*
X23089D01*
X23096Y33349D01*
X23111Y33356D01*
X23133Y33360D01*
X23158Y33371D01*
X23187Y33378D01*
X23220Y33386D01*
X23260Y33397D01*
X23300Y33407D01*
X23347Y33415D01*
X23449Y33433D01*
X23562Y33444D01*
X23686Y33447D01*
X23690D01*
X23697D01*
X23715D01*
X23733D01*
X23759Y33444D01*
D02*
G37*
G36*
X24956Y30459D02*
X22980Y29141D01*
X24956D01*
Y28821D01*
X22437D01*
Y29163D01*
X24418Y30485D01*
X22437D01*
Y30805D01*
X24956D01*
Y30459D01*
D02*
G37*
G36*
X24611Y28330D02*
X24614Y28322D01*
X24625Y28308D01*
X24640Y28290D01*
X24654Y28268D01*
X24672Y28242D01*
X24694Y28209D01*
X24716Y28177D01*
X24763Y28100D01*
X24814Y28013D01*
X24862Y27922D01*
X24902Y27824D01*
Y27820D01*
X24905Y27813D01*
X24909Y27798D01*
X24916Y27780D01*
X24924Y27755D01*
X24935Y27725D01*
X24942Y27693D01*
X24949Y27660D01*
X24967Y27580D01*
X24985Y27489D01*
X24996Y27391D01*
X25000Y27289D01*
Y27252D01*
X24996Y27227D01*
Y27194D01*
X24993Y27154D01*
X24985Y27110D01*
X24982Y27063D01*
X24960Y26957D01*
X24935Y26844D01*
X24894Y26728D01*
X24873Y26670D01*
X24844Y26612D01*
X24840Y26608D01*
X24836Y26597D01*
X24825Y26582D01*
X24814Y26561D01*
X24796Y26535D01*
X24778Y26510D01*
X24727Y26440D01*
X24661Y26368D01*
X24581Y26291D01*
X24490Y26218D01*
X24385Y26153D01*
X24381D01*
X24370Y26146D01*
X24356Y26138D01*
X24330Y26127D01*
X24305Y26116D01*
X24268Y26106D01*
X24232Y26091D01*
X24188Y26076D01*
X24141Y26062D01*
X24086Y26047D01*
X24032Y26036D01*
X23974Y26026D01*
X23846Y26007D01*
X23711Y26000D01*
X23708D01*
X23693D01*
X23675D01*
X23650Y26004D01*
X23617D01*
X23577Y26007D01*
X23537Y26015D01*
X23489Y26018D01*
X23438Y26029D01*
X23384Y26036D01*
X23267Y26065D01*
X23147Y26102D01*
X23027Y26153D01*
X23023Y26156D01*
X23013Y26160D01*
X22998Y26167D01*
X22976Y26182D01*
X22947Y26197D01*
X22918Y26215D01*
X22849Y26266D01*
X22769Y26328D01*
X22692Y26404D01*
X22616Y26491D01*
X22583Y26542D01*
X22550Y26593D01*
X22547Y26597D01*
X22543Y26608D01*
X22536Y26622D01*
X22525Y26644D01*
X22514Y26673D01*
X22499Y26706D01*
X22485Y26743D01*
X22470Y26786D01*
X22456Y26834D01*
X22445Y26884D01*
X22430Y26939D01*
X22419Y26997D01*
X22401Y27125D01*
X22394Y27190D01*
Y27307D01*
X22397Y27329D01*
Y27358D01*
X22405Y27427D01*
X22416Y27503D01*
X22434Y27583D01*
X22456Y27671D01*
X22485Y27755D01*
Y27758D01*
X22488Y27765D01*
X22492Y27776D01*
X22499Y27791D01*
X22521Y27831D01*
X22547Y27882D01*
X22583Y27937D01*
X22627Y27995D01*
X22674Y28049D01*
X22732Y28100D01*
X22740Y28108D01*
X22761Y28122D01*
X22794Y28144D01*
X22841Y28173D01*
X22900Y28202D01*
X22973Y28235D01*
X23053Y28268D01*
X23144Y28293D01*
X23224Y27991D01*
X23220D01*
X23216Y27987D01*
X23205Y27984D01*
X23191Y27980D01*
X23158Y27969D01*
X23114Y27955D01*
X23064Y27933D01*
X23016Y27907D01*
X22965Y27882D01*
X22922Y27849D01*
X22918Y27845D01*
X22903Y27835D01*
X22885Y27813D01*
X22860Y27787D01*
X22831Y27755D01*
X22801Y27711D01*
X22772Y27663D01*
X22747Y27609D01*
X22743Y27602D01*
X22736Y27583D01*
X22725Y27551D01*
X22710Y27507D01*
X22700Y27456D01*
X22689Y27398D01*
X22681Y27332D01*
X22678Y27263D01*
Y27223D01*
X22681Y27205D01*
Y27183D01*
X22685Y27128D01*
X22696Y27066D01*
X22707Y26997D01*
X22725Y26932D01*
X22750Y26866D01*
X22754Y26859D01*
X22761Y26837D01*
X22780Y26808D01*
X22798Y26772D01*
X22827Y26728D01*
X22856Y26681D01*
X22892Y26637D01*
X22932Y26597D01*
X22936Y26593D01*
X22951Y26579D01*
X22976Y26561D01*
X23005Y26539D01*
X23042Y26513D01*
X23085Y26488D01*
X23133Y26462D01*
X23184Y26437D01*
X23187D01*
X23195Y26433D01*
X23205Y26430D01*
X23224Y26422D01*
X23246Y26415D01*
X23271Y26408D01*
X23300Y26397D01*
X23333Y26390D01*
X23409Y26371D01*
X23497Y26357D01*
X23588Y26346D01*
X23690Y26342D01*
X23693D01*
X23704D01*
X23722D01*
X23744Y26346D01*
X23773D01*
X23810Y26349D01*
X23846Y26353D01*
X23886Y26357D01*
X23977Y26371D01*
X24072Y26390D01*
X24166Y26419D01*
X24257Y26455D01*
X24261D01*
X24268Y26462D01*
X24279Y26466D01*
X24294Y26477D01*
X24334Y26502D01*
X24385Y26542D01*
X24439Y26590D01*
X24494Y26648D01*
X24545Y26717D01*
X24592Y26794D01*
Y26797D01*
X24596Y26804D01*
X24603Y26815D01*
X24611Y26834D01*
X24618Y26852D01*
X24625Y26877D01*
X24647Y26935D01*
X24665Y27008D01*
X24683Y27088D01*
X24698Y27176D01*
X24701Y27267D01*
Y27303D01*
X24698Y27325D01*
Y27347D01*
X24691Y27401D01*
X24683Y27467D01*
X24669Y27536D01*
X24647Y27613D01*
X24621Y27689D01*
Y27693D01*
X24618Y27700D01*
X24614Y27707D01*
X24607Y27722D01*
X24589Y27762D01*
X24567Y27805D01*
X24541Y27856D01*
X24512Y27911D01*
X24479Y27962D01*
X24443Y28006D01*
X23970D01*
Y27263D01*
X23671D01*
Y28333D01*
X24607D01*
X24611Y28330D01*
D02*
G37*
G36*
X13845Y33324D02*
X13859Y33320D01*
X13881Y33317D01*
X13910Y33309D01*
X13939Y33302D01*
X14012Y33277D01*
X14089Y33244D01*
X14172Y33197D01*
X14253Y33138D01*
X14289Y33106D01*
X14325Y33069D01*
X14329Y33066D01*
X14333Y33058D01*
X14340Y33047D01*
X14351Y33033D01*
X14365Y33015D01*
X14380Y32989D01*
X14394Y32960D01*
X14413Y32931D01*
X14445Y32858D01*
X14471Y32771D01*
X14493Y32676D01*
X14496Y32621D01*
X14500Y32567D01*
Y32531D01*
X14496Y32505D01*
X14493Y32472D01*
X14485Y32436D01*
X14478Y32396D01*
X14471Y32352D01*
X14442Y32254D01*
X14420Y32206D01*
X14398Y32156D01*
X14369Y32105D01*
X14336Y32057D01*
X14300Y32010D01*
X14256Y31966D01*
X14253Y31963D01*
X14245Y31955D01*
X14231Y31944D01*
X14212Y31930D01*
X14187Y31915D01*
X14154Y31894D01*
X14118Y31875D01*
X14078Y31853D01*
X14030Y31832D01*
X13976Y31813D01*
X13921Y31792D01*
X13856Y31777D01*
X13790Y31762D01*
X13714Y31751D01*
X13637Y31744D01*
X13554Y31741D01*
X13550D01*
X13539D01*
X13524D01*
X13503D01*
X13477Y31744D01*
X13448D01*
X13415Y31748D01*
X13379Y31751D01*
X13299Y31762D01*
X13211Y31781D01*
X13124Y31802D01*
X13037Y31835D01*
X13033D01*
X13026Y31839D01*
X13015Y31846D01*
X13000Y31853D01*
X12960Y31875D01*
X12913Y31908D01*
X12858Y31952D01*
X12804Y32003D01*
X12749Y32065D01*
X12706Y32134D01*
Y32137D01*
X12702Y32145D01*
X12695Y32156D01*
X12687Y32170D01*
X12680Y32188D01*
X12669Y32210D01*
X12647Y32265D01*
X12629Y32327D01*
X12611Y32403D01*
X12596Y32483D01*
X12593Y32570D01*
Y32600D01*
X12596Y32621D01*
Y32643D01*
X12600Y32672D01*
X12611Y32742D01*
X12629Y32818D01*
X12658Y32898D01*
X12695Y32978D01*
X12745Y33055D01*
Y33058D01*
X12753Y33062D01*
X12775Y33084D01*
X12807Y33116D01*
X12855Y33157D01*
X12913Y33197D01*
X12986Y33237D01*
X13070Y33273D01*
X13168Y33299D01*
X13215Y32996D01*
X13211D01*
X13208Y32993D01*
X13186Y32989D01*
X13153Y32978D01*
X13113Y32960D01*
X13070Y32942D01*
X13022Y32913D01*
X12979Y32880D01*
X12942Y32844D01*
X12938Y32840D01*
X12927Y32825D01*
X12913Y32800D01*
X12895Y32771D01*
X12877Y32731D01*
X12862Y32687D01*
X12851Y32636D01*
X12847Y32581D01*
Y32560D01*
X12851Y32541D01*
X12855Y32501D01*
X12869Y32447D01*
X12888Y32388D01*
X12917Y32323D01*
X12960Y32261D01*
X12986Y32232D01*
X13015Y32203D01*
X13018D01*
X13022Y32196D01*
X13033Y32188D01*
X13048Y32181D01*
X13066Y32170D01*
X13088Y32156D01*
X13113Y32145D01*
X13142Y32130D01*
X13179Y32116D01*
X13219Y32105D01*
X13262Y32090D01*
X13310Y32079D01*
X13361Y32072D01*
X13419Y32065D01*
X13481Y32057D01*
X13546D01*
X13550D01*
X13561D01*
X13583D01*
X13605Y32061D01*
X13637D01*
X13670Y32065D01*
X13750Y32076D01*
X13837Y32090D01*
X13928Y32116D01*
X14009Y32148D01*
X14049Y32170D01*
X14081Y32196D01*
X14089Y32203D01*
X14107Y32221D01*
X14132Y32254D01*
X14162Y32294D01*
X14194Y32348D01*
X14220Y32410D01*
X14238Y32483D01*
X14242Y32523D01*
X14245Y32563D01*
Y32570D01*
X14242Y32592D01*
X14238Y32629D01*
X14231Y32669D01*
X14220Y32716D01*
X14198Y32767D01*
X14172Y32818D01*
X14136Y32865D01*
X14132Y32873D01*
X14114Y32884D01*
X14089Y32905D01*
X14049Y32931D01*
X14001Y32956D01*
X13943Y32985D01*
X13870Y33007D01*
X13790Y33022D01*
X13830Y33328D01*
X13834D01*
X13845Y33324D01*
D02*
G37*
G36*
Y31562D02*
X13859Y31559D01*
X13881Y31555D01*
X13910Y31548D01*
X13939Y31540D01*
X14012Y31515D01*
X14089Y31482D01*
X14172Y31435D01*
X14253Y31377D01*
X14289Y31344D01*
X14325Y31307D01*
X14329Y31304D01*
X14333Y31297D01*
X14340Y31286D01*
X14351Y31271D01*
X14365Y31253D01*
X14380Y31227D01*
X14394Y31198D01*
X14413Y31169D01*
X14445Y31096D01*
X14471Y31009D01*
X14493Y30914D01*
X14496Y30860D01*
X14500Y30805D01*
Y30769D01*
X14496Y30743D01*
X14493Y30711D01*
X14485Y30674D01*
X14478Y30634D01*
X14471Y30590D01*
X14442Y30492D01*
X14420Y30445D01*
X14398Y30394D01*
X14369Y30343D01*
X14336Y30296D01*
X14300Y30248D01*
X14256Y30204D01*
X14253Y30201D01*
X14245Y30194D01*
X14231Y30183D01*
X14212Y30168D01*
X14187Y30154D01*
X14154Y30132D01*
X14118Y30114D01*
X14078Y30092D01*
X14030Y30070D01*
X13976Y30052D01*
X13921Y30030D01*
X13856Y30015D01*
X13790Y30001D01*
X13714Y29990D01*
X13637Y29983D01*
X13554Y29979D01*
X13550D01*
X13539D01*
X13524D01*
X13503D01*
X13477Y29983D01*
X13448D01*
X13415Y29986D01*
X13379Y29990D01*
X13299Y30001D01*
X13211Y30019D01*
X13124Y30041D01*
X13037Y30073D01*
X13033D01*
X13026Y30077D01*
X13015Y30084D01*
X13000Y30092D01*
X12960Y30114D01*
X12913Y30146D01*
X12858Y30190D01*
X12804Y30241D01*
X12749Y30303D01*
X12706Y30372D01*
Y30376D01*
X12702Y30383D01*
X12695Y30394D01*
X12687Y30408D01*
X12680Y30427D01*
X12669Y30448D01*
X12647Y30503D01*
X12629Y30565D01*
X12611Y30641D01*
X12596Y30721D01*
X12593Y30809D01*
Y30838D01*
X12596Y30860D01*
Y30882D01*
X12600Y30911D01*
X12611Y30980D01*
X12629Y31056D01*
X12658Y31136D01*
X12695Y31216D01*
X12745Y31293D01*
Y31297D01*
X12753Y31300D01*
X12775Y31322D01*
X12807Y31355D01*
X12855Y31395D01*
X12913Y31435D01*
X12986Y31475D01*
X13070Y31511D01*
X13168Y31537D01*
X13215Y31235D01*
X13211D01*
X13208Y31231D01*
X13186Y31227D01*
X13153Y31216D01*
X13113Y31198D01*
X13070Y31180D01*
X13022Y31151D01*
X12979Y31118D01*
X12942Y31082D01*
X12938Y31078D01*
X12927Y31064D01*
X12913Y31038D01*
X12895Y31009D01*
X12877Y30969D01*
X12862Y30925D01*
X12851Y30874D01*
X12847Y30820D01*
Y30798D01*
X12851Y30780D01*
X12855Y30740D01*
X12869Y30685D01*
X12888Y30627D01*
X12917Y30561D01*
X12960Y30499D01*
X12986Y30470D01*
X13015Y30441D01*
X13018D01*
X13022Y30434D01*
X13033Y30427D01*
X13048Y30419D01*
X13066Y30408D01*
X13088Y30394D01*
X13113Y30383D01*
X13142Y30368D01*
X13179Y30354D01*
X13219Y30343D01*
X13262Y30328D01*
X13310Y30317D01*
X13361Y30310D01*
X13419Y30303D01*
X13481Y30296D01*
X13546D01*
X13550D01*
X13561D01*
X13583D01*
X13605Y30299D01*
X13637D01*
X13670Y30303D01*
X13750Y30314D01*
X13837Y30328D01*
X13928Y30354D01*
X14009Y30386D01*
X14049Y30408D01*
X14081Y30434D01*
X14089Y30441D01*
X14107Y30459D01*
X14132Y30492D01*
X14162Y30532D01*
X14194Y30587D01*
X14220Y30649D01*
X14238Y30721D01*
X14242Y30761D01*
X14245Y30801D01*
Y30809D01*
X14242Y30831D01*
X14238Y30867D01*
X14231Y30907D01*
X14220Y30954D01*
X14198Y31005D01*
X14172Y31056D01*
X14136Y31104D01*
X14132Y31111D01*
X14114Y31122D01*
X14089Y31144D01*
X14049Y31169D01*
X14001Y31195D01*
X13943Y31224D01*
X13870Y31246D01*
X13790Y31260D01*
X13830Y31566D01*
X13834D01*
X13845Y31562D01*
D02*
G37*
G36*
X14460Y28821D02*
Y28475D01*
X11941Y27500D01*
Y27864D01*
X13772Y28519D01*
X13776D01*
X13783Y28523D01*
X13794Y28526D01*
X13808Y28534D01*
X13830Y28537D01*
X13852Y28545D01*
X13907Y28563D01*
X13969Y28585D01*
X14038Y28607D01*
X14183Y28650D01*
X14180D01*
X14172Y28654D01*
X14162Y28657D01*
X14147Y28661D01*
X14107Y28672D01*
X14052Y28690D01*
X13990Y28708D01*
X13921Y28730D01*
X13848Y28756D01*
X13772Y28785D01*
X11941Y29469D01*
Y29808D01*
X14460Y28821D01*
D02*
G37*
G36*
X45863Y19735D02*
X45553D01*
Y21704D01*
X45550Y21701D01*
X45532Y21686D01*
X45510Y21664D01*
X45473Y21639D01*
X45433Y21606D01*
X45382Y21570D01*
X45324Y21530D01*
X45259Y21490D01*
X45255D01*
X45251Y21486D01*
X45230Y21471D01*
X45193Y21453D01*
X45149Y21431D01*
X45099Y21406D01*
X45044Y21380D01*
X44989Y21355D01*
X44935Y21333D01*
Y21632D01*
X44938D01*
X44946Y21639D01*
X44960Y21643D01*
X44978Y21653D01*
X45000Y21664D01*
X45026Y21679D01*
X45088Y21715D01*
X45160Y21755D01*
X45233Y21806D01*
X45310Y21865D01*
X45386Y21926D01*
X45390Y21930D01*
X45393Y21934D01*
X45404Y21945D01*
X45419Y21956D01*
X45452Y21992D01*
X45495Y22036D01*
X45539Y22086D01*
X45586Y22145D01*
X45626Y22203D01*
X45663Y22265D01*
X45863D01*
Y19735D01*
D02*
G37*
G36*
X43566Y22250D02*
X43628Y22247D01*
X43693Y22243D01*
X43755Y22236D01*
X43810Y22229D01*
X43817D01*
X43843Y22221D01*
X43875Y22214D01*
X43919Y22203D01*
X43966Y22185D01*
X44017Y22163D01*
X44072Y22138D01*
X44119Y22108D01*
X44127Y22105D01*
X44141Y22094D01*
X44163Y22072D01*
X44192Y22047D01*
X44225Y22014D01*
X44258Y21970D01*
X44294Y21923D01*
X44323Y21868D01*
X44327Y21861D01*
X44334Y21843D01*
X44349Y21810D01*
X44363Y21766D01*
X44374Y21715D01*
X44389Y21657D01*
X44396Y21591D01*
X44400Y21522D01*
Y21519D01*
Y21508D01*
Y21493D01*
X44396Y21468D01*
X44392Y21442D01*
X44389Y21409D01*
X44381Y21373D01*
X44374Y21333D01*
X44349Y21249D01*
X44334Y21206D01*
X44312Y21158D01*
X44287Y21111D01*
X44261Y21067D01*
X44229Y21024D01*
X44192Y20980D01*
X44188Y20976D01*
X44181Y20969D01*
X44170Y20958D01*
X44152Y20947D01*
X44130Y20929D01*
X44101Y20911D01*
X44065Y20889D01*
X44025Y20871D01*
X43977Y20849D01*
X43923Y20827D01*
X43865Y20809D01*
X43795Y20794D01*
X43723Y20780D01*
X43643Y20769D01*
X43551Y20762D01*
X43457Y20758D01*
X42812D01*
Y19735D01*
X42478D01*
Y22254D01*
X43511D01*
X43566Y22250D01*
D02*
G37*
G36*
X42132Y21956D02*
X41302D01*
Y19735D01*
X40967D01*
Y21956D01*
X40137D01*
Y22254D01*
X42132D01*
Y21956D01*
D02*
G37*
G36*
X21787Y20735D02*
X21478D01*
Y22704D01*
X21474Y22701D01*
X21456Y22686D01*
X21434Y22664D01*
X21398Y22639D01*
X21358Y22606D01*
X21307Y22570D01*
X21249Y22530D01*
X21183Y22490D01*
X21179D01*
X21176Y22486D01*
X21154Y22471D01*
X21117Y22453D01*
X21074Y22431D01*
X21023Y22406D01*
X20968Y22380D01*
X20914Y22355D01*
X20859Y22333D01*
Y22632D01*
X20863D01*
X20870Y22639D01*
X20885Y22643D01*
X20903Y22653D01*
X20925Y22664D01*
X20950Y22679D01*
X21012Y22715D01*
X21085Y22755D01*
X21158Y22806D01*
X21234Y22864D01*
X21310Y22926D01*
X21314Y22930D01*
X21318Y22934D01*
X21329Y22945D01*
X21343Y22955D01*
X21376Y22992D01*
X21420Y23036D01*
X21463Y23087D01*
X21511Y23145D01*
X21551Y23203D01*
X21587Y23265D01*
X21787D01*
Y20735D01*
D02*
G37*
G36*
X19410Y23250D02*
X19443D01*
X19520Y23247D01*
X19600Y23236D01*
X19687Y23225D01*
X19767Y23207D01*
X19807Y23196D01*
X19840Y23185D01*
X19843D01*
X19847Y23181D01*
X19869Y23170D01*
X19902Y23156D01*
X19942Y23130D01*
X19985Y23098D01*
X20033Y23054D01*
X20076Y23003D01*
X20120Y22945D01*
Y22941D01*
X20124Y22937D01*
X20138Y22916D01*
X20153Y22879D01*
X20175Y22832D01*
X20193Y22777D01*
X20211Y22712D01*
X20222Y22643D01*
X20226Y22566D01*
Y22562D01*
Y22555D01*
Y22540D01*
X20222Y22522D01*
Y22497D01*
X20218Y22471D01*
X20204Y22410D01*
X20182Y22337D01*
X20153Y22260D01*
X20109Y22184D01*
X20080Y22147D01*
X20051Y22111D01*
X20047Y22107D01*
X20044Y22104D01*
X20033Y22093D01*
X20018Y22082D01*
X20000Y22067D01*
X19978Y22053D01*
X19949Y22035D01*
X19920Y22013D01*
X19884Y21994D01*
X19843Y21976D01*
X19800Y21955D01*
X19752Y21936D01*
X19698Y21922D01*
X19643Y21903D01*
X19581Y21893D01*
X19516Y21882D01*
X19523Y21878D01*
X19538Y21871D01*
X19560Y21856D01*
X19589Y21842D01*
X19654Y21802D01*
X19687Y21776D01*
X19716Y21754D01*
X19723Y21747D01*
X19742Y21729D01*
X19771Y21700D01*
X19807Y21663D01*
X19847Y21612D01*
X19894Y21558D01*
X19942Y21492D01*
X19993Y21419D01*
X20426Y20735D01*
X20011D01*
X19680Y21259D01*
Y21263D01*
X19672Y21270D01*
X19665Y21281D01*
X19654Y21296D01*
X19629Y21336D01*
X19596Y21387D01*
X19556Y21441D01*
X19516Y21499D01*
X19476Y21554D01*
X19439Y21605D01*
X19436Y21609D01*
X19425Y21623D01*
X19407Y21645D01*
X19381Y21671D01*
X19327Y21725D01*
X19297Y21751D01*
X19268Y21772D01*
X19265Y21776D01*
X19257Y21780D01*
X19243Y21787D01*
X19221Y21798D01*
X19199Y21809D01*
X19174Y21820D01*
X19116Y21838D01*
X19112D01*
X19105Y21842D01*
X19090D01*
X19072Y21845D01*
X19046Y21849D01*
X19017D01*
X18977Y21853D01*
X18548D01*
Y20735D01*
X18213D01*
Y23254D01*
X19381D01*
X19410Y23250D01*
D02*
G37*
G36*
X26506Y5783D02*
X26531D01*
X26560Y5779D01*
X26629Y5765D01*
X26706Y5747D01*
X26786Y5718D01*
X26866Y5674D01*
X26906Y5648D01*
X26942Y5619D01*
X26946Y5616D01*
X26950Y5612D01*
X26961Y5601D01*
X26972Y5590D01*
X26990Y5572D01*
X27004Y5550D01*
X27044Y5499D01*
X27084Y5434D01*
X27121Y5354D01*
X27154Y5263D01*
X27175Y5161D01*
X26866Y5135D01*
Y5139D01*
X26862Y5142D01*
X26859Y5164D01*
X26848Y5197D01*
X26833Y5237D01*
X26819Y5281D01*
X26797Y5325D01*
X26771Y5364D01*
X26746Y5397D01*
X26739Y5404D01*
X26724Y5419D01*
X26699Y5441D01*
X26662Y5466D01*
X26615Y5488D01*
X26564Y5510D01*
X26502Y5525D01*
X26436Y5532D01*
X26411D01*
X26382Y5528D01*
X26349Y5521D01*
X26305Y5510D01*
X26262Y5495D01*
X26218Y5477D01*
X26174Y5448D01*
X26167Y5445D01*
X26149Y5430D01*
X26123Y5404D01*
X26091Y5368D01*
X26054Y5325D01*
X26014Y5274D01*
X25978Y5208D01*
X25941Y5135D01*
Y5131D01*
X25938Y5124D01*
X25934Y5113D01*
X25927Y5099D01*
X25923Y5077D01*
X25916Y5051D01*
X25909Y5022D01*
X25901Y4986D01*
X25890Y4946D01*
X25883Y4902D01*
X25876Y4855D01*
X25872Y4804D01*
X25865Y4746D01*
X25861Y4688D01*
X25858Y4622D01*
Y4556D01*
X25861Y4560D01*
X25876Y4582D01*
X25901Y4611D01*
X25934Y4647D01*
X25971Y4691D01*
X26018Y4731D01*
X26069Y4771D01*
X26127Y4808D01*
X26131D01*
X26134Y4811D01*
X26156Y4822D01*
X26189Y4833D01*
X26233Y4851D01*
X26284Y4866D01*
X26342Y4877D01*
X26404Y4888D01*
X26469Y4891D01*
X26498D01*
X26520Y4888D01*
X26549Y4884D01*
X26578Y4880D01*
X26615Y4873D01*
X26651Y4862D01*
X26735Y4837D01*
X26779Y4818D01*
X26822Y4793D01*
X26866Y4767D01*
X26913Y4738D01*
X26957Y4702D01*
X26997Y4662D01*
X27001Y4658D01*
X27008Y4651D01*
X27019Y4640D01*
X27030Y4622D01*
X27048Y4597D01*
X27066Y4571D01*
X27084Y4538D01*
X27106Y4502D01*
X27128Y4462D01*
X27146Y4418D01*
X27165Y4367D01*
X27183Y4316D01*
X27194Y4262D01*
X27204Y4200D01*
X27212Y4138D01*
X27215Y4072D01*
Y4069D01*
Y4061D01*
Y4050D01*
Y4032D01*
X27212Y4010D01*
Y3989D01*
X27201Y3930D01*
X27190Y3861D01*
X27172Y3788D01*
X27146Y3708D01*
X27110Y3632D01*
Y3628D01*
X27106Y3625D01*
X27099Y3614D01*
X27092Y3599D01*
X27070Y3563D01*
X27037Y3515D01*
X26997Y3464D01*
X26950Y3413D01*
X26891Y3362D01*
X26830Y3319D01*
X26826D01*
X26822Y3315D01*
X26811Y3308D01*
X26797Y3304D01*
X26760Y3286D01*
X26713Y3268D01*
X26651Y3246D01*
X26582Y3232D01*
X26506Y3217D01*
X26422Y3213D01*
X26404D01*
X26386Y3217D01*
X26356D01*
X26324Y3221D01*
X26287Y3228D01*
X26244Y3239D01*
X26200Y3250D01*
X26149Y3264D01*
X26098Y3282D01*
X26047Y3304D01*
X25992Y3333D01*
X25941Y3366D01*
X25890Y3402D01*
X25839Y3446D01*
X25792Y3497D01*
X25789Y3501D01*
X25781Y3512D01*
X25770Y3526D01*
X25756Y3552D01*
X25734Y3585D01*
X25716Y3621D01*
X25694Y3668D01*
X25672Y3719D01*
X25647Y3781D01*
X25625Y3850D01*
X25607Y3927D01*
X25588Y4010D01*
X25570Y4105D01*
X25559Y4207D01*
X25552Y4316D01*
X25548Y4433D01*
Y4436D01*
Y4440D01*
Y4451D01*
Y4465D01*
X25552Y4502D01*
Y4553D01*
X25556Y4611D01*
X25563Y4680D01*
X25570Y4757D01*
X25581Y4840D01*
X25596Y4924D01*
X25614Y5015D01*
X25636Y5102D01*
X25661Y5190D01*
X25694Y5274D01*
X25730Y5354D01*
X25770Y5430D01*
X25818Y5495D01*
X25821Y5499D01*
X25829Y5506D01*
X25843Y5521D01*
X25861Y5543D01*
X25883Y5565D01*
X25912Y5587D01*
X25949Y5616D01*
X25985Y5641D01*
X26029Y5667D01*
X26076Y5696D01*
X26131Y5718D01*
X26185Y5743D01*
X26247Y5761D01*
X26313Y5776D01*
X26382Y5783D01*
X26455Y5787D01*
X26484D01*
X26506Y5783D01*
D02*
G37*
G36*
X22997Y3257D02*
X22676D01*
Y5364D01*
X21941Y3257D01*
X21643D01*
X20915Y5401D01*
Y3257D01*
X20594D01*
Y5776D01*
X21093D01*
X21690Y3989D01*
Y3985D01*
X21694Y3978D01*
X21697Y3967D01*
X21704Y3949D01*
X21719Y3905D01*
X21737Y3850D01*
X21755Y3788D01*
X21777Y3726D01*
X21795Y3668D01*
X21810Y3617D01*
X21814Y3625D01*
X21817Y3643D01*
X21828Y3675D01*
X21843Y3719D01*
X21861Y3777D01*
X21887Y3847D01*
X21912Y3927D01*
X21945Y4021D01*
X22549Y5776D01*
X22997D01*
Y3257D01*
D02*
G37*
G36*
X25344Y5477D02*
X24515D01*
Y3257D01*
X24180D01*
Y5477D01*
X23350D01*
Y5776D01*
X25344D01*
Y5477D01*
D02*
G37*
G36*
X20085D02*
X18596D01*
Y4709D01*
X19990D01*
Y4411D01*
X18596D01*
Y3555D01*
X20143D01*
Y3257D01*
X18261D01*
Y5776D01*
X20085D01*
Y5477D01*
D02*
G37*
G36*
X17912D02*
X17082D01*
Y3257D01*
X16747D01*
Y5477D01*
X15917D01*
Y5776D01*
X17912D01*
Y5477D01*
D02*
G37*
G36*
X32333Y5783D02*
X32381Y5776D01*
X32435Y5765D01*
X32493Y5750D01*
X32555Y5732D01*
X32614Y5703D01*
X32617D01*
X32621Y5699D01*
X32639Y5689D01*
X32668Y5670D01*
X32705Y5645D01*
X32745Y5608D01*
X32788Y5568D01*
X32828Y5521D01*
X32868Y5466D01*
X32872Y5459D01*
X32887Y5441D01*
X32901Y5408D01*
X32927Y5361D01*
X32948Y5306D01*
X32978Y5244D01*
X33003Y5172D01*
X33025Y5091D01*
Y5088D01*
X33029Y5081D01*
X33032Y5070D01*
X33036Y5051D01*
X33039Y5030D01*
X33043Y5004D01*
X33050Y4971D01*
X33054Y4935D01*
X33061Y4895D01*
X33065Y4851D01*
X33069Y4800D01*
X33076Y4749D01*
X33079Y4691D01*
Y4633D01*
X33083Y4567D01*
Y4498D01*
Y4495D01*
Y4480D01*
Y4454D01*
Y4425D01*
X33079Y4385D01*
Y4342D01*
X33076Y4294D01*
X33072Y4243D01*
X33061Y4127D01*
X33043Y4007D01*
X33021Y3890D01*
X33007Y3836D01*
X32989Y3781D01*
Y3777D01*
X32985Y3770D01*
X32978Y3756D01*
X32970Y3737D01*
X32963Y3712D01*
X32948Y3686D01*
X32919Y3625D01*
X32883Y3559D01*
X32836Y3486D01*
X32781Y3421D01*
X32715Y3359D01*
X32712D01*
X32708Y3352D01*
X32697Y3344D01*
X32683Y3337D01*
X32664Y3326D01*
X32646Y3311D01*
X32592Y3286D01*
X32526Y3261D01*
X32450Y3235D01*
X32359Y3221D01*
X32261Y3213D01*
X32224D01*
X32199Y3217D01*
X32169Y3221D01*
X32133Y3228D01*
X32093Y3235D01*
X32049Y3246D01*
X32006Y3261D01*
X31958Y3275D01*
X31911Y3297D01*
X31864Y3322D01*
X31816Y3352D01*
X31769Y3388D01*
X31725Y3428D01*
X31685Y3472D01*
X31682Y3475D01*
X31674Y3486D01*
X31664Y3505D01*
X31645Y3534D01*
X31627Y3566D01*
X31609Y3610D01*
X31583Y3661D01*
X31562Y3719D01*
X31540Y3785D01*
X31518Y3861D01*
X31496Y3945D01*
X31478Y4039D01*
X31460Y4141D01*
X31449Y4251D01*
X31442Y4371D01*
X31438Y4498D01*
Y4502D01*
Y4516D01*
Y4542D01*
Y4571D01*
X31442Y4611D01*
Y4655D01*
X31445Y4702D01*
X31449Y4757D01*
X31460Y4870D01*
X31478Y4990D01*
X31500Y5110D01*
X31514Y5164D01*
X31529Y5219D01*
Y5223D01*
X31532Y5230D01*
X31540Y5244D01*
X31547Y5263D01*
X31554Y5288D01*
X31569Y5314D01*
X31598Y5375D01*
X31634Y5441D01*
X31682Y5510D01*
X31736Y5579D01*
X31802Y5638D01*
X31806D01*
X31809Y5645D01*
X31820Y5652D01*
X31835Y5659D01*
X31853Y5674D01*
X31875Y5685D01*
X31929Y5714D01*
X31995Y5739D01*
X32071Y5765D01*
X32162Y5779D01*
X32261Y5787D01*
X32293D01*
X32333Y5783D01*
D02*
G37*
G36*
X30375D02*
X30422Y5776D01*
X30477Y5765D01*
X30535Y5750D01*
X30597Y5732D01*
X30655Y5703D01*
X30659D01*
X30663Y5699D01*
X30681Y5689D01*
X30710Y5670D01*
X30746Y5645D01*
X30786Y5608D01*
X30830Y5568D01*
X30870Y5521D01*
X30910Y5466D01*
X30914Y5459D01*
X30928Y5441D01*
X30943Y5408D01*
X30968Y5361D01*
X30990Y5306D01*
X31019Y5244D01*
X31045Y5172D01*
X31067Y5091D01*
Y5088D01*
X31070Y5081D01*
X31074Y5070D01*
X31078Y5051D01*
X31081Y5030D01*
X31085Y5004D01*
X31092Y4971D01*
X31096Y4935D01*
X31103Y4895D01*
X31107Y4851D01*
X31110Y4800D01*
X31117Y4749D01*
X31121Y4691D01*
Y4633D01*
X31125Y4567D01*
Y4498D01*
Y4495D01*
Y4480D01*
Y4454D01*
Y4425D01*
X31121Y4385D01*
Y4342D01*
X31117Y4294D01*
X31114Y4243D01*
X31103Y4127D01*
X31085Y4007D01*
X31063Y3890D01*
X31048Y3836D01*
X31030Y3781D01*
Y3777D01*
X31027Y3770D01*
X31019Y3756D01*
X31012Y3737D01*
X31005Y3712D01*
X30990Y3686D01*
X30961Y3625D01*
X30925Y3559D01*
X30877Y3486D01*
X30823Y3421D01*
X30757Y3359D01*
X30753D01*
X30750Y3352D01*
X30739Y3344D01*
X30724Y3337D01*
X30706Y3326D01*
X30688Y3311D01*
X30633Y3286D01*
X30568Y3261D01*
X30491Y3235D01*
X30400Y3221D01*
X30302Y3213D01*
X30266D01*
X30240Y3217D01*
X30211Y3221D01*
X30175Y3228D01*
X30135Y3235D01*
X30091Y3246D01*
X30047Y3261D01*
X30000Y3275D01*
X29953Y3297D01*
X29905Y3322D01*
X29858Y3352D01*
X29811Y3388D01*
X29767Y3428D01*
X29727Y3472D01*
X29723Y3475D01*
X29716Y3486D01*
X29705Y3505D01*
X29687Y3534D01*
X29669Y3566D01*
X29651Y3610D01*
X29625Y3661D01*
X29603Y3719D01*
X29581Y3785D01*
X29560Y3861D01*
X29538Y3945D01*
X29520Y4039D01*
X29501Y4141D01*
X29490Y4251D01*
X29483Y4371D01*
X29480Y4498D01*
Y4502D01*
Y4516D01*
Y4542D01*
Y4571D01*
X29483Y4611D01*
Y4655D01*
X29487Y4702D01*
X29490Y4757D01*
X29501Y4870D01*
X29520Y4990D01*
X29541Y5110D01*
X29556Y5164D01*
X29570Y5219D01*
Y5223D01*
X29574Y5230D01*
X29581Y5244D01*
X29589Y5263D01*
X29596Y5288D01*
X29611Y5314D01*
X29640Y5375D01*
X29676Y5441D01*
X29723Y5510D01*
X29778Y5579D01*
X29844Y5638D01*
X29847D01*
X29851Y5645D01*
X29862Y5652D01*
X29876Y5659D01*
X29895Y5674D01*
X29916Y5685D01*
X29971Y5714D01*
X30036Y5739D01*
X30113Y5765D01*
X30204Y5779D01*
X30302Y5787D01*
X30335D01*
X30375Y5783D01*
D02*
G37*
G36*
X28417D02*
X28464Y5776D01*
X28519Y5765D01*
X28577Y5750D01*
X28639Y5732D01*
X28697Y5703D01*
X28701D01*
X28704Y5699D01*
X28722Y5689D01*
X28752Y5670D01*
X28788Y5645D01*
X28828Y5608D01*
X28872Y5568D01*
X28912Y5521D01*
X28952Y5466D01*
X28955Y5459D01*
X28970Y5441D01*
X28984Y5408D01*
X29010Y5361D01*
X29032Y5306D01*
X29061Y5244D01*
X29086Y5172D01*
X29108Y5091D01*
Y5088D01*
X29112Y5081D01*
X29116Y5070D01*
X29119Y5051D01*
X29123Y5030D01*
X29126Y5004D01*
X29134Y4971D01*
X29137Y4935D01*
X29145Y4895D01*
X29148Y4851D01*
X29152Y4800D01*
X29159Y4749D01*
X29163Y4691D01*
Y4633D01*
X29166Y4567D01*
Y4498D01*
Y4495D01*
Y4480D01*
Y4454D01*
Y4425D01*
X29163Y4385D01*
Y4342D01*
X29159Y4294D01*
X29156Y4243D01*
X29145Y4127D01*
X29126Y4007D01*
X29105Y3890D01*
X29090Y3836D01*
X29072Y3781D01*
Y3777D01*
X29068Y3770D01*
X29061Y3756D01*
X29054Y3737D01*
X29046Y3712D01*
X29032Y3686D01*
X29003Y3625D01*
X28966Y3559D01*
X28919Y3486D01*
X28864Y3421D01*
X28799Y3359D01*
X28795D01*
X28792Y3352D01*
X28781Y3344D01*
X28766Y3337D01*
X28748Y3326D01*
X28730Y3311D01*
X28675Y3286D01*
X28610Y3261D01*
X28533Y3235D01*
X28442Y3221D01*
X28344Y3213D01*
X28307D01*
X28282Y3217D01*
X28253Y3221D01*
X28216Y3228D01*
X28176Y3235D01*
X28133Y3246D01*
X28089Y3261D01*
X28042Y3275D01*
X27994Y3297D01*
X27947Y3322D01*
X27900Y3352D01*
X27852Y3388D01*
X27809Y3428D01*
X27769Y3472D01*
X27765Y3475D01*
X27758Y3486D01*
X27747Y3505D01*
X27729Y3534D01*
X27711Y3566D01*
X27692Y3610D01*
X27667Y3661D01*
X27645Y3719D01*
X27623Y3785D01*
X27601Y3861D01*
X27579Y3945D01*
X27561Y4039D01*
X27543Y4141D01*
X27532Y4251D01*
X27525Y4371D01*
X27521Y4498D01*
Y4502D01*
Y4516D01*
Y4542D01*
Y4571D01*
X27525Y4611D01*
Y4655D01*
X27529Y4702D01*
X27532Y4757D01*
X27543Y4870D01*
X27561Y4990D01*
X27583Y5110D01*
X27598Y5164D01*
X27612Y5219D01*
Y5223D01*
X27616Y5230D01*
X27623Y5244D01*
X27630Y5263D01*
X27638Y5288D01*
X27652Y5314D01*
X27681Y5375D01*
X27718Y5441D01*
X27765Y5510D01*
X27820Y5579D01*
X27885Y5638D01*
X27889D01*
X27893Y5645D01*
X27903Y5652D01*
X27918Y5659D01*
X27936Y5674D01*
X27958Y5685D01*
X28013Y5714D01*
X28078Y5739D01*
X28155Y5765D01*
X28246Y5779D01*
X28344Y5787D01*
X28377D01*
X28417Y5783D01*
D02*
G37*
%LPC*%
G36*
X23679Y33105D02*
X23675D01*
X23661D01*
X23642D01*
X23613Y33102D01*
X23580D01*
X23544Y33098D01*
X23500Y33094D01*
X23457Y33091D01*
X23358Y33073D01*
X23256Y33051D01*
X23162Y33018D01*
X23114Y32996D01*
X23074Y32974D01*
X23071D01*
X23064Y32967D01*
X23053Y32960D01*
X23038Y32952D01*
X23002Y32923D01*
X22958Y32887D01*
X22911Y32840D01*
X22863Y32785D01*
X22823Y32723D01*
X22791Y32658D01*
X22787Y32650D01*
X22783Y32632D01*
X22772Y32599D01*
X22761Y32552D01*
X22754Y32494D01*
X22743Y32421D01*
X22740Y32377D01*
Y32330D01*
X22736Y32283D01*
Y31700D01*
X24658D01*
Y32297D01*
X24654Y32323D01*
X24651Y32377D01*
X24647Y32439D01*
X24640Y32505D01*
X24629Y32570D01*
X24614Y32625D01*
X24611Y32632D01*
X24607Y32650D01*
X24596Y32676D01*
X24581Y32708D01*
X24560Y32745D01*
X24538Y32781D01*
X24512Y32818D01*
X24483Y32854D01*
X24476Y32858D01*
X24461Y32872D01*
X24436Y32894D01*
X24399Y32920D01*
X24352Y32949D01*
X24297Y32982D01*
X24236Y33011D01*
X24166Y33036D01*
X24163D01*
X24156Y33040D01*
X24145Y33043D01*
X24130Y33047D01*
X24112Y33051D01*
X24086Y33058D01*
X24061Y33065D01*
X24032Y33073D01*
X23959Y33083D01*
X23875Y33094D01*
X23781Y33102D01*
X23679Y33105D01*
D02*
G37*
G36*
X43533Y21956D02*
X42812D01*
Y21056D01*
X43490D01*
X43515Y21060D01*
X43540D01*
X43570Y21064D01*
X43639Y21071D01*
X43715Y21086D01*
X43792Y21107D01*
X43861Y21136D01*
X43894Y21155D01*
X43919Y21177D01*
X43926Y21184D01*
X43941Y21198D01*
X43963Y21227D01*
X43988Y21264D01*
X44014Y21311D01*
X44036Y21370D01*
X44050Y21435D01*
X44057Y21511D01*
Y21515D01*
Y21519D01*
Y21537D01*
X44054Y21570D01*
X44047Y21606D01*
X44039Y21646D01*
X44025Y21693D01*
X44003Y21737D01*
X43977Y21781D01*
X43974Y21784D01*
X43963Y21799D01*
X43945Y21817D01*
X43923Y21843D01*
X43890Y21868D01*
X43854Y21890D01*
X43813Y21912D01*
X43766Y21930D01*
X43763D01*
X43748Y21934D01*
X43726Y21937D01*
X43697Y21945D01*
X43653Y21948D01*
X43599Y21952D01*
X43533Y21956D01*
D02*
G37*
G36*
X19341Y22974D02*
X18548D01*
Y22140D01*
X19297D01*
X19341Y22144D01*
X19392Y22147D01*
X19450Y22151D01*
X19509Y22158D01*
X19567Y22169D01*
X19618Y22184D01*
X19625Y22187D01*
X19640Y22195D01*
X19661Y22206D01*
X19691Y22220D01*
X19723Y22242D01*
X19756Y22267D01*
X19789Y22300D01*
X19814Y22337D01*
X19818Y22340D01*
X19825Y22355D01*
X19836Y22377D01*
X19851Y22406D01*
X19862Y22439D01*
X19873Y22475D01*
X19880Y22519D01*
X19884Y22562D01*
Y22566D01*
Y22570D01*
X19880Y22591D01*
X19876Y22624D01*
X19869Y22668D01*
X19851Y22712D01*
X19829Y22763D01*
X19796Y22810D01*
X19752Y22857D01*
X19745Y22861D01*
X19727Y22875D01*
X19698Y22894D01*
X19651Y22916D01*
X19596Y22937D01*
X19523Y22955D01*
X19439Y22970D01*
X19341Y22974D01*
D02*
G37*
G36*
X26407Y4618D02*
X26386D01*
X26371Y4615D01*
X26335Y4611D01*
X26284Y4600D01*
X26229Y4582D01*
X26167Y4553D01*
X26109Y4516D01*
X26051Y4465D01*
X26043Y4458D01*
X26029Y4440D01*
X26003Y4407D01*
X25978Y4360D01*
X25952Y4305D01*
X25927Y4236D01*
X25912Y4160D01*
X25905Y4072D01*
Y4065D01*
Y4047D01*
X25909Y4014D01*
X25912Y3974D01*
X25920Y3927D01*
X25934Y3876D01*
X25949Y3821D01*
X25971Y3766D01*
X25974Y3759D01*
X25985Y3741D01*
X26000Y3716D01*
X26022Y3683D01*
X26047Y3650D01*
X26080Y3610D01*
X26116Y3577D01*
X26160Y3545D01*
X26167Y3541D01*
X26182Y3534D01*
X26207Y3519D01*
X26240Y3508D01*
X26276Y3494D01*
X26320Y3479D01*
X26367Y3472D01*
X26418Y3468D01*
X26436D01*
X26451Y3472D01*
X26487Y3475D01*
X26535Y3486D01*
X26586Y3508D01*
X26644Y3534D01*
X26702Y3574D01*
X26731Y3596D01*
X26757Y3625D01*
Y3628D01*
X26764Y3632D01*
X26779Y3654D01*
X26801Y3690D01*
X26830Y3737D01*
X26855Y3799D01*
X26877Y3872D01*
X26891Y3956D01*
X26899Y4054D01*
Y4058D01*
Y4065D01*
Y4080D01*
X26895Y4098D01*
Y4120D01*
X26891Y4145D01*
X26881Y4203D01*
X26866Y4269D01*
X26840Y4338D01*
X26804Y4403D01*
X26757Y4465D01*
X26750Y4473D01*
X26731Y4491D01*
X26702Y4513D01*
X26662Y4542D01*
X26611Y4571D01*
X26553Y4593D01*
X26484Y4611D01*
X26407Y4618D01*
D02*
G37*
G36*
X32257Y5532D02*
X32235D01*
X32220Y5528D01*
X32180Y5521D01*
X32133Y5510D01*
X32078Y5488D01*
X32020Y5455D01*
X31991Y5434D01*
X31962Y5412D01*
X31936Y5383D01*
X31911Y5350D01*
Y5346D01*
X31904Y5339D01*
X31896Y5325D01*
X31886Y5306D01*
X31875Y5277D01*
X31860Y5244D01*
X31849Y5204D01*
X31835Y5157D01*
X31820Y5102D01*
X31806Y5040D01*
X31791Y4971D01*
X31780Y4895D01*
X31769Y4808D01*
X31762Y4713D01*
X31758Y4611D01*
X31754Y4498D01*
Y4491D01*
Y4473D01*
Y4440D01*
X31758Y4396D01*
Y4349D01*
X31762Y4291D01*
X31765Y4229D01*
X31773Y4163D01*
X31791Y4021D01*
X31802Y3952D01*
X31816Y3887D01*
X31831Y3825D01*
X31853Y3766D01*
X31875Y3716D01*
X31900Y3672D01*
Y3668D01*
X31907Y3665D01*
X31926Y3639D01*
X31958Y3606D01*
X31998Y3570D01*
X32053Y3534D01*
X32115Y3501D01*
X32184Y3475D01*
X32220Y3472D01*
X32261Y3468D01*
X32282D01*
X32297Y3472D01*
X32333Y3479D01*
X32384Y3494D01*
X32439Y3519D01*
X32501Y3555D01*
X32530Y3577D01*
X32559Y3606D01*
X32588Y3635D01*
X32617Y3672D01*
Y3675D01*
X32625Y3683D01*
X32632Y3694D01*
X32639Y3712D01*
X32654Y3737D01*
X32664Y3770D01*
X32679Y3807D01*
X32694Y3850D01*
X32705Y3905D01*
X32719Y3963D01*
X32734Y4032D01*
X32745Y4105D01*
X32752Y4192D01*
X32759Y4283D01*
X32766Y4385D01*
Y4498D01*
Y4502D01*
Y4505D01*
Y4524D01*
Y4556D01*
X32763Y4600D01*
Y4647D01*
X32759Y4706D01*
X32756Y4767D01*
X32748Y4837D01*
X32730Y4975D01*
X32719Y5044D01*
X32705Y5110D01*
X32690Y5172D01*
X32668Y5230D01*
X32646Y5281D01*
X32621Y5325D01*
Y5328D01*
X32614Y5332D01*
X32606Y5343D01*
X32595Y5357D01*
X32563Y5390D01*
X32523Y5430D01*
X32468Y5466D01*
X32406Y5499D01*
X32373Y5514D01*
X32337Y5525D01*
X32297Y5528D01*
X32257Y5532D01*
D02*
G37*
G36*
X30299D02*
X30277D01*
X30262Y5528D01*
X30222Y5521D01*
X30175Y5510D01*
X30120Y5488D01*
X30062Y5455D01*
X30033Y5434D01*
X30004Y5412D01*
X29978Y5383D01*
X29953Y5350D01*
Y5346D01*
X29945Y5339D01*
X29938Y5325D01*
X29927Y5306D01*
X29916Y5277D01*
X29902Y5244D01*
X29891Y5204D01*
X29876Y5157D01*
X29862Y5102D01*
X29847Y5040D01*
X29833Y4971D01*
X29822Y4895D01*
X29811Y4808D01*
X29803Y4713D01*
X29800Y4611D01*
X29796Y4498D01*
Y4491D01*
Y4473D01*
Y4440D01*
X29800Y4396D01*
Y4349D01*
X29803Y4291D01*
X29807Y4229D01*
X29814Y4163D01*
X29833Y4021D01*
X29844Y3952D01*
X29858Y3887D01*
X29873Y3825D01*
X29895Y3766D01*
X29916Y3716D01*
X29942Y3672D01*
Y3668D01*
X29949Y3665D01*
X29967Y3639D01*
X30000Y3606D01*
X30040Y3570D01*
X30095Y3534D01*
X30157Y3501D01*
X30226Y3475D01*
X30262Y3472D01*
X30302Y3468D01*
X30324D01*
X30339Y3472D01*
X30375Y3479D01*
X30426Y3494D01*
X30481Y3519D01*
X30542Y3555D01*
X30571Y3577D01*
X30601Y3606D01*
X30630Y3635D01*
X30659Y3672D01*
Y3675D01*
X30666Y3683D01*
X30673Y3694D01*
X30681Y3712D01*
X30695Y3737D01*
X30706Y3770D01*
X30721Y3807D01*
X30735Y3850D01*
X30746Y3905D01*
X30761Y3963D01*
X30775Y4032D01*
X30786Y4105D01*
X30794Y4192D01*
X30801Y4283D01*
X30808Y4385D01*
Y4498D01*
Y4502D01*
Y4505D01*
Y4524D01*
Y4556D01*
X30804Y4600D01*
Y4647D01*
X30801Y4706D01*
X30797Y4767D01*
X30790Y4837D01*
X30772Y4975D01*
X30761Y5044D01*
X30746Y5110D01*
X30732Y5172D01*
X30710Y5230D01*
X30688Y5281D01*
X30663Y5325D01*
Y5328D01*
X30655Y5332D01*
X30648Y5343D01*
X30637Y5357D01*
X30604Y5390D01*
X30564Y5430D01*
X30510Y5466D01*
X30448Y5499D01*
X30415Y5514D01*
X30379Y5525D01*
X30339Y5528D01*
X30299Y5532D01*
D02*
G37*
G36*
X28340D02*
X28318D01*
X28304Y5528D01*
X28264Y5521D01*
X28216Y5510D01*
X28162Y5488D01*
X28104Y5455D01*
X28074Y5434D01*
X28045Y5412D01*
X28020Y5383D01*
X27994Y5350D01*
Y5346D01*
X27987Y5339D01*
X27980Y5325D01*
X27969Y5306D01*
X27958Y5277D01*
X27943Y5244D01*
X27933Y5204D01*
X27918Y5157D01*
X27903Y5102D01*
X27889Y5040D01*
X27874Y4971D01*
X27863Y4895D01*
X27852Y4808D01*
X27845Y4713D01*
X27841Y4611D01*
X27838Y4498D01*
Y4491D01*
Y4473D01*
Y4440D01*
X27841Y4396D01*
Y4349D01*
X27845Y4291D01*
X27849Y4229D01*
X27856Y4163D01*
X27874Y4021D01*
X27885Y3952D01*
X27900Y3887D01*
X27914Y3825D01*
X27936Y3766D01*
X27958Y3716D01*
X27983Y3672D01*
Y3668D01*
X27991Y3665D01*
X28009Y3639D01*
X28042Y3606D01*
X28082Y3570D01*
X28136Y3534D01*
X28198Y3501D01*
X28267Y3475D01*
X28304Y3472D01*
X28344Y3468D01*
X28366D01*
X28380Y3472D01*
X28417Y3479D01*
X28468Y3494D01*
X28522Y3519D01*
X28584Y3555D01*
X28613Y3577D01*
X28642Y3606D01*
X28671Y3635D01*
X28701Y3672D01*
Y3675D01*
X28708Y3683D01*
X28715Y3694D01*
X28722Y3712D01*
X28737Y3737D01*
X28748Y3770D01*
X28762Y3807D01*
X28777Y3850D01*
X28788Y3905D01*
X28802Y3963D01*
X28817Y4032D01*
X28828Y4105D01*
X28835Y4192D01*
X28842Y4283D01*
X28850Y4385D01*
Y4498D01*
Y4502D01*
Y4505D01*
Y4524D01*
Y4556D01*
X28846Y4600D01*
Y4647D01*
X28842Y4706D01*
X28839Y4767D01*
X28832Y4837D01*
X28813Y4975D01*
X28802Y5044D01*
X28788Y5110D01*
X28773Y5172D01*
X28752Y5230D01*
X28730Y5281D01*
X28704Y5325D01*
Y5328D01*
X28697Y5332D01*
X28690Y5343D01*
X28679Y5357D01*
X28646Y5390D01*
X28606Y5430D01*
X28551Y5466D01*
X28489Y5499D01*
X28457Y5514D01*
X28420Y5525D01*
X28380Y5528D01*
X28340Y5532D01*
D02*
G37*
%LPD*%
D10*
X24000Y46000D02*
G03*
X24000Y46000I-500J0D01*
G01*
D11*
X34823Y10669D02*
G03*
X34823Y10669I-492J0D01*
G01*
D12*
X15138Y8898D02*
Y9291D01*
Y16378D02*
Y16772D01*
Y8898D02*
X26272D01*
X15138Y16772D02*
X26272D01*
X26760Y20622D02*
X28335D01*
X26760Y23378D02*
X28335D01*
X38500Y34500D02*
Y44500D01*
X8500Y34500D02*
X38500D01*
X8500D02*
Y44500D01*
X38500D01*
M02*
